<?xml version="1.0" encoding="UTF-8"?>
<svg xmlns="http://www.w3.org/2000/svg" xmlns:xlink="http://www.w3.org/1999/xlink" width="810pt" height="809.999993pt" viewBox="0 0 810 809.999993" version="1.2">
<g id="surface1">
<path style=" stroke:none;fill-rule:nonzero;fill:rgb(90.19928%,49.409485%,13.328552%);fill-opacity:1;" d="M 213.238281 41.914062 L 337.179688 41.914062 L 373.847656 5.246094 L 542.140625 5.246094 L 567.816406 32.746094 L 809.476562 32.746094 L 809.476562 27.484375 L 570.105469 27.484375 L 544.433594 -0.015625 L 371.675781 -0.015625 L 335 36.652344 L 213.238281 36.652344 L 213.238281 41.914062 "/>
<path style=" stroke:none;fill-rule:nonzero;fill:rgb(90.19928%,49.409485%,13.328552%);fill-opacity:1;" d="M 174.558594 100.132812 L 345.46875 100.132812 L 400.9375 41.914062 L 535.789062 41.914062 L 586.210938 91.878906 L 809.476562 91.878906 L 809.476562 86.617188 L 588.378906 86.617188 L 537.953125 36.652344 L 398.683594 36.652344 L 343.210938 94.871094 L 176.738281 94.871094 L 123.417969 41.550781 L 119.695312 45.273438 L 174.558594 100.132812 "/>
<path style=" stroke:none;fill-rule:nonzero;fill:rgb(90.19928%,49.409485%,13.328552%);fill-opacity:1;" d="M 405.765625 81.800781 L 540.296875 81.800781 L 586.136719 56.585938 L 809.476562 56.585938 L 809.476562 51.324219 L 584.785156 51.324219 L 538.949219 76.539062 L 405.765625 76.539062 L 405.765625 81.800781 "/>
<path style=" stroke:none;fill-rule:nonzero;fill:rgb(90.19928%,49.409485%,13.328552%);fill-opacity:1;" d="M 500.164062 203.273438 L 651.019531 203.273438 L 687.695312 150.097656 L 809.476562 150.097656 L 809.476562 144.835938 L 684.925781 144.835938 L 648.253906 198.007812 L 502.066406 198.007812 L 458.0625 161.339844 L 222.40625 161.339844 L 222.40625 166.601562 L 456.152344 166.601562 L 500.164062 203.273438 "/>
<path style=" stroke:none;fill-rule:nonzero;fill:rgb(90.19928%,49.409485%,13.328552%);fill-opacity:1;" d="M 522.144531 166.601562 L 619.796875 166.601562 L 650.96875 124.429688 L 809.476562 124.429688 L 809.476562 119.167969 L 648.3125 119.167969 L 617.140625 161.339844 L 524.09375 161.339844 L 485.585938 128.335938 L 337.925781 128.335938 L 337.925781 133.601562 L 483.640625 133.601562 L 522.144531 166.601562 "/>
<path style=" stroke:none;fill-rule:nonzero;fill:rgb(90.19928%,49.409485%,13.328552%);fill-opacity:1;" d="M 306.410156 227.113281 L 338.953125 196.859375 L 447.378906 196.859375 L 480.382812 227.113281 L 809.476562 227.113281 L 809.476562 221.851562 L 482.425781 221.851562 L 449.421875 191.59375 L 336.886719 191.59375 L 304.339844 221.851562 L 306.410156 227.113281 "/>
<path style=" stroke:none;fill-rule:nonzero;fill:rgb(90.19928%,49.409485%,13.328552%);fill-opacity:1;" d="M 212.128906 287.621094 L 290.039062 287.621094 L 345.050781 227.113281 L 432.226562 227.113281 L 467.21875 260.117188 L 658.789062 260.117188 L 717.925781 176.6875 L 809.476562 176.6875 L 809.476562 171.425781 L 715.207031 171.425781 L 656.070312 254.851562 L 469.3125 254.851562 L 434.316406 221.851562 L 342.71875 221.851562 L 287.707031 282.359375 L 214.351562 282.359375 L 169.742188 236.398438 L 165.96875 240.0625 L 212.128906 287.621094 "/>
<path style=" stroke:none;fill-rule:nonzero;fill:rgb(90.19928%,49.409485%,13.328552%);fill-opacity:1;" d="M 345.070312 335.753906 L 434.335938 335.753906 L 494.085938 277.996094 L 809.476562 277.996094 L 809.476562 272.730469 L 491.953125 272.730469 L 432.207031 330.492188 L 347.28125 330.492188 L 270.726562 252.105469 L 222.40625 252.105469 L 222.40625 257.367188 L 268.511719 257.367188 L 345.070312 335.753906 "/>
<path style=" stroke:none;fill-rule:nonzero;fill:rgb(90.19928%,49.409485%,13.328552%);fill-opacity:1;" d="M 543.652344 356.382812 L 809.476562 356.382812 L 809.476562 351.121094 L 545.679688 351.121094 L 446.65625 261.730469 L 351.042969 261.730469 L 267.84375 344.929688 L 192.996094 344.929688 L 192.996094 350.191406 L 270.023438 350.191406 L 353.222656 266.992188 L 444.636719 266.992188 L 543.652344 356.382812 "/>
<path style=" stroke:none;fill-rule:nonzero;fill:rgb(90.19928%,49.409485%,13.328552%);fill-opacity:1;" d="M 343.425781 379.757812 L 470.597656 379.757812 L 530.722656 311.683594 L 809.476562 311.683594 L 809.476562 306.421875 L 528.351562 306.421875 L 468.222656 374.496094 L 343.425781 374.496094 L 343.425781 379.757812 "/>
<path style=" stroke:none;fill-rule:nonzero;fill:rgb(90.19928%,49.409485%,13.328552%);fill-opacity:1;" d="M 299.996094 430.640625 L 489.785156 430.640625 L 533.410156 385.261719 L 809.476562 385.261719 L 809.476562 380 L 531.164062 380 L 487.542969 425.378906 L 302.507812 425.378906 L 261.246094 374.496094 L 134.847656 374.496094 L 134.847656 379.757812 L 258.738281 379.757812 L 299.996094 430.640625 "/>
<path style=" stroke:none;fill-rule:nonzero;fill:rgb(90.19928%,49.409485%,13.328552%);fill-opacity:1;" d="M 301.457031 480.148438 L 501.191406 480.148438 L 555.429688 422.394531 L 809.476562 422.394531 L 809.476562 417.132812 L 553.148438 417.132812 L 498.914062 474.886719 L 303.796875 474.886719 L 252.320312 417.996094 L 248.414062 421.527344 L 301.457031 480.148438 "/>
<path style=" stroke:none;fill-rule:nonzero;fill:rgb(90.19928%,49.409485%,13.328552%);fill-opacity:1;" d="M 134.847656 597.042969 L 276.371094 597.042969 L 331.378906 529.65625 L 809.476562 529.65625 L 809.476562 524.394531 L 328.882812 524.394531 L 273.875 591.78125 L 134.847656 591.78125 L 134.847656 597.042969 "/>
<path style=" stroke:none;fill-rule:nonzero;fill:rgb(90.19928%,49.409485%,13.328552%);fill-opacity:1;" d="M 230.386719 563.351562 L 474.855469 563.351562 L 558.128906 480.148438 L 809.476562 480.148438 L 809.476562 474.886719 L 555.949219 474.886719 L 472.675781 558.089844 L 232.761719 558.089844 L 158.824219 474.40625 L 154.882812 477.882812 L 230.386719 563.351562 "/>
<path style=" stroke:none;fill-rule:nonzero;fill:rgb(90.19928%,49.409485%,13.328552%);fill-opacity:1;" d="M 317.050781 626.988281 L 341.011719 597.382812 L 496.976562 597.382812 L 531.011719 563.351562 L 809.476562 563.351562 L 809.476562 558.089844 L 528.832031 558.089844 L 494.796875 592.121094 L 338.5 592.121094 L 312.957031 623.675781 L 317.050781 626.988281 "/>
<path style=" stroke:none;fill-rule:nonzero;fill:rgb(90.19928%,49.409485%,13.328552%);fill-opacity:1;" d="M 190.628906 693.3125 L 588.355469 693.3125 L 625.488281 657.554688 L 809.476562 657.554688 L 809.476562 652.289062 L 623.367188 652.289062 L 586.234375 688.046875 L 190.628906 688.046875 L 190.628906 693.3125 "/>
<path style=" stroke:none;fill-rule:nonzero;fill:rgb(90.19928%,49.409485%,13.328552%);fill-opacity:1;" d="M 82.59375 726.3125 L 223.523438 726.3125 L 289.992188 657.554688 L 501.152344 657.554688 L 545.765625 612.167969 L 809.476562 612.167969 L 809.476562 606.90625 L 543.558594 606.90625 L 498.949219 652.289062 L 287.761719 652.289062 L 221.289062 721.050781 L 82.59375 721.050781 L 82.59375 726.3125 "/>
<path style=" stroke:none;fill-rule:nonzero;fill:rgb(90.19928%,49.409485%,13.328552%);fill-opacity:1;" d="M 206.746094 763.441406 L 298.269531 763.441406 L 339.066406 719.769531 L 645.550781 719.769531 L 672.714844 693.3125 L 809.476562 693.3125 L 809.476562 688.046875 L 670.578125 688.046875 L 643.414062 714.507812 L 336.78125 714.507812 L 295.984375 758.179688 L 206.746094 758.179688 L 206.746094 763.441406 "/>
<path style=" stroke:none;fill-rule:nonzero;fill:rgb(90.19928%,49.409485%,13.328552%);fill-opacity:1;" d="M 578.058594 803.320312 L 809.476562 803.320312 L 809.476562 798.058594 L 580.34375 798.058594 L 523.804688 737.550781 L 378.265625 737.550781 L 378.265625 742.8125 L 521.515625 742.8125 L 578.058594 803.320312 "/>
<path style=" stroke:none;fill-rule:nonzero;fill:rgb(90.19928%,49.409485%,13.328552%);fill-opacity:1;" d="M 150.519531 800.574219 L 521.144531 800.574219 L 581.578125 755.421875 L 809.476562 755.421875 L 809.476562 750.160156 L 579.832031 750.160156 L 519.394531 795.308594 L 150.519531 795.308594 L 150.519531 800.574219 "/>
<path style=" stroke:none;fill-rule:nonzero;fill:rgb(90.19928%,49.409485%,13.328552%);fill-opacity:1;" d="M 191.058594 38.695312 C 191.058594 45.203125 196.332031 50.484375 202.847656 50.484375 C 209.355469 50.484375 214.636719 45.203125 214.636719 38.695312 C 214.636719 32.183594 209.355469 26.90625 202.847656 26.90625 C 196.332031 26.90625 191.058594 32.183594 191.058594 38.695312 "/>
<path style=" stroke:none;fill-rule:nonzero;fill:rgb(90.19928%,49.409485%,13.328552%);fill-opacity:1;" d="M 316.863281 130.957031 C 316.863281 137.464844 322.136719 142.746094 328.652344 142.746094 C 335.160156 142.746094 340.441406 137.464844 340.441406 130.957031 C 340.441406 124.441406 335.160156 119.167969 328.652344 119.167969 C 322.136719 119.167969 316.863281 124.441406 316.863281 130.957031 "/>
<path style=" stroke:none;fill-rule:nonzero;fill:rgb(90.19928%,49.409485%,13.328552%);fill-opacity:1;" d="M 284.921875 229.519531 C 284.921875 236.035156 290.199219 241.308594 296.710938 241.308594 C 303.21875 241.308594 308.5 236.035156 308.5 229.519531 C 308.5 223.011719 303.21875 217.730469 296.710938 217.730469 C 290.199219 217.730469 284.921875 223.011719 284.921875 229.519531 "/>
<path style=" stroke:none;fill-rule:nonzero;fill:rgb(90.19928%,49.409485%,13.328552%);fill-opacity:1;" d="M 203.222656 253.609375 C 203.222656 260.117188 208.503906 265.394531 215.011719 265.394531 C 221.523438 265.394531 226.800781 260.117188 226.800781 253.609375 C 226.800781 247.09375 221.523438 241.820312 215.011719 241.820312 C 208.503906 241.820312 203.222656 247.09375 203.222656 253.609375 "/>
<path style=" stroke:none;fill-rule:nonzero;fill:rgb(90.19928%,49.409485%,13.328552%);fill-opacity:1;" d="M 115.378906 376.546875 C 115.378906 383.058594 120.652344 388.335938 127.167969 388.335938 C 133.675781 388.335938 138.957031 383.058594 138.957031 376.546875 C 138.957031 370.039062 133.675781 364.757812 127.167969 364.757812 C 120.652344 364.757812 115.378906 370.039062 115.378906 376.546875 "/>
<path style=" stroke:none;fill-rule:nonzero;fill:rgb(90.19928%,49.409485%,13.328552%);fill-opacity:1;" d="M 326.132812 376.546875 C 326.132812 383.058594 331.414062 388.335938 337.925781 388.335938 C 344.433594 388.335938 349.714844 383.058594 349.714844 376.546875 C 349.714844 370.039062 344.433594 364.757812 337.925781 364.757812 C 331.414062 364.757812 326.132812 370.039062 326.132812 376.546875 "/>
<path style=" stroke:none;fill-rule:nonzero;fill:rgb(90.19928%,49.409485%,13.328552%);fill-opacity:1;" d="M 150.742188 458.828125 C 156 458.828125 160.277344 463.105469 160.277344 468.359375 C 160.277344 473.617188 156 477.894531 150.742188 477.894531 C 145.488281 477.894531 141.210938 473.617188 141.210938 468.359375 C 141.210938 463.105469 145.488281 458.828125 150.742188 458.828125 Z M 150.742188 482.40625 C 158.484375 482.40625 164.785156 476.109375 164.785156 468.359375 C 164.785156 460.621094 158.484375 454.316406 150.742188 454.316406 C 142.996094 454.316406 136.699219 460.621094 136.699219 468.359375 C 136.699219 476.109375 142.996094 482.40625 150.742188 482.40625 "/>
<path style=" stroke:none;fill-rule:nonzero;fill:rgb(90.19928%,49.409485%,13.328552%);fill-opacity:1;" d="M 243.617188 402.40625 C 248.871094 402.40625 253.148438 406.683594 253.148438 411.941406 C 253.148438 417.195312 248.871094 421.472656 243.617188 421.472656 C 238.359375 421.472656 234.082031 417.195312 234.082031 411.941406 C 234.082031 406.683594 238.359375 402.40625 243.617188 402.40625 Z M 243.617188 425.984375 C 251.363281 425.984375 257.660156 419.679688 257.660156 411.941406 C 257.660156 404.191406 251.363281 397.898438 243.617188 397.898438 C 235.875 397.898438 229.570312 404.191406 229.570312 411.941406 C 229.570312 419.679688 235.875 425.984375 243.617188 425.984375 "/>
<path style=" stroke:none;fill-rule:nonzero;fill:rgb(90.19928%,49.409485%,13.328552%);fill-opacity:1;" d="M 195.5 750.902344 C 200.757812 750.902344 205.03125 755.175781 205.03125 760.433594 C 205.03125 765.691406 200.757812 769.964844 195.5 769.964844 C 190.242188 769.964844 185.964844 765.691406 185.964844 760.433594 C 185.964844 755.175781 190.242188 750.902344 195.5 750.902344 Z M 195.5 774.476562 C 203.246094 774.476562 209.542969 768.179688 209.542969 760.433594 C 209.542969 752.691406 203.246094 746.390625 195.5 746.390625 C 187.757812 746.390625 181.457031 752.691406 181.457031 760.433594 C 181.457031 768.179688 187.757812 774.476562 195.5 774.476562 "/>
<path style=" stroke:none;fill-rule:nonzero;fill:rgb(90.19928%,49.409485%,13.328552%);fill-opacity:1;" d="M 162.53125 219.988281 C 167.789062 219.988281 172.0625 224.265625 172.0625 229.519531 C 172.0625 234.777344 167.789062 239.054688 162.53125 239.054688 C 157.273438 239.054688 153 234.777344 153 229.519531 C 153 224.265625 157.273438 219.988281 162.53125 219.988281 Z M 162.53125 243.5625 C 170.273438 243.5625 176.574219 237.269531 176.574219 229.519531 C 176.574219 221.777344 170.273438 215.476562 162.53125 215.476562 C 154.785156 215.476562 148.488281 221.777344 148.488281 229.519531 C 148.488281 237.269531 154.785156 243.5625 162.53125 243.5625 "/>
<path style=" stroke:none;fill-rule:nonzero;fill:rgb(90.19928%,49.409485%,13.328552%);fill-opacity:1;" d="M 183.070312 338.011719 C 188.328125 338.011719 192.605469 342.285156 192.605469 347.542969 C 192.605469 352.800781 188.328125 357.074219 183.070312 357.074219 C 177.8125 357.074219 173.539062 352.800781 173.539062 347.542969 C 173.539062 342.285156 177.8125 338.011719 183.070312 338.011719 Z M 183.070312 361.585938 C 190.8125 361.585938 197.113281 355.285156 197.113281 347.542969 C 197.113281 339.796875 190.8125 333.5 183.070312 333.5 C 175.324219 333.5 169.027344 339.796875 169.027344 347.542969 C 169.027344 355.285156 175.324219 361.585938 183.070312 361.585938 "/>
<path style=" stroke:none;fill-rule:nonzero;fill:rgb(90.19928%,49.409485%,13.328552%);fill-opacity:1;" d="M 308.019531 623.722656 C 313.273438 623.722656 317.550781 627.996094 317.550781 633.253906 C 317.550781 638.511719 313.273438 642.785156 308.019531 642.785156 C 302.761719 642.785156 298.484375 638.511719 298.484375 633.253906 C 298.484375 627.996094 302.761719 623.722656 308.019531 623.722656 Z M 308.019531 647.296875 C 315.757812 647.296875 322.0625 640.996094 322.0625 633.253906 C 322.0625 625.507812 315.757812 619.210938 308.019531 619.210938 C 300.269531 619.210938 293.976562 625.507812 293.976562 633.253906 C 293.976562 640.996094 300.269531 647.296875 308.019531 647.296875 "/>
<path style=" stroke:none;fill-rule:nonzero;fill:rgb(90.19928%,49.409485%,13.328552%);fill-opacity:1;" d="M 211.574219 152.734375 C 216.832031 152.734375 221.109375 157.011719 221.109375 162.269531 C 221.109375 167.527344 216.832031 171.800781 211.574219 171.800781 C 206.320312 171.800781 202.042969 167.527344 202.042969 162.269531 C 202.042969 157.011719 206.320312 152.734375 211.574219 152.734375 Z M 211.574219 176.3125 C 219.324219 176.3125 225.617188 170.011719 225.617188 162.269531 C 225.617188 154.523438 219.324219 148.226562 211.574219 148.226562 C 203.832031 148.226562 197.53125 154.523438 197.53125 162.269531 C 197.53125 170.011719 203.832031 176.3125 211.574219 176.3125 "/>
<path style=" stroke:none;fill-rule:nonzero;fill:rgb(90.19928%,49.409485%,13.328552%);fill-opacity:1;" d="M 396.328125 68.820312 C 401.582031 68.820312 405.859375 73.097656 405.859375 78.355469 C 405.859375 83.609375 401.582031 87.886719 396.328125 87.886719 C 391.070312 87.886719 386.792969 83.609375 386.792969 78.355469 C 386.792969 73.097656 391.070312 68.820312 396.328125 68.820312 Z M 396.328125 92.398438 C 404.074219 92.398438 410.371094 86.09375 410.371094 78.355469 C 410.371094 70.605469 404.074219 64.308594 396.328125 64.308594 C 388.585938 64.308594 382.28125 70.605469 382.28125 78.355469 C 382.28125 86.09375 388.585938 92.398438 396.328125 92.398438 "/>
<path style=" stroke:none;fill-rule:nonzero;fill:rgb(90.19928%,49.409485%,13.328552%);fill-opacity:1;" d="M 115.378906 27.121094 C 120.636719 27.121094 124.910156 31.394531 124.910156 36.652344 C 124.910156 41.910156 120.636719 46.183594 115.378906 46.183594 C 110.121094 46.183594 105.839844 41.910156 105.839844 36.652344 C 105.839844 31.394531 110.121094 27.121094 115.378906 27.121094 Z M 115.378906 50.695312 C 123.121094 50.695312 129.421875 44.398438 129.421875 36.652344 C 129.421875 28.910156 123.121094 22.609375 115.378906 22.609375 C 107.632812 22.609375 101.328125 28.910156 101.328125 36.652344 C 101.328125 44.398438 107.632812 50.695312 115.378906 50.695312 "/>
<path style=" stroke:none;fill-rule:nonzero;fill:rgb(90.19928%,49.409485%,13.328552%);fill-opacity:1;" d="M 112.777344 594.117188 C 112.777344 600.625 118.058594 605.90625 124.566406 605.90625 C 131.078125 605.90625 136.351562 600.625 136.351562 594.117188 C 136.351562 587.605469 131.078125 582.324219 124.566406 582.324219 C 118.058594 582.324219 112.777344 587.605469 112.777344 594.117188 "/>
<path style=" stroke:none;fill-rule:nonzero;fill:rgb(90.19928%,49.409485%,13.328552%);fill-opacity:1;" d="M 169.914062 689.597656 C 169.914062 696.105469 175.195312 701.386719 181.703125 701.386719 C 188.214844 701.386719 193.492188 696.105469 193.492188 689.597656 C 193.492188 683.085938 188.214844 677.804688 181.703125 677.804688 C 175.195312 677.804688 169.914062 683.085938 169.914062 689.597656 "/>
<path style=" stroke:none;fill-rule:nonzero;fill:rgb(90.19928%,49.409485%,13.328552%);fill-opacity:1;" d="M 61.25 723.464844 C 61.25 729.980469 66.523438 735.253906 73.035156 735.253906 C 79.542969 735.253906 84.824219 729.980469 84.824219 723.464844 C 84.824219 716.957031 79.542969 711.675781 73.035156 711.675781 C 66.523438 711.675781 61.25 716.957031 61.25 723.464844 "/>
<path style=" stroke:none;fill-rule:nonzero;fill:rgb(90.19928%,49.409485%,13.328552%);fill-opacity:1;" d="M 358.699219 740.558594 C 358.699219 747.070312 363.980469 752.351562 370.488281 752.351562 C 377.003906 752.351562 382.277344 747.070312 382.277344 740.558594 C 382.277344 734.050781 377.003906 728.769531 370.488281 728.769531 C 363.980469 728.769531 358.699219 734.050781 358.699219 740.558594 "/>
<path style=" stroke:none;fill-rule:nonzero;fill:rgb(90.19928%,49.409485%,13.328552%);fill-opacity:1;" d="M 129.144531 798.199219 C 129.144531 804.707031 134.425781 809.988281 140.941406 809.988281 C 147.449219 809.988281 152.730469 804.707031 152.730469 798.199219 C 152.730469 791.6875 147.449219 786.410156 140.941406 786.410156 C 134.425781 786.410156 129.144531 791.6875 129.144531 798.199219 "/>
</g>
</svg>
