<?xml version="1.0" encoding="UTF-8"?>
<svg xmlns="http://www.w3.org/2000/svg" xmlns:xlink="http://www.w3.org/1999/xlink" width="810pt" height="809.999993pt" viewBox="0 0 810 809.999993" version="1.2">
<defs>
<clipPath id="clip1">
  <path d="M 351 759 L 375 759 L 375 772.601562 L 351 772.601562 Z M 351 759 "/>
</clipPath>
<clipPath id="clip2">
  <path d="M 365 37.601562 L 441 37.601562 L 441 60 L 365 60 Z M 365 37.601562 "/>
</clipPath>
<clipPath id="clip3">
  <path d="M 55.054688 77 L 465 77 L 465 762 L 55.054688 762 Z M 55.054688 77 "/>
</clipPath>
</defs>
<g id="surface1">
<g clip-path="url(#clip1)" clip-rule="nonzero">
<path style=" stroke:none;fill-rule:nonzero;fill:rgb(6.269836%,34.899902%,50.588989%);fill-opacity:1;" d="M 361.160156 772.621094 C 357.925781 772.621094 354.828125 772.042969 355.097656 770.53125 C 355.585938 767.753906 349.992188 766.058594 352.378906 764.480469 C 354.765625 762.894531 352.847656 761.402344 353.871094 759.722656 C 354.019531 759.464844 354.339844 759.355469 354.773438 759.355469 C 357.234375 759.355469 363.457031 762.941406 365.085938 765.183594 C 367.003906 767.820312 373.980469 768.769531 374.144531 771.671875 C 374.144531 771.671875 372.144531 771.035156 370.203125 771.035156 C 369.269531 771.035156 368.359375 771.175781 367.675781 771.609375 C 366.699219 772.207031 363.890625 772.621094 361.160156 772.621094 "/>
</g>
<path style=" stroke:none;fill-rule:nonzero;fill:rgb(6.269836%,34.899902%,50.588989%);fill-opacity:1;" d="M 388.335938 480.542969 C 386.816406 480.542969 385.453125 480.082031 385.101562 478.855469 C 384.503906 476.707031 384.910156 475.886719 384.566406 475.886719 C 384.457031 475.886719 384.246094 475.980469 383.878906 476.164062 C 383.785156 476.210938 383.710938 476.230469 383.65625 476.230469 C 382.9375 476.230469 386.355469 471.949219 386.355469 471.949219 C 386.355469 471.949219 387.710938 471.738281 389.242188 471.738281 C 390.925781 471.738281 392.816406 471.988281 393.351562 473.039062 C 394.375 475.039062 394.363281 477.261719 393.324219 478.828125 C 392.734375 479.722656 390.390625 480.542969 388.335938 480.542969 "/>
<path style=" stroke:none;fill-rule:nonzero;fill:rgb(6.269836%,34.899902%,50.588989%);fill-opacity:1;" d="M 400.34375 192.917969 C 392.226562 192.917969 381.425781 190.132812 381.425781 190.132812 C 381.140625 190.132812 381 190.132812 380.714844 190.132812 C 380.714844 190.132812 392.605469 172.761719 399.441406 172.632812 C 397.082031 178.636719 401.636719 182.675781 405.3125 182.675781 C 405.746094 182.675781 406.167969 182.621094 406.566406 182.507812 C 406.566406 182.507812 406.878906 182.289062 407.292969 182.289062 C 408.121094 182.289062 409.359375 183.210938 409.144531 188.824219 C 409.027344 191.941406 405.15625 192.917969 400.34375 192.917969 "/>
<path style=" stroke:none;fill-rule:nonzero;fill:rgb(6.269836%,34.899902%,50.588989%);fill-opacity:1;" d="M 340.472656 113.210938 C 340.390625 113.210938 340.304688 113.191406 340.214844 113.15625 C 339.273438 112.789062 334.796875 109.421875 332.316406 109.421875 C 331.460938 109.421875 330.832031 109.835938 330.703125 110.933594 C 330.703125 110.933594 330.59375 112.769531 329.164062 113.007812 C 328.84375 113.0625 328.308594 113.121094 327.71875 113.121094 C 325.671875 113.121094 322.917969 112.445312 325.636719 108.667969 C 328.667969 104.453125 330.160156 102.96875 332.195312 102.96875 C 332.519531 102.96875 332.859375 103.003906 333.21875 103.070312 C 335.847656 103.585938 342.003906 105.449219 341.882812 107.992188 C 341.773438 110.34375 341.523438 113.210938 340.472656 113.210938 "/>
<path style=" stroke:none;fill-rule:nonzero;fill:rgb(6.269836%,34.899902%,50.588989%);fill-opacity:1;" d="M 307.730469 93.792969 C 307.527344 93.792969 307.433594 93.710938 307.472656 93.507812 C 307.765625 91.921875 302.929688 92.21875 304.9375 89.886719 C 306.929688 87.542969 308.789062 86.90625 308.789062 86.90625 C 308.964844 86.871094 309.230469 86.859375 309.554688 86.859375 C 310.171875 86.859375 310.992188 86.917969 311.71875 86.972656 C 312.449219 87.027344 313.09375 87.082031 313.378906 87.082031 C 313.441406 87.082031 313.5 87.074219 313.507812 87.0625 L 315.601562 87.292969 C 315.507812 88.1875 315.472656 88.640625 315.378906 89.542969 C 315.378906 89.542969 309.101562 93.792969 307.730469 93.792969 "/>
<path style=" stroke:none;fill-rule:nonzero;fill:rgb(6.269836%,34.899902%,50.588989%);fill-opacity:1;" d="M 268.289062 99.105469 C 261.328125 99.105469 256.933594 95.519531 256.933594 95.519531 C 262.019531 94.320312 264.59375 93.75 269.742188 92.667969 C 269.871094 91.933594 269.945312 91.5625 270.074219 90.824219 C 265.828125 91.71875 263.714844 92.191406 259.515625 93.175781 C 259.699219 92.234375 259.800781 91.765625 259.992188 90.835938 C 259.992188 90.835938 264.011719 90.519531 264.65625 89.507812 C 265.300781 88.484375 265.199219 87.726562 261.144531 87.351562 C 261.054688 87.339844 260.960938 87.339844 260.871094 87.339844 C 256.714844 87.339844 248.621094 95.242188 248.621094 95.242188 C 247.636719 93.359375 247.148438 92.429688 246.207031 90.59375 C 259.460938 78.359375 267.613281 75.242188 272.5 75.242188 C 277.566406 75.242188 279.097656 78.609375 279.097656 78.609375 C 282.175781 78.976562 283.734375 79.171875 286.875 79.613281 C 288.679688 78.25 289.574219 77.578125 291.371094 76.230469 C 291.871094 77.980469 292.128906 78.867188 292.652344 80.636719 C 294.535156 78.460938 295.464844 77.363281 297.324219 75.207031 C 299.378906 74.867188 300.421875 74.691406 302.484375 74.378906 C 302.484375 74.378906 296.835938 83.089844 298.375 83.089844 C 298.394531 83.089844 298.421875 83.089844 298.449219 83.082031 C 298.523438 83.070312 298.589844 83.0625 298.660156 83.0625 C 300.429688 83.0625 302.753906 86.140625 302.753906 86.140625 C 302.753906 86.140625 298.734375 89.074219 294.054688 92.328125 C 292.359375 93.507812 290.984375 93.867188 289.714844 93.867188 C 288.71875 93.867188 287.777344 93.648438 286.78125 93.417969 C 285.789062 93.195312 284.738281 92.972656 283.519531 92.972656 C 283.226562 92.972656 282.921875 92.992188 282.609375 93.019531 C 278.019531 93.445312 280.109375 97.554688 271.382812 98.867188 C 270.304688 99.03125 269.273438 99.105469 268.289062 99.105469 "/>
<path style=" stroke:none;fill-rule:nonzero;fill:rgb(6.269836%,34.899902%,50.588989%);fill-opacity:1;" d="M 135.53125 182.472656 C 135.417969 182.472656 135.355469 182.398438 135.34375 182.214844 C 135.261719 181.0625 136.78125 179.246094 137.695312 178.066406 C 138.285156 177.300781 139.464844 176.414062 139.90625 176.414062 C 140.148438 176.414062 140.183594 176.664062 139.816406 177.316406 C 139.457031 177.953125 139.429688 178.128906 139.546875 178.128906 C 139.621094 178.128906 139.742188 178.074219 139.886719 178.019531 C 140.027344 177.964844 140.191406 177.90625 140.339844 177.90625 C 140.550781 177.90625 140.738281 178.007812 140.828125 178.359375 C 141.179688 179.667969 141.585938 180.230469 140.496094 180.792969 C 140.265625 180.914062 140.019531 180.96875 139.757812 180.96875 C 138.800781 180.96875 137.789062 180.285156 137.789062 180.285156 C 137.789062 180.285156 136.109375 182.472656 135.53125 182.472656 "/>
<path style=" stroke:none;fill-rule:nonzero;fill:rgb(6.269836%,34.899902%,50.588989%);fill-opacity:1;" d="M 133.777344 189.074219 C 133.777344 189.074219 133.722656 185.101562 137.972656 183.484375 C 138.414062 183.328125 138.738281 183.253906 138.976562 183.253906 C 141.050781 183.253906 136.148438 188.960938 136.148438 188.960938 C 135.1875 189.007812 134.71875 189.027344 133.777344 189.074219 "/>
<path style=" stroke:none;fill-rule:nonzero;fill:rgb(6.269836%,34.899902%,50.588989%);fill-opacity:1;" d="M 130.238281 215.738281 C 130.238281 215.738281 125.78125 215.019531 125.714844 211.421875 C 125.714844 211.421875 127.449219 205.632812 131.816406 205.632812 C 132.082031 205.632812 132.359375 205.652344 132.65625 205.695312 C 137.628906 206.507812 134.46875 213.78125 134.949219 214.503906 C 135.417969 215.230469 130.238281 215.738281 130.238281 215.738281 "/>
<path style=" stroke:none;fill-rule:nonzero;fill:rgb(6.269836%,34.899902%,50.588989%);fill-opacity:1;" d="M 317.140625 79.871094 C 315.929688 79.871094 314.511719 79.605469 314.511719 79.605469 C 314.511719 79.605469 315.222656 77.558594 310.429688 75.90625 C 310.320312 75.078125 310.253906 74.671875 310.144531 73.851562 C 310.300781 73.757812 311.425781 73.742188 312.53125 73.742188 C 313.664062 73.742188 314.78125 73.769531 314.78125 73.769531 C 314.78125 73.769531 315.351562 75.011719 316.429688 75.011719 C 316.558594 75.011719 316.6875 74.996094 316.824219 74.957031 C 318.160156 74.597656 318.890625 70.890625 318.890625 70.890625 C 319.957031 70.753906 320.484375 70.699219 321.5625 70.570312 C 324.539062 69.472656 326.03125 68.929688 329.007812 67.867188 C 329.007812 67.867188 328.132812 75.558594 322.097656 76.941406 C 319.691406 77.199219 319.203125 78.589844 318.722656 79.449219 C 318.539062 79.769531 317.886719 79.871094 317.140625 79.871094 "/>
<path style=" stroke:none;fill-rule:nonzero;fill:rgb(6.269836%,34.899902%,50.588989%);fill-opacity:1;" d="M 331.273438 74.277344 C 330.945312 74.277344 330.574219 74.25 330.167969 74.191406 C 330.167969 74.191406 328.960938 69.878906 336.050781 67.425781 C 339.15625 66.347656 340.914062 66.042969 341.910156 66.042969 C 343.191406 66.042969 343.21875 66.539062 343.21875 66.539062 C 342.5625 68.457031 342.222656 69.417969 341.558594 71.34375 C 341.558594 71.34375 339.007812 70.515625 337.171875 70.515625 C 336.519531 70.515625 335.949219 70.625 335.625 70.917969 C 334.519531 71.914062 334.621094 74.277344 331.273438 74.277344 "/>
<path style=" stroke:none;fill-rule:nonzero;fill:rgb(6.269836%,34.899902%,50.588989%);fill-opacity:1;" d="M 385.691406 118.179688 C 383.488281 118.179688 379.332031 117.554688 379.175781 117.488281 C 378.984375 117.425781 368.929688 113.054688 368.414062 105.660156 C 368.414062 105.78125 368.15625 105.828125 367.75 105.828125 C 366.3125 105.828125 363.078125 105.238281 363.078125 105.238281 C 363.078125 105.238281 361.484375 107.910156 358.195312 107.910156 C 357.722656 107.910156 357.214844 107.84375 356.671875 107.726562 C 352.453125 106.75 354.167969 102.25 363.484375 102.25 C 363.714844 102.25 363.933594 102.257812 364.164062 102.265625 C 369.28125 102.378906 369.289062 102.40625 369.289062 102.40625 C 370.808594 99.4375 371.648438 97.804688 377.003906 95.785156 C 377.09375 95.75 377.195312 95.738281 377.296875 95.738281 C 378.828125 95.738281 382.4375 98.691406 382.4375 98.691406 C 384.136719 97.730469 384.972656 97.261719 386.652344 96.3125 C 386.652344 96.3125 374.054688 84.886719 372.183594 80.785156 C 371.648438 79.605469 370.957031 79.164062 370.21875 79.164062 C 368.386719 79.164062 366.210938 81.855469 365.125 82.65625 C 364.46875 83.136719 363.574219 83.285156 362.773438 83.285156 C 361.703125 83.285156 360.78125 83.035156 360.78125 83.035156 C 360.78125 83.035156 355.84375 81.273438 353.050781 81.273438 C 352.351562 81.273438 351.789062 81.382812 351.464844 81.660156 C 350.804688 82.222656 349.550781 82.433594 348.285156 82.433594 C 346.519531 82.433594 344.75 82.03125 344.664062 81.671875 C 344.5 81.070312 342.65625 76.644531 342.65625 76.644531 C 342.65625 76.644531 349.292969 66.957031 357.503906 66.957031 C 358.101562 66.957031 358.71875 67.011719 359.335938 67.121094 C 359.316406 67.8125 359.308594 68.164062 359.289062 68.84375 C 360.109375 69.132812 360.523438 69.269531 361.355469 69.554688 C 361.355469 69.554688 362.101562 69.832031 362.949219 69.832031 C 363.953125 69.832031 365.113281 69.445312 365.371094 67.765625 C 367.234375 67.703125 368.164062 67.675781 370.035156 67.628906 C 373.472656 70.257812 375.234375 71.59375 378.761719 74.304688 C 381.160156 73.371094 382.367188 72.910156 384.742188 72.015625 C 384.742188 72.015625 387.875 78.285156 398.945312 81.992188 C 399.203125 83.402344 399.332031 84.105469 399.589844 85.515625 C 399.589844 85.515625 403.496094 93.960938 407.503906 95.851562 C 411.503906 97.742188 403.386719 103.449219 403.386719 103.449219 C 399.699219 101.445312 397.855469 100.46875 394.199219 98.535156 C 394.199219 98.535156 393.96875 98.488281 393.644531 98.488281 C 392.605469 98.488281 390.585938 98.96875 392.058594 103.023438 C 394.003906 108.34375 393.425781 110.824219 391.902344 112.992188 C 391.699219 113.277344 391.46875 113.394531 391.210938 113.394531 C 390.457031 113.394531 389.480469 112.289062 388.382812 111.183594 C 387.296875 110.078125 386.089844 108.96875 384.871094 108.96875 C 384.660156 108.96875 384.457031 109 384.246094 109.070312 C 381.1875 110.085938 383.304688 112.953125 386.613281 114.152344 C 389.914062 115.339844 387.785156 117.453125 386.9375 118.015625 C 386.753906 118.136719 386.300781 118.179688 385.691406 118.179688 "/>
<path style=" stroke:none;fill-rule:nonzero;fill:rgb(6.269836%,34.899902%,50.588989%);fill-opacity:1;" d="M 377.722656 65.589844 C 376.671875 65.582031 375.878906 65.582031 375.085938 65.582031 C 374.292969 65.582031 373.5 65.582031 372.449219 65.589844 C 372.476562 65.046875 372.488281 64.777344 372.515625 64.246094 C 371.324219 64.246094 370.285156 64.246094 369.308594 64.246094 C 366.082031 64.246094 363.675781 64.273438 359.789062 64.363281 C 359.742188 63.929688 359.722656 63.71875 359.6875 63.292969 C 359.6875 63.292969 349.585938 63.847656 349.300781 63.875 C 349.300781 63.765625 349.53125 57.660156 355.546875 57.660156 C 357.769531 57.660156 360.765625 58.492188 364.828125 60.75 C 371.898438 60.417969 375.480469 60.324219 382.550781 60.269531 C 382.550781 60.269531 383.996094 62.546875 377.722656 65.589844 M 349.300781 63.875 C 349.292969 63.875 349.292969 63.875 349.300781 63.875 "/>
<path style=" stroke:none;fill-rule:nonzero;fill:rgb(6.269836%,34.899902%,50.588989%);fill-opacity:1;" d="M 371.167969 48.9375 C 371.167969 48.9375 361.097656 47.84375 360.96875 47.464844 C 359.402344 42.945312 368.835938 39.746094 372.652344 39.746094 C 372.964844 39.746094 373.234375 39.765625 373.464844 39.8125 C 376.496094 40.375 379.34375 45.066406 375.925781 45.195312 C 372.488281 45.324219 371.167969 48.9375 371.167969 48.9375 "/>
<g clip-path="url(#clip2)" clip-rule="nonzero">
<path style=" stroke:none;fill-rule:nonzero;fill:rgb(6.269836%,34.899902%,50.588989%);fill-opacity:1;" d="M 386.882812 59.664062 C 385.820312 59.664062 384.707031 58.859375 384.707031 58.859375 C 384.707031 58.859375 380.660156 55.394531 379.894531 55.394531 C 379.878906 55.394531 379.859375 55.402344 379.851562 55.402344 C 379.25 55.597656 376.042969 55.84375 376.042969 55.84375 C 376.042969 55.84375 372.570312 56.8125 370.800781 56.8125 C 370.433594 56.8125 370.136719 56.765625 369.953125 56.664062 C 368.949219 56.085938 365.464844 52.515625 365.464844 52.515625 C 369.152344 52.433594 371.683594 52.398438 374.53125 52.398438 C 376.171875 52.398438 377.925781 52.40625 380.050781 52.433594 C 380.050781 51.640625 380.050781 51.253906 380.042969 50.460938 C 378.800781 50.453125 378.183594 50.441406 376.9375 50.433594 C 377.167969 49.492188 377.277344 49.023438 377.492188 48.082031 C 379.242188 48.089844 380.117188 48.101562 381.851562 48.117188 C 381.859375 48.855469 381.867188 49.226562 381.878906 49.960938 C 383.09375 49.980469 383.691406 49.992188 384.898438 50.019531 C 384.898438 50.019531 379.988281 44.394531 383.101562 44.394531 C 383.121094 44.394531 383.140625 44.394531 383.160156 44.394531 C 383.425781 44.394531 400.199219 45.078125 402.363281 45.222656 L 402.585938 45.234375 C 403.617188 44.238281 404.132812 43.730469 405.144531 42.742188 C 397.324219 41.738281 393.386719 41.332031 385.480469 40.714844 C 385.460938 39.65625 385.453125 39.128906 385.433594 38.070312 C 393.027344 37.746094 399.3125 37.570312 405.117188 37.570312 C 416.492188 37.570312 426.027344 38.234375 440 39.738281 L 440.128906 39.757812 L 440.128906 39.765625 C 440.738281 47.09375 422.617188 44.800781 410.519531 47.628906 C 410.519531 47.628906 389.386719 55.929688 388.484375 58.425781 C 388.144531 59.367188 387.527344 59.664062 386.882812 59.664062 "/>
</g>
<path style=" stroke:none;fill-rule:nonzero;fill:rgb(6.269836%,34.899902%,50.588989%);fill-opacity:1;" d="M 457.160156 130.691406 C 454.800781 130.691406 452.3125 129.761719 450.597656 126.792969 C 446.53125 119.765625 438.597656 124.101562 441.785156 109.292969 C 444.964844 94.476562 437.660156 98.117188 442.054688 95.941406 C 446.441406 93.765625 447.8125 79.808594 447.8125 79.808594 L 444.664062 77.910156 C 444.664062 77.910156 442.394531 62.558594 435.199219 62.28125 C 411.488281 61.367188 413.644531 50.882812 413.644531 50.882812 C 413.496094 50.082031 415.300781 50 418.269531 50 C 418.609375 50 418.980469 50 419.347656 50 C 419.726562 50.007812 420.121094 50.007812 420.519531 50.007812 C 426.867188 50.007812 436.523438 49.75 444.746094 45.25 C 445.65625 44.992188 446.632812 44.882812 447.667969 44.882812 C 455.425781 44.882812 466.015625 51.363281 470.605469 52.109375 C 484.648438 53.796875 491.449219 55.015625 504.5625 58.1875 C 514.550781 62.316406 519.484375 64.539062 529.1875 69.296875 C 529.1875 69.296875 533.601562 72.054688 536.707031 75.171875 C 539.8125 78.296875 546.871094 79.816406 546.871094 79.816406 C 546.871094 79.816406 547.507812 81.761719 545.386719 81.761719 C 544.585938 81.761719 543.386719 81.476562 541.597656 80.703125 C 537.140625 78.765625 536.347656 78.460938 536.292969 78.460938 C 536.265625 78.460938 536.382812 78.527344 536.382812 78.527344 C 535.71875 80.066406 535.371094 80.847656 534.632812 82.464844 C 534.632812 82.464844 536.496094 83.734375 536.335938 84.972656 C 536.164062 86.195312 534.84375 91.441406 533.804688 92.539062 C 533.269531 93.121094 529.867188 93.472656 526.625 93.472656 C 524.578125 93.472656 522.597656 93.332031 521.410156 93.019531 C 524.089844 95.132812 530.984375 101.484375 532.007812 103.382812 C 532.46875 104.242188 532.023438 104.527344 531.25 104.527344 C 529.8125 104.527344 527.222656 103.550781 527.222656 103.550781 C 527.222656 103.550781 521.242188 96.476562 519.933594 96.476562 C 519.886719 96.476562 519.84375 96.496094 519.804688 96.515625 C 518.855469 97.152344 520.386719 98.652344 520.394531 99.816406 C 520.394531 100.421875 519.75 100.507812 519.078125 100.507812 C 518.957031 100.507812 518.835938 100.496094 518.71875 100.496094 C 518.605469 100.496094 518.488281 100.496094 518.375 100.496094 C 518.027344 100.496094 517.742188 100.515625 517.621094 100.652344 C 517.242188 101.070312 519.953125 103.144531 521.078125 103.144531 C 521.140625 103.144531 521.214844 103.132812 521.269531 103.117188 C 521.453125 103.050781 521.742188 103.03125 522.082031 103.03125 C 523.472656 103.03125 525.777344 103.4375 525.777344 103.4375 C 525.777344 103.4375 528.890625 106.933594 528.660156 107.558594 C 528.585938 107.734375 527.445312 107.800781 525.796875 107.800781 C 521.546875 107.800781 513.925781 107.375 512.359375 107.320312 C 510.175781 107.238281 506.554688 106.203125 506.027344 104.351562 C 505.953125 104.082031 505.648438 103.964844 505.179688 103.964844 C 502.351562 103.964844 493.550781 108.1875 492.519531 110.058594 C 491.699219 111.550781 485.617188 112.03125 481.203125 112.03125 C 479.128906 112.03125 477.433594 111.929688 476.796875 111.773438 C 476.769531 111.765625 476.742188 111.765625 476.714844 111.765625 C 474.53125 111.765625 464.539062 127.402344 463.792969 128.386719 C 463.359375 128.96875 460.382812 130.691406 457.160156 130.691406 "/>
<path style=" stroke:none;fill-rule:nonzero;fill:rgb(6.269836%,34.899902%,50.588989%);fill-opacity:1;" d="M 543.773438 134.933594 C 542.863281 134.933594 542.207031 134.859375 541.976562 134.703125 C 540.761719 133.882812 531.25 130.1875 529.8125 127.84375 C 529.75 127.558594 529.710938 127.417969 529.648438 127.144531 C 529.777344 126.582031 531.691406 122.597656 535.203125 122.597656 C 535.546875 122.597656 535.886719 122.632812 536.253906 122.71875 C 540.042969 123.539062 543.902344 124.828125 545.65625 124.828125 C 545.839844 124.828125 545.996094 124.808594 546.132812 124.78125 C 546.1875 124.765625 546.253906 124.753906 546.328125 124.753906 C 548.03125 124.753906 553.550781 128.183594 555.074219 131.078125 C 556.363281 133.523438 547.710938 134.933594 543.773438 134.933594 "/>
<path style=" stroke:none;fill-rule:nonzero;fill:rgb(6.269836%,34.899902%,50.588989%);fill-opacity:1;" d="M 255.597656 327.070312 C 254.34375 324.691406 253.738281 323.507812 252.5 321.148438 C 252.988281 319.757812 253.230469 319.066406 253.71875 317.671875 C 254.953125 317.617188 255.578125 317.589844 256.824219 317.542969 C 256.871094 316.476562 256.886719 315.929688 256.933594 314.851562 C 255.882812 314.898438 255.347656 314.925781 254.308594 314.960938 C 254.4375 312.601562 254.519531 311.421875 254.65625 309.0625 C 258.5 308.894531 260.417969 308.8125 264.289062 308.65625 C 264.601562 311.429688 264.765625 312.824219 265.089844 315.617188 C 263.171875 315.855469 262.207031 315.984375 260.289062 316.226562 C 260.554688 317.332031 260.695312 317.886719 260.960938 319 C 260.960938 319 260.65625 318.925781 260.214844 318.925781 C 259.199219 318.925781 257.488281 319.285156 257.0625 321.621094 C 256.445312 324.984375 258.472656 326.96875 258.472656 326.96875 C 257.320312 327.011719 256.75 327.03125 255.597656 327.070312 "/>
<path style=" stroke:none;fill-rule:nonzero;fill:rgb(6.269836%,34.899902%,50.588989%);fill-opacity:1;" d="M 268.757812 327.832031 C 267.800781 327.832031 267.0625 326.699219 267.109375 325.269531 C 267.152344 323.839844 267.984375 322.644531 268.960938 322.617188 C 268.96875 322.617188 268.988281 322.617188 268.996094 322.617188 C 269.957031 322.617188 270.691406 323.75 270.648438 325.167969 C 270.609375 326.609375 269.769531 327.796875 268.792969 327.832031 C 268.785156 327.832031 268.765625 327.832031 268.757812 327.832031 "/>
<path style=" stroke:none;fill-rule:nonzero;fill:rgb(6.269836%,34.899902%,50.588989%);fill-opacity:1;" d="M 269.355469 332.820312 C 267.972656 332.820312 266.894531 332.203125 266.914062 331.421875 C 266.941406 330.609375 268.132812 329.917969 269.570312 329.871094 C 269.625 329.871094 269.667969 329.871094 269.714844 329.871094 C 271.089844 329.871094 272.15625 330.488281 272.140625 331.273438 C 272.121094 332.085938 270.933594 332.777344 269.484375 332.8125 C 269.441406 332.820312 269.402344 332.820312 269.355469 332.820312 "/>
<path style=" stroke:none;fill-rule:nonzero;fill:rgb(6.269836%,34.899902%,50.588989%);fill-opacity:1;" d="M 271.382812 342.171875 C 269.292969 342.171875 267.640625 340.953125 267.6875 339.414062 C 267.714844 337.835938 269.503906 336.527344 271.652344 336.472656 C 271.707031 336.464844 271.753906 336.464844 271.796875 336.464844 C 273.890625 336.464844 275.53125 337.679688 275.492188 339.21875 C 275.457031 340.796875 273.679688 342.117188 271.511719 342.171875 C 271.46875 342.171875 271.429688 342.171875 271.382812 342.171875 "/>
<path style=" stroke:none;fill-rule:nonzero;fill:rgb(6.269836%,34.899902%,50.588989%);fill-opacity:1;" d="M 262.207031 352.957031 C 261.375 352.957031 260.839844 352.929688 260.839844 352.929688 C 260.839844 352.929688 256.566406 351.214844 253.054688 351.214844 C 252.261719 351.214844 251.507812 351.296875 250.851562 351.519531 C 250.539062 351.621094 250.300781 351.667969 250.105469 351.667969 C 248.085938 351.667969 252.058594 346.476562 252.058594 346.476562 C 252.058594 346.476562 244.898438 339.71875 234.578125 338.898438 C 234.578125 338.898438 233.914062 338.703125 232.910156 338.703125 C 231.316406 338.703125 228.84375 339.210938 226.84375 341.847656 C 224.964844 341.746094 224.027344 341.691406 222.144531 341.589844 C 222.488281 340.085938 225.675781 333.402344 235.019531 333.402344 C 235.066406 333.402344 235.121094 333.402344 235.167969 333.402344 C 244.632812 333.476562 245.886719 333.523438 253 337.644531 C 260.105469 341.765625 271.246094 347.214844 271.585938 350.292969 C 271.84375 352.691406 265.144531 352.957031 262.207031 352.957031 "/>
<path style=" stroke:none;fill-rule:nonzero;fill:rgb(6.269836%,34.899902%,50.588989%);fill-opacity:1;" d="M 249.671875 365.21875 C 248.585938 364.445312 248.042969 364.066406 246.953125 363.304688 C 246.953125 363.304688 246.972656 359.007812 250.804688 359.007812 C 251.875 359.007812 253.238281 359.339844 254.980469 360.1875 C 258.988281 362.382812 258.667969 363.304688 259.035156 364.621094 C 255.285156 364.859375 253.40625 364.980469 249.671875 365.21875 "/>
<path style=" stroke:none;fill-rule:nonzero;fill:rgb(6.269836%,34.899902%,50.588989%);fill-opacity:1;" d="M 282.15625 364.566406 C 280.175781 364.566406 277.070312 362.261719 277.246094 361.652344 C 277.308594 361.421875 277.050781 361.292969 276.664062 361.292969 C 275.808594 361.292969 274.285156 361.902344 274.128906 363.273438 C 274.054688 363.964844 273.402344 364.1875 272.582031 364.1875 C 271.015625 364.1875 268.8125 363.359375 268.8125 363.359375 C 267.414062 362.75 266.710938 362.445312 265.320312 361.835938 C 265.6875 360.785156 265.882812 360.261719 266.25 359.199219 C 270.34375 359.136719 272.386719 359.097656 276.488281 359.035156 C 276.488281 359.035156 273.992188 354 275.207031 352.699219 C 275.667969 352.210938 277.84375 352.0625 280.351562 352.0625 C 284.425781 352.0625 289.382812 352.460938 289.382812 352.460938 C 289.382812 352.460938 297.859375 355.824219 297.703125 359.734375 C 297.566406 363.636719 284.820312 362.574219 283.300781 364.152344 C 283.015625 364.445312 282.617188 364.566406 282.15625 364.566406 "/>
<path style=" stroke:none;fill-rule:nonzero;fill:rgb(6.269836%,34.899902%,50.588989%);fill-opacity:1;" d="M 311.046875 365.683594 C 309.277344 365.683594 307.832031 364.546875 307.535156 363.027344 C 306.9375 363.21875 306.28125 363.320312 305.589844 363.332031 C 305.5625 363.332031 305.546875 363.332031 305.519531 363.332031 C 302.902344 363.332031 300.808594 361.882812 300.828125 360.085938 C 300.847656 358.269531 303.011719 356.765625 305.664062 356.738281 C 305.691406 356.738281 305.722656 356.738281 305.75 356.738281 C 307.960938 356.738281 309.785156 357.78125 310.28125 359.191406 C 310.558594 359.125 310.855469 359.082031 311.148438 359.070312 C 311.167969 359.070312 311.175781 359.070312 311.183594 359.070312 C 313.183594 359.070312 314.78125 360.527344 314.769531 362.34375 C 314.75 364.167969 313.101562 365.671875 311.085938 365.683594 C 311.074219 365.683594 311.066406 365.683594 311.046875 365.683594 "/>
<path style=" stroke:none;fill-rule:nonzero;fill:rgb(6.269836%,34.899902%,50.588989%);fill-opacity:1;" d="M 322.113281 364.261719 C 321.339844 364.261719 320.574219 363.773438 320.1875 362.925781 C 319.886719 362.234375 319.894531 361.457031 320.160156 360.824219 C 319.800781 360.535156 319.570312 360.09375 319.570312 359.570312 C 319.582031 358.691406 320.214844 357.984375 321.007812 357.972656 C 321.007812 357.972656 321.019531 357.972656 321.019531 357.972656 C 321.800781 357.972656 322.429688 358.675781 322.417969 359.550781 L 322.417969 359.558594 C 323.035156 359.707031 323.589844 360.148438 323.902344 360.832031 C 324.4375 362.011719 324.042969 363.441406 323.019531 364.023438 C 322.734375 364.1875 322.417969 364.261719 322.113281 364.261719 "/>
<path style=" stroke:none;fill-rule:nonzero;fill:rgb(6.269836%,34.899902%,50.588989%);fill-opacity:1;" d="M 328.160156 367.949219 C 327.386719 367.949219 326.621094 367.453125 326.234375 366.605469 C 325.691406 365.414062 326.085938 363.984375 327.109375 363.414062 C 327.394531 363.246094 327.707031 363.175781 328.023438 363.175781 C 328.796875 363.175781 329.550781 363.671875 329.9375 364.511719 C 330.484375 365.699219 330.09375 367.136719 329.0625 367.710938 C 328.777344 367.875 328.472656 367.949219 328.160156 367.949219 "/>
<path style=" stroke:none;fill-rule:nonzero;fill:rgb(6.269836%,34.899902%,50.588989%);fill-opacity:1;" d="M 337.21875 384.96875 C 336.425781 384.96875 335.660156 384.101562 335.265625 382.628906 C 335 381.605469 334.960938 380.488281 335.117188 379.492188 C 334.34375 379.492188 333.570312 379.003906 333.171875 378.148438 C 332.804688 377.335938 332.871094 376.433594 333.265625 375.742188 C 333.183594 375.75 333.101562 375.757812 333.027344 375.757812 C 332.242188 375.757812 331.476562 375.269531 331.089844 374.414062 L 330.960938 374.042969 L 330.769531 374.191406 C 330.472656 374.347656 330.167969 374.429688 329.855469 374.429688 C 329.082031 374.429688 328.308594 373.925781 327.921875 373.066406 C 327.378906 371.878906 327.773438 370.449219 328.804688 369.867188 C 329.089844 369.703125 329.394531 369.628906 329.707031 369.628906 C 330.484375 369.628906 331.246094 370.125 331.632812 370.984375 L 331.773438 371.351562 L 331.964844 371.203125 C 332.253906 371.058594 332.554688 370.984375 332.859375 370.984375 C 333.644531 370.984375 334.417969 371.460938 334.8125 372.320312 C 335.171875 373.121094 335.109375 374.035156 334.710938 374.71875 C 334.796875 374.707031 334.878906 374.707031 334.953125 374.707031 C 335.734375 374.707031 336.507812 375.195312 336.898438 376.054688 C 336.996094 376.265625 337.054688 376.488281 337.089844 376.71875 C 337.863281 376.746094 338.609375 377.585938 338.996094 379.042969 C 339.550781 381.097656 339.15625 383.578125 338.121094 384.5625 C 337.835938 384.839844 337.523438 384.96875 337.21875 384.96875 "/>
<path style=" stroke:none;fill-rule:nonzero;fill:rgb(6.269836%,34.899902%,50.588989%);fill-opacity:1;" d="M 334.09375 368.863281 C 333.3125 368.863281 332.546875 368.363281 332.160156 367.515625 C 331.605469 366.328125 332.011719 364.898438 333.035156 364.316406 C 333.320312 364.160156 333.632812 364.078125 333.9375 364.078125 C 334.722656 364.078125 335.488281 364.574219 335.875 365.433594 C 336.417969 366.621094 336.019531 368.050781 335 368.621094 C 334.710938 368.789062 334.398438 368.863281 334.09375 368.863281 "/>
<path style=" stroke:none;fill-rule:nonzero;fill:rgb(6.269836%,34.899902%,50.588989%);fill-opacity:1;" d="M 324.59375 372.050781 C 324.097656 372.050781 323.460938 371.777344 322.777344 371.214844 C 321.359375 370.042969 320.28125 368.050781 320.382812 366.777344 C 320.4375 366.113281 320.796875 365.78125 321.339844 365.78125 C 321.839844 365.78125 322.464844 366.058594 323.148438 366.613281 C 324.574219 367.792969 325.652344 369.773438 325.550781 371.046875 C 325.496094 371.710938 325.128906 372.050781 324.59375 372.050781 "/>
<path style=" stroke:none;fill-rule:nonzero;fill:rgb(6.269836%,34.899902%,50.588989%);fill-opacity:1;" d="M 330.730469 401.554688 C 329.46875 401.554688 328.851562 401.554688 327.589844 401.554688 C 327.597656 399.207031 327.597656 398.035156 327.597656 395.683594 C 328.648438 395.683594 329.183594 395.683594 330.234375 395.675781 C 330.242188 393.535156 330.242188 392.464844 330.242188 390.335938 C 331.304688 390.328125 331.835938 390.328125 332.898438 390.328125 C 332.898438 388.1875 332.898438 387.117188 332.90625 384.988281 C 334.160156 384.980469 334.796875 384.980469 336.050781 384.980469 C 336.039062 387.3125 336.039062 388.484375 336.039062 390.832031 C 334.980469 390.832031 334.445312 390.832031 333.386719 390.832031 C 333.386719 392.972656 333.386719 394.042969 333.375 396.179688 C 332.324219 396.191406 331.792969 396.191406 330.730469 396.191406 C 330.730469 398.328125 330.730469 399.410156 330.730469 401.554688 "/>
<path style=" stroke:none;fill-rule:nonzero;fill:rgb(6.269836%,34.899902%,50.588989%);fill-opacity:1;" d="M 343.246094 395.691406 C 342.941406 395.691406 342.5625 390.824219 342.5625 390.824219 C 344.332031 391.460938 345.21875 391.773438 346.996094 392.410156 C 346.746094 393.710938 346.628906 394.363281 346.378906 395.664062 C 346.378906 395.664062 345.144531 395.488281 344.230469 395.488281 C 343.761719 395.488281 343.382812 395.535156 343.28125 395.664062 C 343.265625 395.683594 343.253906 395.691406 343.246094 395.691406 "/>
<g clip-path="url(#clip3)" clip-rule="nonzero">
<path style=" stroke:none;fill-rule:nonzero;fill:rgb(6.269836%,34.899902%,50.588989%);fill-opacity:1;" d="M 348.839844 761.503906 C 347.53125 759.851562 346.5625 759.429688 345.707031 759.429688 C 345.253906 759.429688 344.839844 759.550781 344.417969 759.667969 C 344 759.789062 343.585938 759.910156 343.144531 759.910156 C 342.960938 759.910156 342.777344 759.890625 342.582031 759.84375 C 340.554688 759.328125 342.113281 755.140625 340.113281 755.140625 C 339.773438 755.140625 339.375 755.167969 338.953125 755.167969 C 336.839844 755.167969 333.9375 754.542969 332.84375 747.175781 C 331.503906 738.324219 320.253906 729.324219 320.253906 729.324219 C 320.199219 728.109375 320.179688 727.5 320.132812 726.285156 C 321.542969 725.65625 322.253906 725.332031 323.683594 724.6875 C 323.957031 722.714844 324.105469 721.71875 324.402344 719.71875 C 322.863281 717.699219 322.097656 716.675781 320.546875 714.636719 C 320.503906 712.601562 320.484375 711.578125 320.445312 709.53125 C 316.953125 704.882812 315.183594 702.542969 311.628906 697.820312 C 310.410156 693.203125 309.785156 690.878906 308.558594 686.203125 C 304.429688 661.613281 300.523438 636.996094 296.863281 612.332031 C 304.273438 586.140625 274.074219 571.601562 265.578125 560.121094 C 264.214844 558.269531 251.9375 544.953125 249.285156 533.78125 C 246.632812 522.613281 237.894531 512.242188 234.089844 506.996094 C 230.28125 501.730469 232.734375 494.289062 234.253906 491.582031 C 235.777344 488.878906 236.449219 488.019531 233.519531 485.265625 C 230.578125 482.5 229.941406 477.84375 231.277344 477.011719 C 232.613281 476.191406 244.042969 457.9375 246.851562 449.316406 C 249.679688 440.703125 243.902344 427.226562 243.902344 427.226562 C 244.097656 426.035156 244.199219 425.445312 244.390625 424.257812 C 243.902344 422.632812 243.644531 421.8125 243.167969 420.191406 C 241.710938 418.824219 240.449219 418.347656 239.40625 418.347656 C 237.011719 418.347656 235.757812 420.871094 235.757812 420.871094 C 235.757812 420.871094 235.675781 427.132812 233.121094 427.511719 C 233.039062 427.519531 232.964844 427.519531 232.871094 427.519531 C 230.183594 427.519531 224.0625 421.90625 221.105469 421.628906 C 218.054688 421.351562 207.707031 409.9375 207.707031 409.9375 C 207.707031 409.9375 208.265625 405.21875 206.460938 404.480469 C 204.671875 403.742188 201.882812 396.835938 201.882812 396.835938 C 201.539062 395.40625 201.375 394.6875 201.050781 393.269531 C 200.34375 393.359375 199.667969 393.40625 198.996094 393.40625 C 192.304688 393.40625 187.015625 388.695312 175.480469 378.71875 C 173.351562 377.023438 171.96875 376.433594 170.796875 376.433594 C 169.453125 376.433594 168.375 377.207031 166.75 377.980469 C 165.128906 378.753906 162.953125 379.53125 159.417969 379.53125 C 159.34375 379.53125 159.269531 379.519531 159.195312 379.519531 C 148.789062 379.4375 125.476562 357.855469 125.476562 357.855469 C 125.476562 357.855469 127.042969 354.265625 127.605469 346.855469 C 128.175781 339.433594 117.125 327.714844 117.125 327.714844 C 117.429688 325.769531 117.578125 324.800781 117.882812 322.863281 C 115.484375 318.492188 114.324219 316.34375 112.046875 312.113281 C 112.011719 307.511719 112.011719 305.226562 112.058594 300.679688 C 110.859375 298.964844 109.644531 298.292969 108.566406 298.292969 C 106.160156 298.292969 104.410156 301.613281 104.90625 304.082031 C 106.628906 310.1875 107.542969 313.292969 109.476562 319.601562 C 109.46875 322.355469 109.46875 323.730469 109.488281 326.507812 C 109.855469 328.902344 110.050781 330.101562 110.4375 332.515625 C 111.421875 335.746094 111.929688 337.367188 112.960938 340.632812 C 112.667969 340.675781 112.378906 340.703125 112.09375 340.703125 C 106.132812 340.703125 104.125 330.203125 105.246094 328.886719 C 106.417969 327.5 104.742188 326.230469 101.054688 323.96875 C 97.378906 321.710938 100.695312 317.5 101.664062 314.90625 C 102.628906 312.316406 98.667969 305.863281 98.667969 305.863281 C 98.667969 305.863281 100.140625 298.644531 101.175781 294.613281 C 102.207031 290.585938 93.332031 287.433594 93.332031 287.433594 C 94.003906 281.089844 94.390625 277.945312 95.238281 271.722656 C 90.457031 266.863281 96.53125 257.769531 97.738281 257.496094 C 98.945312 257.226562 101.488281 256.515625 102.742188 251.945312 C 104.003906 247.363281 123.761719 223.8125 123.761719 223.8125 C 123.761719 223.8125 130.269531 222.890625 131.761719 221.046875 C 133.253906 219.214844 143.90625 209.957031 136.636719 206.359375 C 129.363281 202.753906 135.558594 197.648438 135.558594 197.648438 C 133.050781 197.25 137.832031 189.773438 139.660156 187.609375 C 141.484375 185.449219 142.183594 181.945312 143.933594 176 C 144.910156 172.644531 138.652344 171.074219 132.277344 171.074219 C 127.355469 171.074219 122.359375 172.007812 120.535156 173.769531 C 116.371094 177.808594 109.210938 182.1875 104.335938 183.660156 C 99.460938 185.144531 61.382812 216.03125 61.382812 216.03125 C 59.179688 216.78125 58.082031 217.175781 55.9375 217.960938 L 55.917969 217.96875 L 55.953125 217.941406 C 56.726562 217.34375 81.589844 198.117188 80.511719 197.914062 C 80.476562 197.90625 80.441406 197.90625 80.410156 197.90625 C 79.242188 197.90625 76.53125 201.140625 74.644531 201.972656 C 74.238281 202.15625 73.886719 202.230469 73.609375 202.230469 C 72.550781 202.230469 72.449219 201.105469 73.609375 200.191406 C 75.085938 199.050781 80.550781 195.378906 81.261719 192.59375 C 81.980469 189.820312 86.207031 186.464844 87.949219 184.730469 C 89.691406 183.007812 101.921875 176.019531 101.921875 176.019531 C 105.136719 173.078125 106.75 171.601562 109.957031 168.640625 C 109.957031 168.640625 110.066406 168.226562 109.699219 168.226562 C 109.429688 168.226562 108.914062 168.449219 107.910156 169.214844 C 106.179688 170.53125 97.636719 176.8125 96.207031 176.8125 C 95.683594 176.8125 96.144531 175.933594 98.308594 173.601562 C 106.296875 165.019531 115.375 162.167969 115.375 162.167969 C 117.375 160.398438 118.371094 159.515625 120.371094 157.734375 C 120.371094 157.734375 120.011719 157.855469 119.652344 157.855469 C 119.0625 157.855469 118.492188 157.496094 119.753906 155.558594 C 121.761719 152.46875 126.09375 149.59375 126.09375 149.59375 C 128.65625 148.027344 129.953125 147.242188 132.554688 145.703125 C 150.429688 130.839844 172.429688 119.765625 195.761719 117.515625 C 195.761719 117.515625 202.996094 116.117188 207.574219 112.769531 C 211.777344 109.71875 224.78125 102.136719 227.234375 102.136719 C 227.453125 102.136719 227.59375 102.203125 227.621094 102.339844 C 227.730469 102.800781 228.402344 102.96875 229.296875 102.96875 C 231.527344 102.96875 235.15625 101.945312 235.15625 101.945312 C 238.585938 100.957031 240.308594 100.46875 243.773438 99.539062 C 243.398438 100.5625 245.726562 100.855469 248.53125 100.855469 C 252.316406 100.855469 256.960938 100.320312 256.960938 100.320312 C 255.699219 102.019531 255.082031 102.859375 253.820312 104.5625 C 257.367188 103.59375 259.144531 103.132812 262.722656 102.230469 C 264.480469 102.09375 265.355469 102.027344 267.125 101.898438 C 266.148438 103.796875 267.320312 106.886719 268.703125 106.878906 C 269.042969 106.878906 269.394531 106.691406 269.734375 106.261719 C 271.308594 104.214844 278.609375 95.886719 282.570312 95.886719 C 282.894531 95.886719 283.207031 95.941406 283.484375 96.0625 C 284.847656 96.671875 287.011719 96.863281 289.179688 96.863281 C 292.726562 96.863281 296.265625 96.347656 296.265625 96.347656 C 298.375 96.070312 299.445312 95.941406 301.566406 95.683594 C 301.832031 98.476562 303.140625 99.113281 304.265625 99.113281 C 305.203125 99.113281 306.007812 98.679688 306.007812 98.679688 C 308.402344 96.515625 309.601562 95.4375 311.976562 93.289062 C 313.691406 92.855469 314.558594 92.632812 316.28125 92.207031 C 320.070312 86.925781 316.769531 84.472656 316.769531 84.472656 C 322.429688 81.742188 325.238281 80.417969 330.851562 77.824219 C 329.847656 80.8125 329.347656 82.316406 328.34375 85.332031 C 331.605469 86.011719 333.257812 86.371094 336.574219 87.121094 C 336.574219 87.121094 338.046875 87.414062 335.441406 89.386719 C 332.84375 91.359375 333.441406 93.507812 334.066406 94.84375 C 334.105469 94.917969 334.167969 94.945312 334.269531 94.945312 C 335.917969 94.945312 346.128906 84.703125 346.128906 84.703125 C 346.128906 84.703125 351.980469 84.335938 353.6875 84.335938 C 353.898438 84.335938 354.046875 84.34375 354.109375 84.351562 C 354.128906 84.351562 354.15625 84.363281 354.195312 84.363281 C 354.304688 84.363281 354.480469 84.335938 354.683594 84.316406 C 354.894531 84.289062 355.132812 84.269531 355.382812 84.269531 C 356.8125 84.269531 358.414062 85.007812 354.785156 90.808594 C 350.09375 98.292969 346.222656 98.5625 345.6875 98.5625 C 345.640625 98.5625 345.625 98.5625 345.625 98.5625 L 332.011719 100.238281 C 332.011719 100.238281 323.203125 100.820312 321.265625 101.964844 C 319.332031 103.105469 323.683594 107.707031 323.683594 107.707031 C 319.515625 109.339844 317.433594 110.179688 313.269531 111.867188 C 313.269531 111.867188 306.558594 112.574219 305.933594 112.640625 C 305.648438 114.558594 305.5 115.507812 305.214844 117.425781 C 286.679688 121.953125 277.75 139.453125 277.75 139.453125 C 278.683594 139.710938 279.132812 139.847656 280.066406 140.117188 C 281.335938 143.019531 281.980469 144.484375 283.308594 147.445312 C 285.171875 147.269531 286.101562 147.195312 287.980469 147.039062 C 291.125 149.011719 292.71875 150.007812 295.933594 152.054688 C 308.992188 152.480469 306.320312 155.734375 306.320312 155.734375 C 300.0625 168.78125 302.753906 171.261719 305.703125 171.261719 C 307.519531 171.261719 309.445312 170.320312 309.445312 170.320312 C 311.257812 167.515625 313.15625 158.59375 318.878906 155.667969 C 336.960938 147.710938 334.824219 138.078125 334.824219 138.078125 C 335 135.570312 335.082031 134.324219 335.257812 131.835938 C 335.515625 132.046875 335.773438 132.148438 336.019531 132.148438 C 337.625 132.148438 338.988281 128.039062 340.921875 123.925781 C 342.867188 119.8125 345.375 115.699219 349.292969 115.699219 C 349.347656 115.699219 349.402344 115.699219 349.464844 115.699219 C 351.421875 115.757812 378.015625 115.800781 370.292969 127.132812 C 365.28125 134.480469 367.613281 135.773438 369.871094 135.773438 C 371.085938 135.773438 372.285156 135.394531 372.285156 135.394531 C 378.910156 131.226562 382.210938 129.191406 388.640625 125.226562 C 388.640625 125.226562 391.339844 140.816406 389.195312 142.824219 C 387.046875 144.84375 394.328125 152.359375 394.328125 152.359375 C 394.179688 153.722656 394.105469 154.398438 393.941406 155.761719 C 397.3125 155.835938 398.992188 155.882812 402.335938 155.984375 C 406.878906 175.382812 366.773438 177.050781 353.328125 178.773438 C 352.738281 180.066406 352.453125 180.703125 351.851562 181.992188 C 355.863281 182.203125 357.871094 182.324219 361.890625 182.574219 C 350.332031 197.167969 362.238281 198.164062 365.714844 198.164062 C 366.265625 198.164062 366.597656 198.136719 366.597656 198.136719 C 368.910156 198.117188 370.0625 198.117188 372.375 198.109375 C 372.257812 199.214844 372.199219 199.777344 372.082031 200.882812 C 372.042969 200.882812 372.007812 200.882812 371.96875 200.882812 C 368.5625 200.882812 347.910156 213.597656 347.910156 213.597656 C 347.910156 213.597656 345.632812 210.378906 344.777344 210.378906 C 344.738281 210.378906 344.691406 210.390625 344.664062 210.410156 C 344.664062 210.410156 361.207031 202.957031 354.894531 201.992188 C 326.960938 205.410156 323.726562 214.816406 323.726562 214.816406 C 323.109375 217.441406 322.804688 218.761719 322.179688 221.398438 C 311.101562 222.3125 307.617188 233.089844 301.113281 234.507812 C 294.605469 235.9375 290.007812 244.46875 290.007812 244.46875 C 288.570312 244.550781 287.851562 244.585938 286.433594 244.667969 C 286.617188 246.375 285.640625 264.945312 274.636719 268.695312 C 255.476562 274.46875 250.988281 288.472656 250.988281 288.472656 C 250.660156 296.191406 250.511719 300.074219 250.261719 307.882812 C 250.714844 308.113281 250.945312 308.230469 251.394531 308.460938 C 251.691406 311.027344 249.839844 321.324219 245.984375 321.324219 C 245.773438 321.324219 245.554688 321.289062 245.324219 321.222656 C 236.265625 319.351562 241.359375 299.121094 241.359375 299.121094 C 239.054688 297.289062 237.902344 296.375 235.628906 294.566406 C 234.179688 295.074219 232.929688 295.277344 231.804688 295.277344 C 227.492188 295.277344 225.058594 292.273438 220.957031 291.941406 C 220.820312 291.929688 220.691406 291.921875 220.570312 291.921875 C 215.816406 291.921875 216.332031 299.28125 210.191406 301.207031 C 209.402344 301.457031 208.726562 301.558594 208.128906 301.558594 C 206.257812 301.558594 205.171875 300.503906 203.796875 299.453125 C 202.433594 298.402344 200.792969 297.351562 197.828125 297.351562 C 197.152344 297.351562 196.417969 297.40625 195.605469 297.527344 C 186.378906 298.875 174.1875 310.738281 174.1875 310.738281 C 172.382812 315.351562 171.488281 317.664062 169.726562 322.273438 C 152.773438 351.5 172.300781 361.632812 172.300781 361.632812 C 174.832031 362.613281 177.117188 363.035156 179.175781 363.035156 C 191.355469 363.035156 195.421875 348.273438 195.421875 348.273438 C 202.480469 344.566406 206.488281 343.351562 208.726562 343.351562 C 212.957031 343.351562 210.820312 347.703125 210.820312 347.703125 C 206.773438 359.394531 204.792969 365.257812 200.96875 376.96875 C 204.148438 376.496094 206.855469 376.285156 209.152344 376.285156 C 224.597656 376.285156 221.75 385.597656 221.75 385.597656 C 220.847656 393.847656 220.421875 398.007812 219.628906 406.285156 C 218.164062 411.449219 226.789062 418.335938 229.832031 418.335938 C 230.082031 418.335938 230.300781 418.289062 230.46875 418.1875 C 232.640625 416.890625 235.988281 414.757812 241.285156 414.628906 C 241.359375 414.621094 241.425781 414.621094 241.5 414.621094 C 246.703125 414.621094 251.347656 419.507812 251.347656 419.507812 C 256.796875 416.558594 262.757812 404.914062 262.757812 404.914062 C 262.757812 404.914062 264.289062 405.363281 266.03125 405.363281 C 267.753906 405.363281 269.667969 404.921875 270.480469 403.160156 C 272.128906 399.621094 275.882812 397.085938 275.882812 397.085938 C 277.917969 397.074219 278.941406 397.074219 280.988281 397.066406 C 280.929688 398.285156 280.894531 398.890625 280.839844 400.109375 C 279.511719 401.195312 278.847656 401.742188 277.519531 402.820312 C 276.859375 407.078125 276.535156 409.210938 275.890625 413.449219 C 277.160156 415.265625 277.796875 416.179688 279.070312 418.003906 C 279.097656 418.023438 279.132812 418.023438 279.171875 418.023438 C 280.066406 418.023438 280.09375 412.160156 281.632812 405.410156 C 282.625 401.066406 286.582031 399.242188 288.949219 399.242188 C 290.386719 399.242188 291.242188 399.925781 290.476562 401.125 C 288.523438 404.195312 308.28125 411.136719 313.175781 411.136719 C 313.324219 411.136719 313.460938 411.125 313.582031 411.109375 C 313.71875 411.097656 313.875 411.089844 314.042969 411.089844 C 315.683594 411.089844 318.789062 411.773438 322.242188 412.90625 C 322.242188 412.90625 324.269531 408.285156 325.867188 407.144531 C 326.601562 406.609375 327.847656 406.507812 329.007812 406.507812 C 329.414062 406.507812 329.808594 406.515625 330.167969 406.527344 C 330.519531 406.542969 330.851562 406.554688 331.117188 406.554688 C 331.460938 406.554688 331.707031 406.535156 331.800781 406.460938 C 332.195312 406.175781 332.554688 403.171875 334.34375 403.171875 C 334.667969 403.171875 335.035156 403.269531 335.460938 403.492188 C 338.234375 404.976562 334.925781 409.089844 332.878906 410.234375 C 331.550781 410.96875 330.410156 413.835938 330.058594 416.113281 C 334.234375 418.226562 337.6875 420.796875 338.363281 423.433594 C 339.957031 429.789062 348.949219 437.828125 366.847656 437.828125 C 367.539062 437.828125 368.246094 437.820312 368.964844 437.789062 C 388.300781 452.292969 378.957031 456.066406 383.589844 459.652344 C 388.226562 463.230469 385.757812 466.816406 385.757812 466.816406 C 383.886719 470.171875 374.585938 481.539062 374.800781 483.539062 C 374.847656 483.945312 375.039062 484.113281 375.371094 484.113281 C 376.632812 484.113281 379.777344 481.667969 383.039062 481.308594 C 383.242188 481.289062 383.445312 481.273438 383.636719 481.273438 C 387.445312 481.273438 390.207031 485.273438 390.207031 485.273438 C 395.617188 482.054688 398.328125 480.441406 403.726562 477.207031 C 421.023438 481.078125 412.804688 490.621094 413.394531 492.605469 C 413.476562 492.890625 413.660156 493.007812 413.917969 493.007812 C 415.421875 493.007812 419.308594 488.777344 419.308594 488.777344 C 419.308594 488.777344 417.890625 487.339844 421.863281 487.339844 C 424.847656 487.339844 430.867188 488.148438 442.828125 490.988281 C 470.6875 497.609375 464.105469 514.667969 464.105469 514.667969 C 461.242188 523.140625 442.523438 533.355469 443.152344 552.136719 C 446.691406 580.726562 428.8125 606.554688 428.8125 606.554688 C 428.8125 606.554688 422.785156 606.617188 420.886719 606.894531 C 418.988281 607.179688 401.882812 615.894531 400.824219 621.195312 C 404.527344 640.796875 396.253906 642.4375 396.253906 642.4375 C 396.179688 645.628906 396.152344 647.222656 396.078125 650.394531 C 389.792969 658.785156 386.707031 662.921875 380.652344 671.046875 C 380.503906 671.121094 380.320312 671.15625 380.082031 671.15625 C 378.863281 671.15625 376.496094 670.246094 374 669.332031 C 371.511719 668.417969 368.882812 667.507812 367.125 667.507812 C 366.367188 667.507812 365.769531 667.671875 365.417969 668.085938 C 381.621094 691.304688 365.714844 692.730469 365.714844 692.730469 C 362.0625 692.675781 360.25 692.628906 356.617188 692.527344 C 357.226562 694.824219 357.53125 695.976562 358.136719 698.253906 C 356.886719 701.160156 356.265625 702.605469 355.058594 705.484375 C 351.457031 704.3125 349.660156 703.710938 346.046875 702.496094 C 349.125 705.703125 350.65625 707.300781 353.679688 710.460938 C 353.707031 711.503906 353.722656 712.019531 353.761719 713.0625 C 352.65625 714.5 352.113281 715.210938 351.015625 716.640625 C 351.421875 718.28125 351.613281 719.089844 352.011719 720.722656 C 350.71875 723.746094 350.074219 725.25 348.820312 728.230469 C 351.742188 731.789062 353.191406 733.546875 356.039062 737.035156 C 353.992188 742.058594 352.996094 744.53125 351.0625 749.425781 C 352.324219 752.246094 352.960938 753.648438 354.195312 756.433594 C 352.027344 758.488281 350.949219 759.492188 348.839844 761.503906 M 269.789062 200.257812 C 269.964844 200.257812 270.09375 200.265625 270.175781 200.3125 C 270.867188 200.636719 273.550781 202.949219 266.011719 205.070312 C 258.472656 207.199219 246.878906 226.25 246.878906 226.25 C 246.878906 226.25 247.671875 229.734375 248.675781 229.734375 C 248.953125 229.734375 249.25 229.464844 249.550781 228.785156 C 250.945312 225.648438 267.835938 206.085938 270.222656 205.863281 C 270.324219 205.855469 270.425781 205.855469 270.527344 205.855469 C 272.785156 205.855469 274.730469 208.074219 273.808594 208.535156 C 272.859375 209.015625 270.65625 213.414062 271.523438 216.363281 C 271.808594 217.34375 272.34375 217.71875 272.976562 217.71875 C 274.25 217.71875 275.890625 216.199219 276.601562 214.925781 C 277.640625 213.0625 279.796875 210.539062 280.921875 210.539062 C 280.941406 210.539062 280.96875 210.546875 280.988281 210.546875 C 281.070312 210.554688 281.160156 210.554688 281.273438 210.554688 C 282.765625 210.554688 287.097656 209.753906 286.875 205.652344 C 286.746094 203.105469 284.855469 202.25 282.800781 202.25 C 281.28125 202.25 279.6875 202.71875 278.628906 203.316406 C 278.183594 203.566406 277.742188 203.667969 277.308594 203.667969 C 275.292969 203.667969 273.484375 201.335938 273.4375 200.203125 C 273.382812 198.808594 274.832031 192.308594 267.753906 190.132812 C 267.199219 189.957031 266.582031 189.875 265.9375 189.875 C 262.179688 189.875 257.027344 192.503906 252.90625 195.121094 C 248.789062 197.738281 245.691406 200.359375 246.042969 200.359375 C 246.050781 200.359375 246.070312 200.359375 246.085938 200.347656 C 246.125 200.339844 246.171875 200.332031 246.214844 200.332031 C 246.777344 200.332031 247.699219 201.308594 248.585938 202.285156 C 249.46875 203.273438 250.335938 204.25 250.824219 204.25 C 251.019531 204.25 251.15625 204.082031 251.191406 203.6875 C 251.433594 201.484375 257.890625 198.441406 259.773438 198.441406 C 260.085938 198.441406 260.269531 198.523438 260.28125 198.71875 C 260.316406 200.035156 265.042969 201.214844 265.042969 201.214844 C 265.042969 201.214844 268.5 200.257812 269.789062 200.257812 M 279.640625 219.960938 C 279.117188 219.960938 278.378906 220.742188 277.558594 221.730469 C 276.140625 223.472656 272.203125 223.972656 269.191406 224.625 C 266.1875 225.269531 268.8125 227.085938 270.617188 227.816406 C 270.617188 227.816406 270.8125 227.824219 271.125 227.824219 C 272.15625 227.824219 274.5 227.777344 275.660156 227.429688 C 277.191406 226.96875 280.5625 224.15625 280.367188 221.527344 C 280.296875 220.394531 280.027344 219.960938 279.640625 219.960938 M 296.597656 210.269531 C 295.554688 210.269531 294.402344 211.9375 292.691406 212.714844 C 290.589844 213.671875 289.023438 214.796875 288.929688 216.023438 C 288.929688 216.023438 296.429688 215.726562 297.050781 214.878906 C 297.65625 214.023438 298.542969 211.71875 297.308594 210.582031 C 297.078125 210.363281 296.835938 210.269531 296.597656 210.269531 "/>
</g>
<path style=" stroke:none;fill-rule:nonzero;fill:rgb(6.269836%,34.899902%,50.588989%);fill-opacity:1;" d="M 577.585938 192.925781 C 573.625 191.371094 573.234375 186.179688 573.890625 185.578125 C 574.5625 184.980469 575.171875 182.371094 574.175781 181.992188 C 573.171875 181.613281 572.148438 178.359375 572.148438 178.359375 C 572.148438 178.359375 572.8125 177.1875 573.726562 177.1875 C 574.019531 177.1875 574.332031 177.308594 574.664062 177.640625 C 574.902344 177.871094 575.152344 177.972656 575.410156 177.972656 C 576.636719 177.972656 577.972656 175.816406 577.972656 175.816406 C 577.972656 175.816406 584.210938 177.410156 585.308594 177.835938 C 586.40625 178.269531 588.449219 182.066406 587.816406 182.140625 C 587.171875 182.195312 585.878906 184.757812 585.878906 184.757812 C 585.878906 184.757812 589.371094 190.824219 587.199219 190.824219 C 587.070312 190.824219 586.929688 190.808594 586.773438 190.769531 C 586.414062 190.675781 586.027344 190.640625 585.601562 190.640625 C 582.40625 190.640625 577.585938 192.925781 577.585938 192.925781 "/>
<path style=" stroke:none;fill-rule:nonzero;fill:rgb(6.269836%,34.899902%,50.588989%);fill-opacity:1;" d="M 612.6875 203.871094 C 611.195312 203.871094 605.582031 201.695312 605.582031 201.695312 C 604.152344 201.675781 602.964844 201.675781 601.839844 201.675781 C 599.648438 201.675781 597.730469 201.695312 594.855469 201.742188 C 593.398438 200.839844 592.671875 200.378906 591.214844 199.472656 C 591.214844 199.472656 598.386719 198.808594 598.652344 198.15625 C 598.917969 197.492188 593.675781 196.238281 593.453125 194.957031 C 593.234375 193.675781 591.039062 193.839844 591.4375 192.347656 C 591.824219 190.851562 591.851562 188.417969 594.476562 188.070312 C 597.105469 187.71875 596.984375 185.449219 594.5625 181.917969 C 592.210938 180.90625 591.03125 180.398438 588.671875 179.390625 C 588.800781 179.070312 587.261719 174.488281 587.261719 174.488281 C 586.652344 174.3125 586.351562 174.21875 585.742188 174.035156 C 585.648438 172.691406 585.601562 172.015625 585.503906 170.679688 C 585.503906 170.679688 585.445312 167.738281 587.382812 167.738281 C 587.859375 167.738281 588.460938 167.914062 589.207031 168.355469 C 593.003906 170.578125 591.445312 171.234375 591.445312 171.234375 C 592.773438 171.785156 593.445312 172.070312 594.773438 172.625 C 594.773438 172.625 593.769531 176.441406 593.65625 176.753906 C 593.539062 177.070312 596.625 178.582031 596.625 178.582031 C 596.625 178.582031 607.019531 190.144531 608.457031 195.011719 C 610.097656 195.066406 610.917969 195.101562 612.539062 195.175781 C 612.539062 195.175781 614.492188 195.277344 613.664062 198.863281 C 613.378906 200.082031 612.953125 200.433594 612.523438 200.433594 C 612.234375 200.433594 611.933594 200.265625 611.675781 200.109375 C 611.414062 199.953125 611.195312 199.785156 611.046875 199.785156 C 610.917969 199.785156 610.84375 199.917969 610.863281 200.285156 C 610.945312 202.082031 613.257812 202.96875 613.046875 203.734375 C 613.019531 203.824219 612.898438 203.871094 612.6875 203.871094 "/>
<path style=" stroke:none;fill-rule:nonzero;fill:rgb(6.269836%,34.899902%,50.588989%);fill-opacity:1;" d="M 667.960938 199.011719 C 666.726562 198.414062 666.109375 198.117188 664.867188 197.519531 C 664.476562 196.773438 664.285156 196.394531 663.898438 195.636719 C 663.769531 195.019531 663.703125 194.714844 663.574219 194.097656 C 664.191406 194.402344 664.507812 194.550781 665.113281 194.863281 C 665.933594 195.925781 666.347656 196.449219 667.167969 197.507812 C 667.484375 198.109375 667.648438 198.414062 667.960938 199.011719 "/>
<path style=" stroke:none;fill-rule:nonzero;fill:rgb(6.269836%,34.899902%,50.588989%);fill-opacity:1;" d="M 722.324219 299.105469 C 722.1875 299.105469 722.027344 299.085938 721.863281 299.050781 C 718.980469 298.394531 717.53125 298.0625 714.609375 297.40625 C 713.375 297.140625 712.105469 295.859375 711.761719 294.566406 C 711.457031 293.433594 711.945312 292.667969 712.878906 292.667969 C 713.027344 292.667969 713.183594 292.6875 713.347656 292.722656 C 716.25 293.40625 717.699219 293.746094 720.574219 294.4375 C 721.78125 294.734375 723.050781 295.996094 723.410156 297.261719 C 723.726562 298.359375 723.246094 299.105469 722.324219 299.105469 "/>
<path style=" stroke:none;fill-rule:nonzero;fill:rgb(6.269836%,34.899902%,50.588989%);fill-opacity:1;" d="M 679.40625 280.738281 C 679.40625 280.738281 668.273438 277.613281 668.15625 274.15625 C 668.074219 272.035156 668.746094 271.621094 669.28125 271.621094 C 669.621094 271.621094 669.90625 271.785156 669.90625 271.785156 C 670.503906 271.914062 679.324219 274.957031 679.324219 274.957031 C 679.371094 277.253906 679.390625 278.414062 679.40625 280.738281 "/>
<path style=" stroke:none;fill-rule:nonzero;fill:rgb(6.269836%,34.899902%,50.588989%);fill-opacity:1;" d="M 678.273438 286.113281 C 677.167969 285.890625 676.613281 285.789062 675.507812 285.570312 C 675.214844 284.222656 675.058594 283.550781 674.753906 282.203125 C 676.558594 283.109375 677.464844 283.558594 679.269531 284.464844 C 678.871094 285.117188 678.671875 285.449219 678.273438 286.113281 "/>
<path style=" stroke:none;fill-rule:nonzero;fill:rgb(6.269836%,34.899902%,50.588989%);fill-opacity:1;" d="M 653.835938 254.054688 C 653.117188 254.054688 650.859375 253.308594 650.859375 253.308594 C 650.859375 253.308594 647.890625 248.285156 648.636719 247.75 C 649.003906 247.480469 649.871094 247.40625 650.671875 247.40625 C 651.492188 247.40625 652.242188 247.480469 652.242188 247.480469 C 652.242188 247.480469 654.5 253.925781 653.964844 254.039062 C 653.925781 254.046875 653.890625 254.054688 653.835938 254.054688 "/>
<path style=" stroke:none;fill-rule:nonzero;fill:rgb(6.269836%,34.899902%,50.588989%);fill-opacity:1;" d="M 654.988281 265.941406 C 654.074219 265.746094 653.613281 265.65625 652.699219 265.460938 C 652.699219 265.460938 644.65625 255.253906 650.664062 254.617188 C 652.304688 255.207031 653.117188 255.503906 654.738281 256.101562 C 655.667969 259.746094 656.109375 261.570312 656.976562 265.25 C 656.183594 265.515625 655.777344 265.664062 654.988281 265.941406 "/>
<path style=" stroke:none;fill-rule:nonzero;fill:rgb(6.269836%,34.899902%,50.588989%);fill-opacity:1;" d="M 636.1875 258.039062 C 635.496094 257.902344 635.144531 257.828125 634.453125 257.6875 C 634.207031 256.507812 634.066406 255.910156 633.820312 254.738281 C 634.722656 255.226562 635.171875 255.476562 636.085938 255.964844 C 636.121094 256.792969 636.140625 257.207031 636.1875 258.039062 "/>
<path style=" stroke:none;fill-rule:nonzero;fill:rgb(6.269836%,34.899902%,50.588989%);fill-opacity:1;" d="M 627.828125 261.5625 C 626.824219 261.386719 626.316406 261.292969 625.3125 261.109375 C 625.21875 259.976562 625.164062 259.414062 625.0625 258.289062 C 626.214844 258.507812 626.789062 258.609375 627.949219 258.832031 C 627.78125 258.039062 627.707031 257.652344 627.550781 256.859375 C 627.828125 256.710938 627.96875 256.628906 628.242188 256.472656 C 628.113281 255.925781 628.039062 255.652344 627.902344 255.105469 C 628.125 255.273438 631.9375 255.898438 631.9375 255.898438 C 632.222656 257.273438 632.371094 257.964844 632.65625 259.339844 C 632.308594 259.273438 632.140625 259.238281 631.792969 259.171875 C 631.847656 259.570312 631.875 259.773438 631.929688 260.175781 C 630.335938 259.875 629.542969 259.714844 627.949219 259.421875 C 627.894531 260.269531 627.875 260.703125 627.828125 261.5625 "/>
<path style=" stroke:none;fill-rule:nonzero;fill:rgb(6.269836%,34.899902%,50.588989%);fill-opacity:1;" d="M 518.863281 370.46875 C 518.855469 370.46875 518.855469 370.46875 518.847656 370.46875 C 517.289062 370.4375 516.507812 370.421875 514.949219 370.394531 C 514.136719 370.382812 513.472656 369.636719 513.457031 368.734375 C 513.445312 367.839844 514.0625 367.121094 514.855469 367.121094 C 514.875 367.121094 514.875 367.121094 514.882812 367.121094 C 516.449219 367.148438 517.226562 367.167969 518.78125 367.195312 C 519.59375 367.210938 520.257812 367.960938 520.273438 368.851562 C 520.292969 369.746094 519.65625 370.46875 518.863281 370.46875 "/>
<path style=" stroke:none;fill-rule:nonzero;fill:rgb(6.269836%,34.899902%,50.588989%);fill-opacity:1;" d="M 528.542969 374.328125 C 528.53125 374.328125 528.523438 374.328125 528.511719 374.328125 C 527.777344 374.320312 527.148438 373.628906 527.132812 372.789062 C 527.132812 372.53125 527.121094 372.394531 527.121094 372.136719 C 527.105469 371.304688 527.695312 370.640625 528.421875 370.640625 C 528.429688 370.640625 528.441406 370.640625 528.449219 370.640625 C 529.195312 370.660156 529.8125 371.351562 529.832031 372.183594 C 529.839844 372.449219 529.839844 372.578125 529.839844 372.835938 C 529.859375 373.667969 529.277344 374.328125 528.542969 374.328125 "/>
<path style=" stroke:none;fill-rule:nonzero;fill:rgb(6.269836%,34.899902%,50.588989%);fill-opacity:1;" d="M 526.117188 381.261719 C 526.117188 381.261719 526.109375 381.261719 526.109375 381.261719 C 525.175781 381.246094 524.707031 381.234375 523.777344 381.226562 C 523.132812 381.21875 522.597656 380.628906 522.589844 379.90625 C 522.578125 379.1875 523.085938 378.609375 523.722656 378.609375 C 523.730469 378.609375 523.738281 378.609375 523.738281 378.609375 C 524.671875 378.625 525.140625 378.625 526.070312 378.644531 C 526.714844 378.652344 527.242188 379.246094 527.25 379.964844 C 527.261719 380.683594 526.753906 381.261719 526.117188 381.261719 "/>
<path style=" stroke:none;fill-rule:nonzero;fill:rgb(6.269836%,34.899902%,50.588989%);fill-opacity:1;" d="M 522.46875 374.230469 C 522.46875 374.230469 522.460938 374.230469 522.460938 374.230469 L 522.171875 374.230469 C 521.710938 374.21875 521.335938 373.796875 521.324219 373.289062 C 521.316406 372.78125 521.675781 372.375 522.117188 372.375 C 522.128906 372.375 522.128906 372.375 522.136719 372.375 L 522.421875 372.375 C 522.882812 372.382812 523.261719 372.808594 523.269531 373.316406 C 523.277344 373.832031 522.917969 374.230469 522.46875 374.230469 "/>
<path style=" stroke:none;fill-rule:nonzero;fill:rgb(6.269836%,34.899902%,50.588989%);fill-opacity:1;" d="M 530.097656 381.308594 C 530.089844 381.308594 530.082031 381.308594 530.070312 381.308594 C 529.683594 381.308594 529.5 381.300781 529.113281 381.300781 C 528.089844 381.28125 527.261719 380.351562 527.242188 379.207031 C 527.222656 378.074219 528.023438 377.160156 529.019531 377.160156 C 529.03125 377.160156 529.039062 377.160156 529.046875 377.160156 C 529.433594 377.167969 529.628906 377.167969 530.015625 377.179688 C 531.03125 377.199219 531.867188 378.128906 531.886719 379.273438 C 531.90625 380.40625 531.101562 381.308594 530.097656 381.308594 "/>
<path style=" stroke:none;fill-rule:nonzero;fill:rgb(6.269836%,34.899902%,50.588989%);fill-opacity:1;" d="M 726.914062 295.195312 C 726.832031 295.195312 726.738281 295.175781 726.644531 295.160156 C 726.101562 295.019531 725.835938 294.957031 725.292969 294.828125 C 724.617188 294.652344 723.898438 293.941406 723.695312 293.242188 C 723.511719 292.640625 723.753906 292.246094 724.242188 292.246094 C 724.324219 292.246094 724.414062 292.253906 724.515625 292.28125 C 725.0625 292.417969 725.328125 292.484375 725.863281 292.621094 L 726.09375 292.707031 C 722.832031 290.261719 719.558594 286.464844 718.851562 282.074219 C 717.210938 280.738281 716.378906 280.074219 714.730469 278.71875 C 714.683594 277.742188 714.65625 277.253906 714.601562 276.277344 C 716.65625 276.828125 717.6875 277.105469 719.714844 277.667969 C 719.714844 277.667969 721.46875 277.546875 722.25 276.820312 C 724.683594 283.46875 725.851562 286.925781 727.917969 293.582031 L 727.964844 293.71875 L 728.054688 294.015625 L 728.046875 294.015625 C 727.667969 293.785156 727.28125 293.542969 726.886719 293.277344 C 727.152344 293.554688 727.355469 293.867188 727.457031 294.191406 C 727.640625 294.789062 727.402344 295.195312 726.914062 295.195312 "/>
<path style=" stroke:none;fill-rule:nonzero;fill:rgb(6.269836%,34.899902%,50.588989%);fill-opacity:1;" d="M 662.773438 610.054688 C 660.164062 610.054688 659.925781 606 664.882812 600.726562 C 671.667969 593.496094 660.496094 587.355469 663.242188 582.054688 C 665.980469 576.746094 662.128906 548.679688 664.753906 544.105469 C 667.390625 539.523438 665.011719 531.863281 678.3125 514.308594 C 675.335938 506.859375 676.714844 491.921875 675.988281 490.308594 C 675.988281 490.308594 678.597656 489.171875 679.175781 486.066406 C 679.40625 484.867188 679.167969 484.417969 678.734375 484.417969 C 678.042969 484.417969 676.855469 485.53125 676.183594 486.59375 C 676.027344 486.832031 675.851562 486.941406 675.667969 486.941406 C 674.523438 486.941406 672.992188 482.921875 673.703125 481.566406 C 674.53125 480 665.34375 472.578125 666.015625 469.757812 C 666.699219 466.945312 667.851562 458.8125 669.757812 455.75 C 671.667969 452.691406 672.550781 445.949219 671.371094 444.476562 C 671.308594 444.402344 671.1875 444.363281 671.03125 444.363281 C 670.285156 444.363281 668.746094 445.101562 668.746094 445.101562 C 668.746094 445.101562 667.34375 446.429688 665.859375 446.429688 C 665.574219 446.429688 665.28125 446.382812 664.996094 446.253906 C 663.253906 445.515625 667.242188 441.121094 667.242188 441.121094 C 665.03125 439.523438 662.78125 437.992188 662.78125 437.992188 C 659.226562 438.960938 657.4375 439.441406 653.84375 440.417969 C 653.84375 440.417969 655.945312 429.503906 646.371094 429.503906 C 645.558594 429.503906 644.675781 429.574219 643.6875 429.742188 C 631.699219 431.796875 623.839844 439.597656 619.636719 439.597656 C 619.425781 439.597656 619.210938 439.578125 619.007812 439.535156 C 617.15625 439.117188 613.730469 438.445312 609.949219 438.445312 C 605.554688 438.445312 600.671875 439.347656 597.214844 442.613281 C 596.515625 443.285156 595.648438 443.582031 594.664062 443.582031 C 586.652344 443.582031 570.785156 423.894531 570.324219 421.214844 C 569.800781 418.199219 568.691406 414.539062 568.691406 414.539062 C 568.691406 414.539062 559.808594 401.722656 558.382812 401.398438 C 556.960938 401.066406 550.519531 397.960938 552.640625 393.296875 C 554.742188 388.621094 553.089844 383.449219 552.066406 381.347656 C 551.027344 379.246094 554.914062 373.214844 556.832031 370.394531 C 558.757812 367.5625 557.929688 355.171875 555.984375 352.414062 C 554.03125 349.65625 549.136719 340.925781 562.269531 323.960938 C 575.402344 306.996094 584.074219 299.011719 584.074219 299.011719 C 584.636719 292.789062 584.894531 289.699219 585.328125 283.578125 C 585.328125 283.578125 596.199219 277.933594 597.960938 272.246094 C 598.53125 270.394531 599.09375 269.738281 599.683594 269.738281 C 600.890625 269.738281 602.183594 272.542969 603.757812 273.324219 C 606.050781 274.476562 611.589844 276.808594 612.265625 276.808594 C 612.28125 276.808594 612.292969 276.808594 612.308594 276.808594 C 615.441406 276.082031 626.613281 271.296875 631.015625 271.296875 C 631.433594 271.296875 631.792969 271.34375 632.078125 271.433594 C 635.328125 272.53125 653.089844 275.09375 653.089844 275.09375 C 653.089844 275.09375 654.664062 274.292969 656.699219 274.292969 C 660.15625 274.292969 664.9375 276.597656 665.601562 289.007812 C 667.980469 295.058594 682.382812 298.929688 683.960938 299.824219 C 683.960938 299.824219 688.980469 304.5625 689.140625 307.226562 C 689.296875 309.882812 698.207031 311.46875 700.289062 313.292969 C 700.628906 313.605469 701.007812 313.726562 701.378906 313.726562 C 703.246094 313.726562 705.246094 310.59375 705.246094 310.59375 C 705.246094 310.59375 701.523438 302.351562 705.257812 302.351562 C 705.332031 302.351562 705.402344 302.351562 705.476562 302.359375 C 709.558594 302.683594 712.59375 304.351562 712.59375 304.351562 C 717.484375 307.53125 719.917969 309.097656 724.746094 312.207031 C 728.359375 313.101562 730.167969 313.550781 733.714844 314.464844 L 733.742188 314.464844 L 733.863281 315.054688 C 753.859375 411.578125 741.484375 500.902344 695.265625 588.003906 L 695.183594 588.160156 L 695.15625 588.175781 C 688.621094 594.347656 683.242188 599.34375 682.660156 599.425781 C 681.066406 599.65625 671.96875 603.585938 666.503906 608.238281 C 665.03125 609.492188 663.742188 610.054688 662.773438 610.054688 "/>
<path style=" stroke:none;fill-rule:nonzero;fill:rgb(6.269836%,34.899902%,50.588989%);fill-opacity:1;" d="M 706.898438 288.363281 C 706.613281 288.363281 706.464844 288.066406 706.464844 288.066406 C 706.464844 288.066406 700.011719 280.636719 699.617188 279.640625 C 699.441406 279.199219 700.011719 279.070312 700.703125 279.070312 C 701.550781 279.070312 702.566406 279.261719 702.566406 279.261719 C 702.472656 278.527344 702.4375 278.15625 702.34375 277.429688 C 702.34375 277.429688 694.890625 275.75 693.875 273.351562 C 692.84375 270.957031 686.863281 261.339844 686.863281 261.339844 C 686.863281 261.339844 682.882812 256.589844 678.226562 254.066406 C 673.582031 251.539062 667.066406 244.429688 665.6875 244.035156 C 664.304688 243.644531 662.15625 242.132812 661.34375 239.875 C 661.070312 239.121094 660.40625 238.796875 659.734375 238.796875 C 658.386719 238.796875 657.015625 240.097656 658.683594 241.847656 C 661.179688 244.484375 668.3125 250.542969 670.773438 254.167969 C 673.234375 257.800781 682.496094 263.191406 685.230469 265.265625 C 687.960938 267.332031 688.089844 268.824219 688.089844 268.824219 C 685.546875 268.132812 684.265625 267.785156 681.703125 267.09375 C 681.703125 267.09375 682.992188 268.21875 683.488281 270.421875 C 683.996094 272.617188 683.214844 275.804688 682.550781 275.804688 C 682.539062 275.804688 682.539062 275.804688 682.53125 275.804688 C 681.859375 275.769531 679.324219 274.957031 679.324219 274.957031 C 678.660156 272.191406 678.320312 270.816406 677.621094 268.070312 C 677.621094 268.070312 665.832031 255.171875 662.691406 255.171875 C 662.625 255.171875 662.550781 255.179688 662.488281 255.199219 C 662.421875 255.207031 662.351562 255.21875 662.277344 255.21875 C 659.289062 255.21875 651.410156 243.609375 651.300781 242.089844 C 651.246094 241.339844 649.789062 240.761719 648.113281 240.761719 C 646.257812 240.761719 644.148438 241.46875 643.375 243.445312 C 642.886719 244.679688 641.808594 245.128906 640.554688 245.128906 C 637.976562 245.128906 634.628906 243.242188 634.03125 242.347656 C 633.691406 241.847656 632.648438 241.488281 631.597656 241.488281 C 629.863281 241.488281 628.113281 242.457031 629.421875 245.34375 C 630.527344 247.757812 630.601562 248.339844 630.417969 248.339844 C 630.253906 248.339844 629.875 247.851562 629.875 247.851562 C 629.875 247.851562 619.425781 254.054688 619.597656 259.550781 C 619.773438 264.925781 615.082031 268.191406 613.09375 268.191406 C 613.039062 268.191406 612.992188 268.191406 612.945312 268.179688 C 611.046875 268.023438 602.808594 267.046875 602.808594 267.046875 C 602.808594 267.046875 601.445312 267.902344 599.351562 267.902344 C 598.394531 267.902344 597.28125 267.71875 596.070312 267.195312 C 592.828125 265.792969 593.382812 261.691406 592.515625 261.691406 C 592.359375 261.691406 592.144531 261.828125 591.859375 262.152344 C 591.859375 262.152344 590.515625 262.628906 588.996094 262.628906 C 587.28125 262.628906 585.328125 262.023438 584.773438 259.449219 C 583.722656 254.582031 584.292969 242.21875 584.019531 238.695312 C 583.75 235.191406 580.136719 229.484375 586.222656 229.484375 C 586.257812 229.484375 586.292969 229.484375 586.339844 229.484375 C 592.503906 229.550781 598.328125 234.839844 600.46875 234.839844 C 600.496094 234.839844 600.515625 234.839844 600.542969 234.839844 C 600.828125 234.824219 601.1875 234.8125 601.574219 234.8125 C 604.015625 234.8125 608.042969 235.109375 608.476562 235.199219 C 609 235.199219 611.445312 226.21875 609.039062 222.488281 C 606.625 218.734375 597.65625 214.132812 596.332031 211.792969 C 595.011719 209.449219 597.867188 209.550781 603.996094 208.777344 C 605.058594 208.636719 605.96875 208.59375 606.761719 208.59375 C 607.996094 208.59375 608.9375 208.710938 609.675781 208.832031 C 610.402344 208.953125 610.925781 209.070312 611.324219 209.070312 C 611.765625 209.070312 612.042969 208.925781 612.253906 208.464844 C 612.9375 207.042969 614.234375 203.355469 617.007812 203.355469 C 617.296875 203.355469 617.597656 203.402344 617.921875 203.484375 C 618.117188 203.53125 618.308594 203.558594 618.519531 203.558594 C 621.929688 203.558594 626.824219 196.855469 626.824219 196.855469 C 629.535156 197.757812 630.886719 198.21875 633.570312 199.152344 C 633.570312 199.152344 636.019531 198.035156 634.539062 196.808594 C 633.054688 195.574219 627.664062 189.304688 628.816406 188.355469 C 629.902344 187.460938 631.238281 185.199219 632.113281 185.199219 C 632.179688 185.199219 632.234375 185.210938 632.289062 185.230469 C 633.15625 185.570312 634.933594 191.867188 634.933594 191.867188 C 634.933594 191.867188 635.917969 191.601562 637.089844 191.601562 C 637.929688 191.601562 638.867188 191.738281 639.613281 192.191406 C 641.394531 193.285156 644.527344 196.78125 643.570312 197.113281 C 643.457031 197.148438 643.339844 197.167969 643.199219 197.167969 C 642.777344 197.167969 642.195312 197.019531 641.632812 196.875 C 641.070312 196.726562 640.527344 196.585938 640.140625 196.585938 C 639.863281 196.585938 639.671875 196.660156 639.644531 196.875 C 639.496094 197.695312 640.664062 200.828125 641.726562 200.828125 C 641.816406 200.828125 641.917969 200.800781 642.011719 200.746094 C 642.214844 200.625 642.535156 200.570312 642.921875 200.570312 C 644.710938 200.570312 647.957031 201.621094 647.957031 201.621094 C 649.476562 202.941406 650.230469 203.605469 651.742188 204.921875 C 654.800781 204.976562 656.304688 205.03125 659.273438 205.191406 C 661.4375 206.527344 662.515625 207.199219 664.679688 208.535156 C 666.292969 207.726562 667.078125 207.347656 668.597656 206.628906 C 667.179688 203.679688 666.460938 202.203125 664.996094 199.289062 C 666.847656 200.15625 667.769531 200.597656 669.601562 201.472656 C 670.699219 202.257812 671.25 202.65625 672.347656 203.4375 C 672.347656 203.4375 673.574219 203.132812 672.164062 201.417969 C 670.808594 199.777344 667.308594 195.792969 668.191406 195.792969 C 668.230469 195.792969 668.273438 195.804688 668.339844 195.824219 C 669.695312 196.210938 674.707031 199.519531 674.707031 199.519531 C 674.707031 199.519531 678.484375 200.839844 679.683594 200.839844 C 680.042969 200.839844 680.164062 200.71875 679.867188 200.394531 C 679.867188 200.394531 673.453125 195.648438 672.984375 195.648438 C 672.984375 195.648438 672.984375 195.648438 672.976562 195.648438 C 672.964844 195.648438 672.957031 195.648438 672.9375 195.648438 C 672.386719 195.648438 668.671875 194.585938 668.175781 194.179688 C 667.667969 193.765625 660.507812 189.359375 660.148438 188.613281 C 659.789062 187.867188 653.566406 183.441406 654.039062 179.640625 C 654.507812 175.84375 654.894531 174.707031 653.050781 172.976562 C 652.296875 172.257812 650.914062 171.832031 649.59375 171.832031 C 647.726562 171.832031 646 172.671875 646.359375 174.652344 C 646.988281 178.046875 644.304688 176.820312 644.8125 178.222656 C 645.328125 179.632812 650.847656 185.292969 652.128906 185.800781 C 653.410156 186.308594 653.632812 189.3125 653.632812 189.3125 C 653.632812 189.3125 650.371094 189.792969 651.492188 193.976562 C 652.285156 196.902344 650.636719 197.777344 649.132812 197.777344 C 648.488281 197.777344 647.871094 197.621094 647.484375 197.390625 C 646.214844 196.617188 640.75 191.601562 640.75 191.601562 C 640.75 191.601562 633.359375 180.554688 631.523438 179.53125 C 631.273438 179.390625 631.027344 179.335938 630.785156 179.335938 C 630.09375 179.335938 629.449219 179.808594 628.878906 180.277344 C 628.308594 180.757812 627.792969 181.226562 627.386719 181.226562 C 627.292969 181.226562 627.203125 181.199219 627.128906 181.144531 C 625.121094 180.359375 624.125 179.972656 622.097656 179.199219 C 622.097656 179.199219 617.441406 175.992188 616.851562 173.65625 C 616.253906 171.324219 613.792969 166.6875 613.792969 166.6875 C 613.792969 166.6875 611.214844 161.332031 615.5 161.332031 C 616.363281 161.332031 617.527344 161.550781 619.046875 162.085938 C 619.800781 162.390625 620.464844 162.527344 621.046875 162.527344 C 623.386719 162.527344 624.492188 160.335938 625.882812 158.148438 C 627.285156 155.957031 628.972656 153.761719 632.5 153.761719 C 635.230469 153.761719 639.054688 155.078125 644.683594 158.710938 C 644.683594 158.710938 656.109375 166.273438 665.4375 175.546875 C 666 176.101562 666.5625 176.644531 667.125 177.179688 L 667.214844 177.261719 C 668.707031 179.191406 669.445312 180.15625 670.910156 182.113281 L 670.902344 182.101562 C 670.476562 181.808594 670.171875 181.613281 670.0625 181.605469 C 670.054688 181.605469 670.054688 181.605469 670.054688 181.605469 C 669.859375 181.605469 671.003906 182.859375 672.773438 184.648438 L 672.890625 184.777344 C 673.351562 185.402344 673.796875 186.058594 674.257812 186.683594 C 675.527344 188.4375 676.78125 190.1875 678.007812 191.960938 C 678.699219 192.9375 679.378906 193.921875 680.0625 194.917969 C 681.359375 196.816406 682.640625 198.726562 683.90625 200.644531 C 684.464844 201.5 685.039062 202.351562 685.582031 203.207031 C 687.230469 205.753906 688.84375 208.304688 690.421875 210.886719 C 690.566406 211.128906 690.722656 211.367188 690.871094 211.605469 C 692.640625 214.511719 694.355469 217.433594 696.042969 220.375 C 696.402344 221.011719 696.75 221.648438 697.101562 222.285156 C 698.382812 224.542969 699.636719 226.820312 700.871094 229.117188 C 701.378906 230.066406 701.875 231.015625 702.371094 231.964844 C 703.433594 233.984375 704.472656 236.019531 705.503906 238.058594 C 706.011719 239.089844 706.527344 240.113281 707.042969 241.15625 C 708.050781 243.214844 709.042969 245.296875 710.011719 247.378906 C 710.453125 248.339844 710.914062 249.296875 711.359375 250.257812 C 712.554688 252.882812 713.714844 255.53125 714.859375 258.1875 C 715.007812 258.535156 715.164062 258.878906 715.320312 259.21875 L 715.320312 259.226562 C 715.042969 260.582031 715.421875 263.183594 714.90625 264.6875 C 714.277344 266.546875 717.6875 268.347656 719.253906 271.074219 C 719.449219 271.398438 719.898438 271.777344 720.5 272.171875 L 720.535156 272.210938 C 720.792969 272.882812 720.921875 273.222656 721.171875 273.90625 L 721.144531 273.886719 C 720.230469 273.222656 719.152344 273.011719 718.128906 273.011719 C 716.140625 273.011719 714.351562 273.824219 714.351562 273.824219 C 714.351562 273.824219 710.582031 271.777344 709.246094 271.066406 C 709.054688 270.964844 708.878906 270.910156 708.710938 270.910156 C 707.808594 270.910156 707.46875 272.449219 706.886719 273.546875 C 706.703125 273.898438 706.417969 274.035156 706.09375 274.035156 C 705.21875 274.035156 704.03125 272.984375 703.746094 272.355469 C 703.671875 272.183594 703.515625 272.097656 703.320312 272.097656 C 702.566406 272.097656 701.378906 273.398438 703.535156 275.546875 C 706.222656 278.230469 709.910156 281.984375 708.574219 285.773438 C 707.828125 287.894531 707.257812 288.363281 706.898438 288.363281 "/>
<path style=" stroke:none;fill-rule:nonzero;fill:rgb(6.269836%,34.899902%,50.588989%);fill-opacity:1;" d="M 661.925781 455.003906 C 661.28125 455.003906 660.8125 454.441406 660.867188 453.714844 L 660.902344 453.242188 C 660.96875 452.488281 661.566406 451.832031 662.257812 451.785156 C 662.285156 451.785156 662.304688 451.785156 662.332031 451.785156 C 662.976562 451.785156 663.457031 452.347656 663.398438 453.078125 L 663.355469 453.546875 C 663.308594 454.304688 662.691406 454.957031 662.007812 455.003906 C 661.980469 455.003906 661.953125 455.003906 661.925781 455.003906 "/>
<path style=" stroke:none;fill-rule:nonzero;fill:rgb(6.269836%,34.899902%,50.588989%);fill-opacity:1;" d="M 658.582031 460.59375 C 657.824219 460.59375 657.289062 459.945312 657.355469 459.097656 C 657.4375 458.203125 658.148438 457.4375 658.949219 457.375 C 659.519531 457.335938 659.804688 457.320312 660.378906 457.273438 C 660.40625 457.273438 660.433594 457.273438 660.46875 457.273438 C 661.226562 457.273438 661.769531 457.925781 661.695312 458.777344 C 661.632812 459.652344 660.902344 460.417969 660.101562 460.480469 C 659.539062 460.527344 659.253906 460.546875 658.691406 460.59375 C 658.652344 460.59375 658.617188 460.59375 658.582031 460.59375 "/>
</g>
</svg>
