<?xml version="1.0" encoding="UTF-8"?>
<svg xmlns="http://www.w3.org/2000/svg" xmlns:xlink="http://www.w3.org/1999/xlink" width="810pt" height="809.999993pt" viewBox="0 0 810 809.999993" version="1.2">
<defs>
<clipPath id="clip1">
  <path d="M 49.566406 49.847656 L 760.289062 49.847656 L 760.289062 760.503906 L 49.566406 760.503906 Z M 49.566406 49.847656 "/>
</clipPath>
</defs>
<g id="surface1">
<g clip-path="url(#clip1)" clip-rule="nonzero">
<path style=" stroke:none;fill-rule:nonzero;fill:rgb(6.269836%,34.899902%,50.588989%);fill-opacity:1;" d="M 711.921875 560.300781 C 670.558594 642.164062 599.660156 703.0625 512.265625 731.808594 C 424.894531 760.527344 331.664062 753.566406 249.796875 712.203125 C 167.929688 670.84375 107.007812 599.945312 78.289062 512.546875 C 49.546875 425.175781 56.503906 331.945312 97.890625 250.078125 C 139.230469 168.210938 210.152344 107.289062 297.523438 78.570312 C 384.917969 49.828125 478.128906 56.785156 559.996094 98.148438 C 566.207031 101.277344 572.328125 104.667969 578.320312 108.171875 C 570.898438 127.113281 566.03125 149.6875 562.859375 171.648438 C 553.011719 164.996094 542.683594 158.894531 532.046875 153.519531 C 464.914062 119.625 388.53125 113.917969 316.882812 137.464844 C 245.257812 161.007812 187.15625 210.9375 153.238281 278.050781 C 119.34375 345.160156 113.636719 421.5625 137.183594 493.1875 C 160.726562 564.8125 210.65625 622.9375 277.765625 656.855469 C 317.675781 677.007812 360.867188 687.183594 404.367188 687.183594 C 434.054688 687.183594 463.878906 682.449219 492.90625 672.914062 C 564.53125 649.34375 622.65625 599.4375 656.550781 532.328125 C 702.894531 440.570312 695.777344 332.207031 638.382812 247.238281 C 660.339844 244.066406 682.871094 239.21875 701.835938 231.820312 C 760.882812 333.265625 764.78125 455.679688 711.921875 560.300781 Z M 624.328125 73.085938 C 649.660156 69.78125 665.382812 81.015625 671.285156 106.34375 L 570.28125 207.21875 C 576.691406 126.496094 596.554688 76.71875 624.328125 73.085938 Z M 723.332031 70.289062 C 725.535156 68.085938 728.441406 66.875 731.523438 66.875 C 731.546875 66.875 731.546875 66.875 731.570312 66.875 C 734.695312 66.894531 737.625 68.128906 739.804688 70.375 C 744.367188 75.046875 744.320312 82.601562 739.71875 87.203125 L 413.507812 413.0625 C 409.082031 417.488281 401.394531 417.445312 397.011719 412.953125 C 392.453125 408.304688 392.496094 400.75 397.121094 396.148438 Z M 458.394531 318.972656 C 455.882812 317.40625 453.304688 315.933594 450.664062 314.589844 C 426.5 302.386719 398.992188 300.316406 373.222656 308.796875 C 347.433594 317.277344 326.507812 335.25 314.308594 359.410156 C 289.066406 409.363281 309.175781 470.546875 359.128906 495.789062 C 373.488281 503.035156 389.039062 506.710938 404.71875 506.710938 C 415.402344 506.710938 426.128906 504.996094 436.589844 501.558594 C 462.359375 493.101562 483.28125 475.105469 495.484375 450.945312 C 511.496094 419.273438 509.667969 381.632812 491.011719 351.589844 L 543.609375 299.015625 C 584.222656 352.207031 591.183594 424.097656 560.921875 484.003906 C 539.90625 525.609375 503.875 556.578125 459.472656 571.179688 C 415.070312 585.757812 367.695312 582.234375 326.089844 561.222656 C 284.464844 540.191406 253.519531 504.15625 238.914062 459.753906 C 224.3125 415.332031 227.859375 367.976562 248.871094 326.351562 C 269.882812 284.746094 305.914062 253.800781 350.339844 239.199219 C 394.742188 224.59375 442.117188 228.140625 483.722656 249.152344 C 493.390625 254.042969 502.53125 259.835938 511.078125 266.375 Z M 388.949219 420.835938 C 393.308594 425.285156 399.125 427.730469 405.3125 427.730469 C 411.414062 427.730469 417.164062 425.351562 421.480469 421.035156 L 482.796875 359.761719 C 498.125 386.105469 499.25 418.503906 485.417969 445.878906 C 474.582031 467.332031 455.992188 483.320312 433.066406 490.855469 C 410.136719 498.386719 385.691406 496.558594 364.214844 485.722656 C 319.8125 463.277344 301.929688 408.898438 324.371094 364.496094 C 335.207031 343.023438 353.820312 327.054688 376.726562 319.523438 C 399.652344 311.988281 424.101562 313.796875 445.574219 324.652344 C 447.140625 325.445312 448.679688 326.304688 450.199219 327.1875 L 389.148438 388.152344 C 380.160156 397.117188 380.09375 411.785156 388.949219 420.835938 Z M 558.144531 219.351562 L 519.117188 258.335938 C 509.691406 251.003906 499.535156 244.503906 488.808594 239.085938 C 444.519531 216.710938 394.082031 212.945312 346.816406 228.492188 C 299.550781 244.019531 261.183594 276.992188 238.804688 321.285156 C 216.429688 365.578125 212.660156 415.992188 228.210938 463.277344 C 243.738281 510.542969 276.6875 548.890625 321.003906 571.289062 C 347.320312 584.59375 375.84375 591.308594 404.542969 591.308594 C 424.144531 591.308594 443.8125 588.183594 462.996094 581.882812 C 510.261719 566.332031 548.609375 533.382812 570.984375 489.09375 C 603.429688 424.867188 595.699219 347.734375 551.667969 291 L 590.742188 251.949219 C 601.402344 251.3125 613.316406 250.34375 625.71875 248.886719 C 683.773438 331.152344 691.835938 437.464844 646.488281 527.238281 C 613.933594 591.664062 558.144531 639.589844 489.382812 662.1875 C 420.621094 684.804688 347.277344 679.320312 282.855469 646.769531 C 218.433594 614.238281 170.484375 558.425781 147.886719 489.664062 C 125.289062 420.902344 130.75 347.558594 163.304688 283.136719 C 195.855469 218.714844 251.644531 170.789062 320.40625 148.167969 C 389.148438 125.570312 462.535156 131.03125 526.957031 163.585938 C 538.871094 169.597656 550.371094 176.582031 561.226562 184.246094 C 559.753906 196.6875 558.785156 208.671875 558.144531 219.351562 Z M 736.988281 185.765625 C 733.375 213.539062 683.597656 233.40625 602.921875 239.792969 L 703.972656 138.851562 C 729.144531 144.820312 740.289062 160.570312 736.988281 185.765625 Z M 712.230469 227.28125 C 731.855469 217.8125 745.886719 204.882812 748.175781 187.21875 C 751.941406 158.433594 739.519531 138.34375 713.113281 129.734375 L 747.691406 95.175781 C 756.65625 86.210938 756.722656 71.566406 747.867188 62.492188 C 743.550781 58.085938 737.78125 55.640625 731.636719 55.597656 C 731.589844 55.597656 731.546875 55.597656 731.503906 55.597656 C 725.425781 55.597656 719.675781 57.976562 715.335938 62.316406 L 680.425781 97.203125 C 671.859375 70.640625 651.730469 58.128906 622.875 61.898438 C 605.234375 64.210938 592.328125 78.195312 582.835938 97.773438 C 577.019531 94.40625 571.09375 91.125 565.082031 88.085938 C 480.527344 45.355469 384.234375 38.199219 294 67.867188 C 203.765625 97.511719 130.53125 160.4375 87.824219 244.988281 C 45.097656 329.566406 37.894531 425.835938 67.5625 516.074219 C 97.230469 606.332031 160.15625 679.542969 244.707031 722.269531 C 294.992188 747.664062 349.414062 760.503906 404.234375 760.503906 C 441.632812 760.503906 479.207031 754.535156 515.789062 742.511719 C 606.050781 712.84375 679.28125 649.941406 721.988281 565.386719 C 776.367188 457.730469 772.601562 331.835938 712.230469 227.28125 "/>
</g>
</g>
</svg>
