<?xml version="1.0" encoding="UTF-8"?>
<svg xmlns="http://www.w3.org/2000/svg" xmlns:xlink="http://www.w3.org/1999/xlink" width="810pt" height="809.999993pt" viewBox="0 0 810 809.999993" version="1.2">
<defs>
<clipPath id="clip1">
  <path d="M 429 11.460938 L 516 11.460938 L 516 84 L 429 84 Z M 429 11.460938 "/>
</clipPath>
</defs>
<g id="surface1">
<g clip-path="url(#clip1)" clip-rule="nonzero">
<path style=" stroke:none;fill-rule:nonzero;fill:rgb(6.269836%,34.899902%,50.588989%);fill-opacity:1;" d="M 515.46875 69.570312 C 496.125 34.347656 472.242188 11.527344 472.242188 11.527344 C 472.242188 11.527344 448.355469 34.347656 429.011719 69.570312 C 441.074219 78.578125 456.007812 83.972656 472.242188 83.972656 C 488.472656 83.972656 503.394531 78.578125 515.46875 69.570312 "/>
</g>
<path style=" stroke:none;fill-rule:nonzero;fill:rgb(6.269836%,34.899902%,50.588989%);fill-opacity:1;" d="M 504.726562 390.210938 L 504.882812 389.675781 L 504.9375 389.1875 C 506.488281 381.542969 506.523438 374.542969 502.859375 366.816406 L 502.859375 366.824219 C 497.65625 355.03125 485.851562 346.789062 472.128906 346.789062 C 453.570312 346.789062 438.546875 361.820312 438.546875 380.351562 C 438.546875 380.675781 438.554688 381.007812 438.566406 381.328125 C 438.574219 385.597656 439.164062 390.179688 439.652344 392.746094 C 440.640625 397.9375 440.4375 402.480469 439.128906 407.617188 C 441.261719 406.503906 442.691406 404.601562 443.621094 402.398438 C 445.359375 408.003906 446.28125 413.59375 443.328125 420.066406 C 443.679688 419.328125 450.164062 418.175781 451.28125 417.574219 C 453.957031 416.136719 455.34375 414.144531 456.015625 411.261719 C 459.542969 415.097656 458.203125 422.785156 459.328125 427.570312 C 462.84375 442.507812 473.644531 454.488281 476.890625 469.386719 C 475.664062 461.132812 475.007812 454.386719 476.890625 445.921875 C 478.867188 437.03125 482.734375 428.308594 486.472656 419.984375 C 487.644531 417.382812 489.332031 415.234375 491.003906 413.078125 C 491.1875 414.488281 491.445312 415.90625 491.832031 417.28125 C 492.480469 419.523438 493.363281 421.902344 494.90625 423.660156 C 495.976562 424.878906 499.804688 426.445312 500.195312 427.957031 C 499.621094 425.691406 498.375 423.632812 497.96875 421.328125 C 497.488281 418.570312 497.96875 415.519531 498.625 412.835938 C 500.765625 404.152344 503.265625 396.914062 504.726562 390.210938 "/>
<path style=" stroke:none;fill-rule:nonzero;fill:rgb(6.269836%,34.899902%,50.588989%);fill-opacity:1;" d="M 565.476562 361.9375 L 546.789062 272.175781 C 546.585938 271.621094 546.199219 271.125 545.699219 270.785156 L 525.847656 257.433594 C 533.535156 218.871094 539.683594 176.992188 539.683594 155.414062 C 539.683594 124.65625 529.566406 96.179688 517.183594 72.789062 C 504.816406 82.570312 489.230469 88.464844 472.242188 88.464844 C 455.242188 88.464844 439.652344 82.570312 427.289062 72.789062 C 414.914062 96.179688 404.796875 124.65625 404.796875 155.414062 C 404.796875 176.992188 410.933594 218.871094 418.621094 257.433594 L 398.78125 270.785156 C 398.28125 271.125 397.894531 271.621094 397.683594 272.175781 L 379.003906 361.9375 C 378.605469 363 378.875 364.199219 379.6875 364.992188 C 380.230469 365.527344 380.960938 365.800781 381.6875 365.800781 C 382.050781 365.800781 382.410156 365.738281 382.75 365.609375 L 432.734375 316.832031 C 435.167969 325.046875 437.496094 331.65625 439.582031 335.925781 L 504.890625 335.925781 C 506.976562 331.65625 509.300781 325.039062 511.738281 316.820312 L 561.722656 365.609375 C 562.070312 365.738281 562.421875 365.800781 562.78125 365.800781 C 563.511719 365.800781 564.238281 365.527344 564.792969 364.992188 C 565.597656 364.199219 565.875 363 565.476562 361.9375 "/>
<path style=" stroke:none;fill-rule:nonzero;fill:rgb(6.269836%,34.899902%,50.588989%);fill-opacity:1;" d="M 494.609375 431.472656 C 494.296875 431.257812 493.871094 430.992188 493.578125 430.808594 C 492.347656 430.042969 491.105469 429.25 490.0625 428.105469 C 487.382812 434.238281 484.773438 440.832031 483.324219 447.339844 C 481.691406 454.699219 482.273438 460.683594 483.277344 467.605469 C 483.445312 468.167969 483.535156 468.777344 483.535156 469.386719 C 483.535156 473 480.628906 475.925781 477.03125 475.96875 L 476.882812 475.96875 C 473.847656 475.96875 471.132812 473.859375 470.460938 470.796875 C 468.992188 464.113281 465.714844 457.878906 462.238281 451.285156 C 458.609375 444.390625 454.84375 437.261719 452.925781 429.082031 C 452.546875 427.488281 452.378906 425.835938 452.277344 424.195312 C 451.539062 424.417969 450.65625 424.640625 449.539062 424.914062 C 448.761719 425.109375 447.542969 425.414062 446.84375 425.617188 C 445.035156 426.777344 442.671875 427.007812 440.566406 426.039062 C 437.273438 424.519531 435.832031 420.628906 437.328125 417.335938 C 437.835938 416.238281 438.175781 415.1875 438.390625 414.15625 C 437.53125 414.054688 436.699219 413.742188 435.933594 413.296875 C 435.648438 419.015625 435.316406 424.722656 434.855469 430.421875 C 432.824219 456.902344 429.042969 483.21875 423.21875 509.0625 C 411.597656 560.699219 391.574219 610.675781 361.21875 654.398438 C 331.050781 698.085938 290.214844 735.210938 241.570312 759.597656 C 217.300781 771.789062 191.203125 780.8125 164.125 786.050781 C 137.046875 791.179688 109.085938 793.242188 81.113281 789.914062 C 94.71875 793.457031 108.699219 795.863281 122.875 797.0625 C 137.078125 798.332031 151.324219 798.058594 165.601562 797.003906 C 194.128906 794.820312 222.523438 788.585938 249.765625 778.628906 C 304.34375 758.757812 353.773438 723.636719 392.71875 679.164062 C 431.882812 634.714844 460.730469 581.5 480.277344 525.613281 C 490.882812 495.371094 498.835938 464.234375 504.625 432.773438 C 503.839844 433.507812 502.871094 434.082031 501.753906 434.347656 C 498.921875 435.050781 496.078125 433.804688 494.609375 431.472656 "/>
<path style=" stroke:none;fill-rule:nonzero;fill:rgb(6.269836%,34.899902%,50.588989%);fill-opacity:1;" d="M 505.019531 414.402344 C 504.421875 416.894531 504.226562 418.839844 504.457031 420.203125 C 504.558594 420.785156 504.898438 421.632812 505.25 422.527344 C 505.527344 423.191406 505.804688 423.917969 506.074219 424.703125 C 507.871094 414.21875 509.441406 403.707031 510.769531 393.179688 C 510.003906 396.460938 509.0625 399.789062 508.054688 403.292969 C 507.042969 406.816406 505.988281 410.457031 505.019531 414.402344 "/>
</g>
</svg>
