<?xml version="1.0" encoding="UTF-8"?>
<svg xmlns="http://www.w3.org/2000/svg" xmlns:xlink="http://www.w3.org/1999/xlink" width="810pt" height="809.999993pt" viewBox="0 0 810 809.999993" version="1.2">
<defs>
<clipPath id="clip1">
  <path d="M 480.09375 601 L 539 601 L 539 660.691406 L 480.09375 660.691406 Z M 480.09375 601 "/>
</clipPath>
<clipPath id="clip2">
  <path d="M 600 480 L 659.902344 480 L 659.902344 540 L 600 540 Z M 600 480 "/>
</clipPath>
</defs>
<g id="surface1">
<path style=" stroke:none;fill-rule:nonzero;fill:rgb(90.19928%,49.409485%,13.328552%);fill-opacity:1;" d="M 488.300781 308.890625 C 479.296875 308.890625 471.953125 316.242188 471.953125 325.253906 C 471.953125 334.296875 479.296875 341.613281 488.300781 341.613281 C 497.335938 341.613281 504.644531 334.296875 504.644531 325.253906 C 504.644531 316.242188 497.335938 308.890625 488.300781 308.890625 "/>
<path style=" stroke:none;fill-rule:nonzero;fill:rgb(90.19928%,49.409485%,13.328552%);fill-opacity:1;" d="M 251.980469 525.679688 L 243.363281 517.050781 L 209.96875 544.886719 C 202.113281 551.4375 196.878906 560.414062 194.929688 570.257812 C 204.378906 568.949219 213.097656 564.601562 219.992188 557.730469 L 251.980469 525.679688 "/>
<path style=" stroke:none;fill-rule:nonzero;fill:rgb(90.19928%,49.409485%,13.328552%);fill-opacity:1;" d="M 364.839844 615.285156 C 380.613281 605.761719 410.367188 580.164062 419.882812 520.34375 C 395.425781 538.140625 369.085938 553.417969 341.566406 565.847656 C 354.144531 579.71875 362.285156 596.878906 364.839844 615.285156 "/>
<path style=" stroke:none;fill-rule:nonzero;fill:rgb(90.19928%,49.409485%,13.328552%);fill-opacity:1;" d="M 252.589844 503.152344 L 310.566406 561.183594 C 316.761719 558.851562 322.890625 556.292969 328.957031 553.640625 L 260.125 484.742188 C 257.503906 490.816406 254.953125 496.953125 252.589844 503.152344 "/>
<path style=" stroke:none;fill-rule:nonzero;fill:rgb(90.19928%,49.409485%,13.328552%);fill-opacity:1;" d="M 256.070312 593.839844 C 249.171875 600.710938 244.863281 609.46875 243.554688 618.925781 C 253.386719 616.976562 262.328125 611.738281 268.871094 603.84375 L 296.710938 570.449219 L 288.058594 561.789062 L 256.070312 593.839844 "/>
<path style=" stroke:none;fill-rule:nonzero;fill:rgb(90.19928%,49.409485%,13.328552%);fill-opacity:1;" d="M 276.5 550.222656 L 263.539062 537.246094 L 231.550781 569.300781 L 184.492188 616.371094 C 177.019531 623.878906 172.136719 633.308594 170.347656 643.53125 C 180.5625 641.710938 189.980469 636.855469 197.453125 629.34375 L 244.511719 582.273438 L 276.5 550.222656 "/>
<path style=" stroke:none;fill-rule:nonzero;fill:rgb(90.19928%,49.409485%,13.328552%);fill-opacity:1;" d="M 198.570312 448.859375 C 216.960938 451.382812 234.105469 459.5625 247.925781 472.121094 C 260.378906 444.574219 275.609375 418.242188 293.421875 393.765625 C 233.6875 403.257812 208.082031 433.039062 198.570312 448.859375 "/>
<path style=" stroke:none;fill-rule:nonzero;fill:rgb(90.19928%,49.409485%,13.328552%);fill-opacity:1;" d="M 309.289062 460.328125 L 285.089844 436.105469 C 278.734375 446.8125 272.863281 457.742188 267.433594 468.925781 L 344.757812 546.324219 C 355.933594 540.921875 366.882812 535.011719 377.546875 528.652344 L 353.378906 504.429688 L 318.101562 495.609375 L 309.289062 460.328125 "/>
<path style=" stroke:none;fill-rule:nonzero;fill:rgb(90.19928%,49.409485%,13.328552%);fill-opacity:1;" d="M 422.914062 325.253906 C 422.914062 289.175781 452.253906 259.804688 488.300781 259.804688 C 524.375 259.804688 553.683594 289.175781 553.683594 325.253906 C 553.683594 361.332031 524.375 390.699219 488.300781 390.699219 C 452.253906 390.699219 422.914062 361.332031 422.914062 325.253906 Z M 452.636719 448.953125 L 441.082031 437.386719 L 452.636719 425.816406 L 464.195312 437.386719 Z M 428.46875 471.800781 L 417.742188 459.46875 C 421.765625 455.953125 425.722656 452.371094 429.585938 448.699219 L 440.824219 460.585938 C 436.769531 464.386719 432.652344 468.160156 428.46875 471.800781 Z M 402.449219 492.667969 L 392.746094 479.503906 C 397.054688 476.339844 401.269531 473.082031 405.449219 469.726562 L 415.667969 482.507812 C 411.324219 485.992188 406.917969 489.378906 402.449219 492.667969 Z M 372.34375 376.445312 C 366.117188 382.707031 359.957031 389.292969 354.082031 396.066406 L 341.757812 385.328125 C 347.886719 378.265625 354.304688 371.398438 360.785156 364.878906 L 400.789062 324.835938 L 412.347656 336.40625 Z M 334.796875 420.128906 L 321.675781 410.382812 C 325.859375 404.695312 330.199219 399.132812 334.703125 393.667969 L 347.3125 404.085938 C 343.003906 409.296875 338.851562 414.664062 334.796875 420.128906 Z M 609.011719 276.550781 C 575.96875 264.152344 549.375 237.535156 536.984375 204.425781 C 490.375 225.453125 447.5625 254.917969 411.390625 291.125 L 349.230469 353.308594 C 328.507812 374.050781 309.960938 397.121094 293.902344 421.789062 L 318.101562 446.011719 L 391.660156 405.109375 L 408.546875 422.015625 L 367.683594 495.640625 L 391.851562 519.832031 C 416.527344 503.757812 439.546875 485.191406 460.269531 464.453125 L 522.429688 402.265625 C 558.601562 366.058594 588.003906 323.207031 609.011719 276.550781 "/>
<path style=" stroke:none;fill-rule:nonzero;fill:rgb(90.19928%,49.409485%,13.328552%);fill-opacity:1;" d="M 387.570312 426.074219 L 326.113281 460.265625 L 331.574219 482.125 L 353.441406 487.589844 L 387.570312 426.074219 "/>
<path style=" stroke:none;fill-rule:nonzero;fill:rgb(90.19928%,49.409485%,13.328552%);fill-opacity:1;" d="M 488.300781 357.976562 C 470.292969 357.976562 455.605469 343.308594 455.605469 325.253906 C 455.605469 307.230469 470.292969 292.53125 488.300781 292.53125 C 506.335938 292.53125 520.992188 307.230469 520.992188 325.253906 C 520.992188 343.308594 506.335938 357.976562 488.300781 357.976562 Z M 488.300781 276.167969 C 461.257812 276.167969 439.261719 298.1875 439.261719 325.253906 C 439.261719 352.320312 461.257812 374.335938 488.300781 374.335938 C 515.339844 374.335938 537.335938 352.320312 537.335938 325.253906 C 537.335938 298.1875 515.339844 276.167969 488.300781 276.167969 "/>
<path style=" stroke:none;fill-rule:nonzero;fill:rgb(90.19928%,49.409485%,13.328552%);fill-opacity:1;" d="M 602.722656 202.542969 C 607.253906 202.542969 610.894531 206.214844 610.894531 210.722656 C 610.894531 215.261719 607.253906 218.902344 602.722656 218.902344 C 598.21875 218.902344 594.550781 215.261719 594.550781 210.722656 C 594.550781 206.214844 598.21875 202.542969 602.722656 202.542969 Z M 615.398438 261.277344 C 619.515625 251.113281 623.378906 240.824219 626.699219 230.375 L 643.332031 177.617188 C 643.492188 177.039062 643.585938 176.433594 643.585938 175.828125 C 643.585938 171.894531 639.566406 168.925781 635.796875 170.105469 L 583.121094 186.753906 C 572.648438 190.046875 562.398438 193.914062 552.246094 198.035156 C 562.941406 227.210938 586.28125 250.570312 615.398438 261.277344 "/>
<g clip-path="url(#clip1)" clip-rule="nonzero">
<path style=" stroke:none;fill-rule:nonzero;fill:rgb(90.19928%,49.409485%,13.328552%);fill-opacity:1;" d="M 522.523438 637.046875 C 506.878906 645.066406 498.738281 645.035156 497.269531 643.53125 C 496.183594 642.445312 495.035156 635.160156 503.78125 618.191406 C 500.046875 612.984375 496.855469 607.421875 494.429688 601.480469 C 479.199219 626.914062 476.070312 645.480469 485.714844 655.101562 C 489.449219 658.839844 494.398438 660.691406 500.589844 660.691406 C 509.402344 660.691406 520.703125 656.921875 534.335938 649.316406 C 535.710938 648.550781 537.179688 647.589844 538.582031 646.761719 L 530.1875 642.0625 C 527.503906 640.527344 524.980469 638.804688 522.523438 637.046875 "/>
</g>
<g clip-path="url(#clip2)" clip-rule="nonzero">
<path style=" stroke:none;fill-rule:nonzero;fill:rgb(90.19928%,49.409485%,13.328552%);fill-opacity:1;" d="M 654.378906 486.246094 C 644.769531 476.628906 626.25 479.757812 600.804688 495 C 606.746094 497.429688 612.300781 500.59375 617.503906 504.332031 C 634.457031 495.609375 641.734375 496.726562 642.820312 497.8125 C 644.320312 499.316406 644.355469 507.433594 636.339844 523.125 C 638.097656 525.582031 639.820312 528.109375 641.351562 530.792969 L 646.046875 539.195312 C 646.875 537.789062 647.832031 536.320312 648.601562 534.945312 C 661.496094 511.714844 663.445312 495.320312 654.378906 486.246094 "/>
</g>
<path style=" stroke:none;fill-rule:nonzero;fill:rgb(90.19928%,49.409485%,13.328552%);fill-opacity:1;" d="M 570.03125 521.589844 L 570.03125 537.949219 C 552.023438 537.949219 537.335938 552.648438 537.335938 570.671875 L 520.992188 570.671875 C 520.992188 543.605469 542.988281 521.589844 570.03125 521.589844 Z M 538.199219 627.777344 C 553.652344 617.550781 570.476562 603.621094 586.695312 587.355469 C 602.945312 571.121094 616.867188 554.28125 627.082031 538.78125 C 615.875 518.808594 594.515625 505.226562 570.03125 505.226562 C 533.984375 505.226562 504.644531 534.59375 504.644531 570.671875 C 504.644531 595.183594 518.214844 616.5625 538.199219 627.777344 "/>
<path style=" stroke:none;fill-rule:nonzero;fill:rgb(90.19928%,49.409485%,13.328552%);fill-opacity:1;" d="M 598.253906 598.921875 C 584.554688 612.632812 570.382812 624.871094 556.8125 634.777344 C 561.089844 635.671875 565.496094 636.117188 570.03125 636.117188 C 606.105469 636.117188 635.414062 606.75 635.414062 570.671875 C 635.414062 566.136719 634.96875 561.695312 634.074219 557.410156 C 624.175781 571.023438 611.980469 585.214844 598.253906 598.921875 "/>
<path style=" stroke:none;fill-rule:nonzero;fill:rgb(90.19928%,49.409485%,13.328552%);fill-opacity:1;" d="M 176.828125 195.894531 C 168.816406 180.203125 168.847656 172.085938 170.347656 170.585938 C 171.433594 169.5 178.679688 168.378906 195.632812 177.105469 C 200.835938 173.367188 206.421875 170.203125 212.363281 167.773438 C 186.917969 152.53125 168.398438 149.398438 158.789062 159.019531 C 149.722656 168.09375 151.636719 184.488281 164.535156 207.71875 C 165.304688 209.09375 166.292969 210.5625 167.121094 211.96875 L 171.816406 203.5625 C 173.316406 200.878906 175.039062 198.355469 176.828125 195.894531 "/>
<path style=" stroke:none;fill-rule:nonzero;fill:rgb(90.19928%,49.409485%,13.328552%);fill-opacity:1;" d="M 315.898438 316.304688 C 314.398438 317.804688 306.289062 317.839844 290.644531 309.816406 C 288.1875 311.574219 285.664062 313.300781 282.980469 314.835938 L 274.585938 319.53125 C 275.992188 320.363281 277.460938 321.320312 278.832031 322.089844 C 292.464844 329.695312 303.734375 333.496094 312.578125 333.496094 C 318.738281 333.496094 323.71875 331.613281 327.457031 327.871094 C 337.066406 318.253906 333.96875 299.6875 318.738281 274.25 C 316.3125 280.195312 313.121094 285.753906 309.386719 290.964844 C 318.101562 307.933594 316.984375 315.21875 315.898438 316.304688 "/>
<path style=" stroke:none;fill-rule:nonzero;fill:rgb(90.19928%,49.409485%,13.328552%);fill-opacity:1;" d="M 256.355469 307.546875 C 242.753906 297.640625 228.582031 285.402344 214.882812 271.695312 C 201.1875 257.984375 188.992188 243.796875 179.09375 230.183594 C 178.199219 234.464844 177.722656 238.90625 177.722656 243.445312 C 177.722656 279.523438 207.0625 308.890625 243.105469 308.890625 C 247.640625 308.890625 252.078125 308.445312 256.355469 307.546875 "/>
<path style=" stroke:none;fill-rule:nonzero;fill:rgb(90.19928%,49.409485%,13.328552%);fill-opacity:1;" d="M 243.105469 194.359375 C 270.148438 194.359375 292.144531 216.378906 292.144531 243.445312 L 275.800781 243.445312 C 275.800781 225.421875 261.144531 210.722656 243.105469 210.722656 Z M 186.085938 211.554688 C 196.269531 227.050781 210.222656 243.890625 226.441406 260.125 C 242.691406 276.390625 259.515625 290.324219 274.96875 300.550781 C 294.953125 289.332031 308.492188 267.957031 308.492188 243.445312 C 308.492188 207.367188 279.183594 178 243.105469 178 C 218.621094 178 197.261719 191.582031 186.085938 211.554688 "/>
</g>
</svg>
