<?xml version="1.0" encoding="UTF-8"?>
<svg xmlns="http://www.w3.org/2000/svg" xmlns:xlink="http://www.w3.org/1999/xlink" width="810pt" height="809.999993pt" viewBox="0 0 810 809.999993" version="1.2">
<defs>
<clipPath id="clip1">
  <path d="M 56.210938 42.621094 L 753.710938 42.621094 L 753.710938 709.371094 L 56.210938 709.371094 Z M 56.210938 42.621094 "/>
</clipPath>
</defs>
<g id="surface1">
<g clip-path="url(#clip1)" clip-rule="nonzero">
<path style=" stroke:none;fill-rule:nonzero;fill:rgb(6.269836%,34.899902%,50.588989%);fill-opacity:1;" d="M 404.960938 42.621094 C 388.203125 42.621094 374.640625 56.175781 374.640625 72.925781 C 374.640625 83.761719 380.445312 93.703125 389.800781 99.089844 L 389.800781 181.191406 C 371.386719 186.046875 356.226562 199.1875 349.003906 216.53125 C 297.960938 209.425781 246.859375 201.375 195.402344 194.390625 C 194.691406 194.273438 193.980469 194.15625 193.269531 194.15625 C 186.636719 193.917969 180.597656 198.0625 178.40625 204.335938 L 57.136719 552.863281 C 56.601562 554.460938 56.308594 556.121094 56.308594 557.835938 C 56.308594 585.539062 74.128906 609.039062 99.058594 624.546875 C 124.046875 639.996094 156.851562 648.757812 192.738281 648.757812 C 228.621094 648.757812 261.425781 639.996094 286.355469 624.546875 C 311.34375 609.039062 329.164062 585.539062 329.164062 557.835938 C 329.164062 556.121094 328.871094 554.460938 328.335938 552.863281 L 215.238281 227.835938 C 258.34375 233.992188 301.632812 240.503906 345.035156 246.539062 C 348.589844 276.609375 374.050781 300.230469 404.960938 300.230469 C 430.125 300.230469 451.796875 284.660156 460.917969 262.699219 C 506.039062 268.976562 551.335938 275.898438 596.8125 282.292969 L 481.582031 613.476562 C 481.050781 615.078125 480.753906 616.734375 480.753906 618.449219 C 480.753906 646.152344 498.578125 669.652344 523.566406 685.160156 C 548.496094 700.609375 581.300781 709.371094 617.183594 709.371094 C 653.066406 709.371094 685.871094 700.609375 710.800781 685.160156 C 735.789062 669.652344 753.613281 646.152344 753.613281 618.449219 C 753.613281 616.734375 753.316406 615.078125 752.785156 613.476562 L 631.511719 264.949219 C 629.558594 259.386719 624.585938 255.480469 618.78125 254.828125 C 567.679688 247.960938 516.402344 239.851562 464.882812 232.6875 C 461.984375 207.769531 443.921875 187.40625 420.117188 181.191406 L 420.117188 99.148438 C 429.472656 93.761719 435.277344 83.761719 435.277344 72.925781 C 435.277344 56.175781 421.71875 42.621094 404.960938 42.621094 Z M 404.960938 209.308594 C 421.894531 209.308594 435.277344 222.6875 435.277344 239.613281 C 435.277344 256.542969 421.894531 269.921875 404.960938 269.921875 C 388.023438 269.921875 374.640625 256.542969 374.640625 239.613281 C 374.640625 222.6875 388.023438 209.308594 404.960938 209.308594 Z M 192.738281 255.480469 L 292.691406 542.683594 L 92.78125 542.683594 Z M 617.183594 316.09375 L 717.136719 603.296875 L 517.230469 603.296875 Z M 617.183594 316.09375 "/>
</g>
</g>
</svg>
