<?xml version="1.0" encoding="UTF-8"?>
<svg xmlns="http://www.w3.org/2000/svg" xmlns:xlink="http://www.w3.org/1999/xlink" width="810pt" height="809.999993pt" viewBox="0 0 810 809.999993" version="1.2">
<defs>
<clipPath id="clip1">
  <path d="M 30 209 L 780 209 L 780 608.355469 L 30 608.355469 Z M 30 209 "/>
</clipPath>
</defs>
<g id="surface1">
<g clip-path="url(#clip1)" clip-rule="nonzero">
<path style=" stroke:none;fill-rule:nonzero;fill:rgb(6.269836%,34.899902%,50.588989%);fill-opacity:1;" d="M 525.425781 555.535156 C 567.800781 520.664062 594.875 467.828125 594.875 408.777344 C 594.875 353.132812 570.84375 303.007812 532.625 268.222656 C 602.292969 294.714844 671.464844 341.96875 739.503906 409.703125 C 713.585938 439.152344 635.859375 518.824219 525.425781 555.535156 Z M 70.59375 407.84375 C 96.5 378.402344 174.226562 298.722656 284.683594 262.003906 C 242.304688 296.871094 215.222656 349.71875 215.222656 408.777344 C 215.222656 464.410156 239.253906 514.546875 277.472656 549.320312 C 207.804688 522.839844 138.640625 475.574219 70.59375 407.84375 Z M 405.042969 564.953125 C 318.992188 564.953125 248.980469 494.890625 248.980469 408.777344 C 248.980469 322.65625 318.992188 252.59375 405.042969 252.59375 C 491.105469 252.59375 561.117188 322.65625 561.117188 408.777344 C 561.117188 494.890625 491.105469 564.953125 405.042969 564.953125 Z M 776.570312 417.8125 L 776.839844 417.386719 C 777.027344 417.050781 777.21875 416.707031 777.390625 416.363281 L 777.640625 415.859375 C 777.78125 415.542969 777.925781 415.21875 778.050781 414.886719 L 778.277344 414.273438 C 778.375 413.976562 778.476562 413.671875 778.5625 413.367188 C 778.632812 413.128906 778.6875 412.898438 778.746094 412.671875 C 778.8125 412.375 778.871094 412.089844 778.925781 411.792969 C 778.964844 411.542969 779.003906 411.296875 779.039062 411.046875 C 779.078125 410.761719 779.109375 410.476562 779.136719 410.191406 C 779.15625 409.941406 779.175781 409.683594 779.183594 409.4375 C 779.195312 409.140625 779.195312 408.855469 779.195312 408.566406 C 779.183594 408.320312 779.183594 408.070312 779.164062 407.824219 C 779.144531 407.527344 779.125 407.230469 779.089844 406.9375 C 779.070312 406.695312 779.039062 406.46875 779.003906 406.230469 C 778.957031 405.925781 778.898438 405.628906 778.839844 405.324219 C 778.792969 405.09375 778.734375 404.875 778.679688 404.644531 C 778.601562 404.351562 778.527344 404.042969 778.429688 403.75 C 778.363281 403.527344 778.289062 403.308594 778.210938 403.089844 C 778.105469 402.804688 777.992188 402.507812 777.878906 402.230469 C 777.78125 402.003906 777.675781 401.78125 777.574219 401.5625 C 777.449219 401.296875 777.316406 401.027344 777.179688 400.769531 C 777.046875 400.53125 776.925781 400.304688 776.78125 400.074219 C 776.636719 399.835938 776.484375 399.597656 776.332031 399.367188 C 776.171875 399.128906 776.007812 398.902344 775.835938 398.671875 L 775.332031 398.023438 L 774.769531 397.382812 L 774.425781 396.992188 C 646.035156 264.894531 512.4375 201.902344 376.953125 209.871094 C 171.996094 221.886719 39.894531 391.285156 34.382812 398.492188 L 34.222656 398.71875 C 33.972656 399.0625 33.734375 399.40625 33.507812 399.757812 L 33.277344 400.132812 C 33.070312 400.484375 32.867188 400.847656 32.6875 401.210938 L 32.476562 401.640625 C 32.316406 401.992188 32.164062 402.347656 32.027344 402.699219 L 31.839844 403.214844 C 31.722656 403.546875 31.617188 403.890625 31.523438 404.234375 L 31.371094 404.816406 C 31.292969 405.152344 31.21875 405.476562 31.160156 405.808594 L 31.066406 406.441406 C 31.019531 406.765625 30.980469 407.089844 30.960938 407.414062 L 30.921875 408.050781 C 30.902344 408.386719 30.902344 408.710938 30.902344 409.042969 L 30.921875 409.65625 C 30.941406 410 30.96875 410.332031 31.007812 410.675781 L 31.085938 411.25 C 31.132812 411.601562 31.199219 411.945312 31.277344 412.289062 L 31.398438 412.832031 C 31.484375 413.175781 31.582031 413.519531 31.6875 413.855469 L 31.867188 414.398438 C 31.980469 414.722656 32.105469 415.046875 32.25 415.371094 L 32.496094 415.925781 C 32.628906 416.230469 32.78125 416.535156 32.945312 416.832031 L 33.277344 417.414062 C 33.441406 417.691406 33.613281 417.957031 33.792969 418.214844 L 34.230469 418.835938 C 34.414062 419.074219 34.59375 419.3125 34.785156 419.550781 L 35.308594 420.144531 L 35.671875 420.554688 C 156.871094 545.257812 282.824219 608.34375 410.402344 608.34375 C 417.972656 608.34375 425.554688 608.132812 433.144531 607.683594 C 638.101562 595.660156 770.191406 426.257812 775.714844 419.054688 L 775.894531 418.796875 C 776.132812 418.480469 776.363281 418.148438 776.570312 417.8125 "/>
</g>
<path style=" stroke:none;fill-rule:nonzero;fill:rgb(6.269836%,34.899902%,50.588989%);fill-opacity:1;" d="M 405.042969 483.230469 C 364.03125 483.230469 330.65625 449.820312 330.65625 408.777344 C 330.65625 367.726562 364.03125 334.316406 405.042969 334.316406 C 446.078125 334.316406 479.441406 367.726562 479.441406 408.777344 C 479.441406 449.820312 446.078125 483.230469 405.042969 483.230469 Z M 405.042969 300.546875 C 345.417969 300.546875 296.886719 349.089844 296.886719 408.777344 C 296.886719 468.457031 345.417969 517.011719 405.042969 517.011719 C 464.679688 517.011719 513.199219 468.457031 513.199219 408.777344 C 513.199219 349.089844 464.679688 300.546875 405.042969 300.546875 "/>
</g>
</svg>
