<svg width="234" height="234" viewBox="0 0 234 234" fill="none" xmlns="http://www.w3.org/2000/svg">
<path d="M112.25 3.31976C115.189 1.62275 118.811 1.62275 121.75 3.31976L213.075 56.0463C216.014 57.7433 217.825 60.8795 217.825 64.2735V169.726C217.825 173.121 216.014 176.257 213.075 177.954L121.75 230.68C118.811 232.377 115.189 232.377 112.25 230.68L20.925 177.954C17.9857 176.257 16.175 173.121 16.175 169.727V64.2735C16.175 60.8795 17.9857 57.7433 20.925 56.0463L112.25 3.31976Z" fill="white" stroke="#E8EAEF"/>
<path d="M112.25 16.3198C115.189 14.6227 118.811 14.6228 121.75 16.3198L201.817 62.5463C204.756 64.2433 206.567 67.3795 206.567 70.7735V163.227C206.567 166.621 204.756 169.757 201.817 171.454L121.75 217.68C118.811 219.377 115.189 219.377 112.25 217.68L32.1834 171.454C29.244 169.757 27.4334 166.621 27.4334 163.227V70.7735C27.4334 67.3795 29.244 64.2433 32.1834 62.5463L112.25 16.3198Z" fill="white" stroke="#7BE8FF"/>
<rect x="22" y="83" width="10" height="68" fill="white"/>
<rect x="202" y="82" width="10" height="68" fill="white"/>
<rect x="191.418" y="171.278" width="10" height="68.87" transform="rotate(60 191.418 171.278)" fill="white"/>
<rect x="98.8904" y="203.959" width="10" height="61.9026" transform="rotate(120 98.8904 203.959)" fill="white"/>
<rect x="197.267" y="51.6404" width="10" height="69.8366" transform="rotate(120 197.267 51.6404)" fill="white"/>
<rect x="94.8418" y="19.3289" width="10" height="61.0164" transform="rotate(60 94.8418 19.3289)" fill="white"/>
<path d="M55.6951 128.2C57.1831 128.2 58.4711 128.448 59.5591 128.944C60.6631 129.44 61.5111 130.144 62.1031 131.056C62.6951 131.968 62.9911 133.048 62.9911 134.296C62.9911 135.528 62.6951 136.608 62.1031 137.536C61.5111 138.448 60.6631 139.152 59.5591 139.648C58.4711 140.128 57.1831 140.368 55.6951 140.368H52.3111V145H48.4231V128.2H55.6951ZM55.4791 137.2C56.6471 137.2 57.5351 136.952 58.1431 136.456C58.7511 135.944 59.0551 135.224 59.0551 134.296C59.0551 133.352 58.7511 132.632 58.1431 132.136C57.5351 131.624 56.6471 131.368 55.4791 131.368H52.3111V137.2H55.4791ZM79.4671 141.4H71.6671L70.1791 145H66.1951L73.6831 128.2H77.5231L85.0351 145H80.9551L79.4671 141.4ZM78.2431 138.448L75.5791 132.016L72.9151 138.448H78.2431ZM100.962 145L97.7221 140.32H97.5301H94.1461V145H90.2581V128.2H97.5301C99.0181 128.2 100.306 128.448 101.394 128.944C102.498 129.44 103.346 130.144 103.938 131.056C104.53 131.968 104.826 133.048 104.826 134.296C104.826 135.544 104.522 136.624 103.914 137.536C103.322 138.432 102.474 139.12 101.37 139.6L105.138 145H100.962ZM100.89 134.296C100.89 133.352 100.586 132.632 99.9781 132.136C99.3701 131.624 98.4821 131.368 97.3141 131.368H94.1461V137.224H97.3141C98.4821 137.224 99.3701 136.968 99.9781 136.456C100.586 135.944 100.89 135.224 100.89 134.296ZM114.632 131.368H109.256V128.2H123.896V131.368H118.52V145H114.632V131.368ZM144.876 128.2V145H141.684L133.308 134.8V145H129.468V128.2H132.684L141.036 138.4V128.2H144.876ZM165.339 141.88V145H152.331V128.2H165.027V131.32H156.195V134.968H163.995V137.992H156.195V141.88H165.339ZM182.616 145L179.376 140.32H179.184H175.8V145H171.912V128.2H179.184C180.672 128.2 181.96 128.448 183.048 128.944C184.152 129.44 185 130.144 185.592 131.056C186.184 131.968 186.48 133.048 186.48 134.296C186.48 135.544 186.176 136.624 185.568 137.536C184.976 138.432 184.128 139.12 183.024 139.6L186.792 145H182.616ZM182.544 134.296C182.544 133.352 182.24 132.632 181.632 132.136C181.024 131.624 180.136 131.368 178.968 131.368H175.8V137.224H178.968C180.136 137.224 181.024 136.968 181.632 136.456C182.24 135.944 182.544 135.224 182.544 134.296Z" fill="url(#paint0_linear)"/>
<path d="M58.3596 165.24C56.9329 165.24 55.6396 164.933 54.4796 164.32C53.3329 163.693 52.4263 162.833 51.7596 161.74C51.1063 160.633 50.7796 159.387 50.7796 158C50.7796 156.613 51.1063 155.373 51.7596 154.28C52.4263 153.173 53.3329 152.313 54.4796 151.7C55.6396 151.073 56.9396 150.76 58.3796 150.76C59.5929 150.76 60.6863 150.973 61.6596 151.4C62.6463 151.827 63.4729 152.44 64.1396 153.24L62.0596 155.16C61.1129 154.067 59.9396 153.52 58.5396 153.52C57.6729 153.52 56.8996 153.713 56.2196 154.1C55.5396 154.473 55.0063 155 54.6196 155.68C54.2463 156.36 54.0596 157.133 54.0596 158C54.0596 158.867 54.2463 159.64 54.6196 160.32C55.0063 161 55.5396 161.533 56.2196 161.92C56.8996 162.293 57.6729 162.48 58.5396 162.48C59.9396 162.48 61.1129 161.927 62.0596 160.82L64.1396 162.74C63.4729 163.553 62.6463 164.173 61.6596 164.6C60.6729 165.027 59.5729 165.24 58.3596 165.24ZM80.0676 162.4V165H69.2276V151H79.8076V153.6H72.4476V156.64H78.9476V159.16H72.4476V162.4H80.0676ZM94.4655 165L91.7655 161.1H91.6055H88.7855V165H85.5455V151H91.6055C92.8455 151 93.9189 151.207 94.8255 151.62C95.7455 152.033 96.4522 152.62 96.9455 153.38C97.4389 154.14 97.6855 155.04 97.6855 156.08C97.6855 157.12 97.4322 158.02 96.9255 158.78C96.4322 159.527 95.7255 160.1 94.8055 160.5L97.9455 165H94.4655ZM94.4055 156.08C94.4055 155.293 94.1522 154.693 93.6455 154.28C93.1389 153.853 92.3989 153.64 91.4255 153.64H88.7855V158.52H91.4255C92.3989 158.52 93.1389 158.307 93.6455 157.88C94.1522 157.453 94.4055 156.853 94.4055 156.08ZM105.857 153.64H101.377V151H113.577V153.64H109.097V165H105.857V153.64ZM118.221 151H121.461V165H118.221V151ZM130.923 153.6V157.3H137.403V159.9H130.923V165H127.683V151H138.263V153.6H130.923ZM143.356 151H146.596V165H143.356V151ZM163.659 162.4V165H152.819V151H163.399V153.6H156.039V156.64H162.539V159.16H156.039V162.4H163.659ZM169.137 151H175.497C177.017 151 178.357 151.293 179.517 151.88C180.69 152.453 181.597 153.267 182.237 154.32C182.89 155.373 183.217 156.6 183.217 158C183.217 159.4 182.89 160.627 182.237 161.68C181.597 162.733 180.69 163.553 179.517 164.14C178.357 164.713 177.017 165 175.497 165H169.137V151ZM175.337 162.34C176.737 162.34 177.85 161.953 178.677 161.18C179.517 160.393 179.937 159.333 179.937 158C179.937 156.667 179.517 155.613 178.677 154.84C177.85 154.053 176.737 153.66 175.337 153.66H172.377V162.34H175.337Z" fill="url(#paint1_linear)"/>
<path d="M137.09 28.9362C136.49 28.5895 136.023 28.1434 135.692 27.5978C135.366 27.0556 135.199 26.4706 135.192 25.843C135.194 25.2129 135.364 24.6063 135.7 24.0231C136.037 23.44 136.476 22.993 137.017 22.682C137.568 22.3685 138.162 22.219 138.801 22.2335C139.439 22.2479 140.058 22.4284 140.659 22.7751C141.109 23.0351 141.481 23.3501 141.776 23.7203C142.07 24.0904 142.267 24.4964 142.366 24.9384L141.724 25.1105C141.527 24.3579 141.068 23.7733 140.346 23.3567C139.867 23.08 139.368 22.938 138.848 22.9308C138.329 22.9235 137.847 23.0454 137.402 23.2964C136.962 23.5508 136.606 23.9147 136.333 24.3881C136.059 24.8616 135.922 25.3521 135.922 25.8599C135.927 26.3709 136.062 26.8495 136.328 27.2955C136.594 27.7416 136.967 28.1029 137.446 28.3796C138.173 28.7996 138.911 28.9021 139.659 28.6872L139.831 29.3292C139.398 29.4645 138.944 29.4985 138.467 29.431C137.999 29.3611 137.54 29.1962 137.09 28.9362ZM146.618 33.6287L146.298 34.183L142.011 31.708L145.511 25.6458L149.668 28.0458L149.348 28.6001L145.832 26.5701L144.587 28.7265L147.722 30.5365L147.407 31.0821L144.272 29.2721L142.972 31.5237L146.618 33.6287ZM153.243 38.1927L152.982 35.4441C152.816 35.3715 152.65 35.2868 152.482 35.1901L150.854 34.2501L149.744 36.1727L149.103 35.8027L152.603 29.7405L154.872 31.0505C155.646 31.4972 156.145 32.0319 156.371 32.6548C156.596 33.2776 156.522 33.9124 156.149 34.559C155.876 35.0324 155.523 35.3637 155.09 35.5528C154.667 35.7394 154.191 35.7766 153.663 35.6642L153.944 38.5977L153.243 38.1927ZM152.78 34.6345C153.38 34.9812 153.916 35.1134 154.387 35.0312C154.858 34.9489 155.231 34.6682 155.508 34.189C155.791 33.6982 155.849 33.2313 155.682 32.7882C155.518 32.3392 155.135 31.9415 154.535 31.5948L152.924 30.6648L151.169 33.7045L152.78 34.6345ZM160.934 35.2892L158.803 34.0592L159.123 33.505L164.025 36.335L163.705 36.8892L161.575 35.6592L158.395 41.1672L157.754 40.7972L160.934 35.2892ZM166.348 37.6761L166.989 38.0461L163.489 44.1083L162.848 43.7383L166.348 37.6761ZM170.581 40.8591L169.206 43.2407L172.341 45.0507L172.021 45.6049L168.886 43.7949L167.401 46.367L166.76 45.997L170.26 39.9349L174.417 42.3349L174.097 42.8891L170.581 40.8591ZM177.04 43.8489L177.68 44.2189L174.18 50.2811L173.54 49.9111L177.04 43.8489ZM182.059 54.0906L181.739 54.6449L177.452 52.1699L180.952 46.1077L185.109 48.5077L184.789 49.062L181.273 47.032L180.028 49.1884L183.163 50.9984L182.848 51.544L179.713 49.734L178.413 51.9856L182.059 54.0906ZM188.044 50.2024L190.512 51.6274C191.153 51.9974 191.644 52.454 191.985 52.9972C192.329 53.5345 192.503 54.1125 192.508 54.731C192.516 55.3438 192.35 55.9446 192.01 56.5335C191.67 57.1224 191.231 57.5695 190.693 57.8747C190.158 58.1741 189.571 58.3121 188.93 58.2886C188.292 58.2593 187.653 58.0596 187.012 57.6896L184.544 56.2646L188.044 50.2024ZM187.298 57.1154C187.829 57.422 188.354 57.5864 188.872 57.6086C189.394 57.625 189.871 57.5117 190.304 57.2689C190.74 57.0203 191.098 56.6535 191.378 56.1685C191.658 55.6836 191.795 55.193 191.789 54.6968C191.786 54.1949 191.645 53.725 191.367 53.2871C191.092 52.8435 190.689 52.4684 190.158 52.1617L188.365 51.1267L185.505 56.0804L187.298 57.1154Z" fill="url(#paint2_linear)"/>
<path d="M202.94 87.18C202.94 86.4867 203.093 85.86 203.4 85.3C203.707 84.7467 204.13 84.31 204.67 83.99C205.217 83.6767 205.827 83.52 206.5 83.52C207.173 83.52 207.78 83.6767 208.32 83.99C208.867 84.31 209.293 84.75 209.6 85.31C209.907 85.87 210.06 86.4967 210.06 87.19C210.06 87.71 209.973 88.19 209.8 88.63C209.627 89.07 209.373 89.4433 209.04 89.75L208.57 89.28C209.123 88.7333 209.4 88.0433 209.4 87.21C209.4 86.6567 209.273 86.1533 209.02 85.7C208.767 85.2467 208.42 84.89 207.98 84.63C207.54 84.3767 207.047 84.25 206.5 84.25C205.953 84.25 205.46 84.3767 205.02 84.63C204.58 84.89 204.233 85.2467 203.98 85.7C203.727 86.1533 203.6 86.6567 203.6 87.21C203.6 88.05 203.88 88.74 204.44 89.28L203.97 89.75C203.637 89.4433 203.38 89.0667 203.2 88.62C203.027 88.18 202.94 87.7 202.94 87.18ZM203.64 97.7775L203 97.7775L203 92.8275L210 92.8275L210 97.6275L209.36 97.6275L209.36 93.5675L206.87 93.5675L206.87 97.1875L206.24 97.1875L206.24 93.5675L203.64 93.5675L203.64 97.7775ZM203 105.797L205.25 104.197C205.23 104.017 205.22 103.83 205.22 103.637L205.22 101.757L203 101.757L203 101.017L210 101.017L210 103.637C210 104.53 209.787 105.23 209.36 105.737C208.933 106.244 208.347 106.497 207.6 106.497C207.053 106.497 206.59 106.357 206.21 106.077C205.837 105.804 205.567 105.41 205.4 104.897L203 106.607L203 105.797ZM205.85 103.617C205.85 104.31 206.003 104.84 206.31 105.207C206.617 105.574 207.047 105.757 207.6 105.757C208.167 105.757 208.6 105.574 208.9 105.207C209.207 104.84 209.36 104.31 209.36 103.617L209.36 101.757L205.85 101.757L205.85 103.617ZM209.36 111.006L209.36 108.546L210 108.546L210 114.206L209.36 114.206L209.36 111.746L203 111.746L203 111.006L209.36 111.006ZM210 116.888L210 117.628L203 117.628L203 116.888L210 116.888ZM209.36 122.146L206.61 122.146L206.61 125.766L205.97 125.766L205.97 122.146L203 122.146L203 121.406L210 121.406L210 126.206L209.36 126.206L209.36 122.146ZM210 129.234L210 129.974L203 129.974L203 129.234L210 129.234ZM203.64 138.701L203 138.701L203 133.751L210 133.751L210 138.551L209.36 138.551L209.36 134.491L206.87 134.491L206.87 138.111L206.24 138.111L206.24 134.491L203.64 134.491L203.64 138.701ZM210 141.941L210 144.791C210 145.531 209.85 146.184 209.55 146.751C209.257 147.317 208.843 147.757 208.31 148.071C207.783 148.384 207.18 148.541 206.5 148.541C205.82 148.541 205.213 148.384 204.68 148.071C204.153 147.757 203.74 147.317 203.44 146.751C203.147 146.184 203 145.531 203 144.791L203 141.941L210 141.941ZM203.64 144.751C203.64 145.364 203.76 145.901 204 146.361C204.247 146.821 204.583 147.177 205.01 147.431C205.443 147.684 205.94 147.811 206.5 147.811C207.06 147.811 207.553 147.684 207.98 147.431C208.413 147.177 208.75 146.821 208.99 146.361C209.237 145.901 209.36 145.364 209.36 144.751L209.36 142.681L203.64 142.681L203.64 144.751Z" fill="url(#paint3_linear)"/>
<path d="M187.419 175.904C188.02 175.557 188.639 175.377 189.277 175.362C189.91 175.351 190.5 175.5 191.047 175.807C191.592 176.124 192.032 176.574 192.369 177.157C192.706 177.74 192.873 178.344 192.872 178.968C192.868 179.602 192.7 180.191 192.369 180.737C192.037 181.282 191.571 181.729 190.971 182.075C190.52 182.335 190.061 182.5 189.594 182.57C189.126 182.64 188.676 182.607 188.244 182.472L188.416 181.83C189.166 182.036 189.902 181.93 190.623 181.514C191.103 181.237 191.475 180.876 191.741 180.43C192.007 179.983 192.143 179.505 192.148 178.994C192.147 178.486 192.01 177.996 191.737 177.522C191.463 177.049 191.107 176.685 190.668 176.43C190.223 176.179 189.74 176.057 189.221 176.065C188.702 176.072 188.203 176.214 187.723 176.491C186.996 176.911 186.538 177.498 186.351 178.253L185.709 178.081C185.808 177.639 186.005 177.228 186.302 176.849C186.597 176.479 186.969 176.164 187.419 175.904ZM178.592 181.809L178.272 181.255L182.558 178.78L186.058 184.842L181.902 187.242L181.582 186.688L185.098 184.658L183.853 182.501L180.718 184.311L180.403 183.766L183.538 181.956L182.238 179.704L178.592 181.809ZM171.327 185.265L173.837 186.413C173.983 186.306 174.14 186.204 174.307 186.107L175.935 185.167L174.825 183.245L175.466 182.875L178.966 188.937L176.697 190.247C175.924 190.693 175.211 190.859 174.559 190.742C173.906 190.626 173.394 190.245 173.02 189.598C172.747 189.125 172.637 188.654 172.689 188.184C172.739 187.724 172.945 187.294 173.306 186.893L170.625 185.67L171.327 185.265ZM174.64 186.643C174.039 186.989 173.657 187.387 173.493 187.836C173.328 188.285 173.385 188.749 173.661 189.228C173.945 189.719 174.32 190.003 174.788 190.079C175.258 190.161 175.794 190.029 176.395 189.682L178.005 188.752L176.25 185.713L174.64 186.643ZM169.996 193.377L172.126 192.147L172.446 192.701L167.544 195.531L167.224 194.977L169.355 193.747L166.175 188.239L166.816 187.869L169.996 193.377ZM165.221 196.872L164.581 197.242L161.081 191.18L161.721 190.81L165.221 196.872ZM160.348 198.947L158.973 196.565L155.838 198.375L155.518 197.821L158.653 196.011L157.168 193.439L157.809 193.069L161.309 199.131L157.152 201.531L156.832 200.977L160.348 198.947ZM154.53 203.045L153.889 203.415L150.389 197.353L151.03 196.983L154.53 203.045ZM143.151 202.271L142.831 201.717L147.117 199.242L150.617 205.304L146.46 207.704L146.14 207.15L149.657 205.12L148.412 202.963L145.277 204.773L144.962 204.228L148.097 202.418L146.797 200.166L143.151 202.271ZM143.525 209.399L141.057 210.824C140.416 211.194 139.775 211.39 139.135 211.414C138.497 211.443 137.909 211.305 137.371 211C136.837 210.701 136.399 210.256 136.059 209.668C135.719 209.079 135.552 208.475 135.556 207.856C135.564 207.244 135.739 206.666 136.08 206.122C136.424 205.585 136.916 205.131 137.557 204.761L140.025 203.336L143.525 209.399ZM137.912 205.296C137.38 205.602 136.976 205.975 136.697 206.412C136.422 206.856 136.282 207.326 136.276 207.822C136.273 208.324 136.412 208.818 136.692 209.303C136.972 209.788 137.328 210.151 137.761 210.394C138.197 210.643 138.674 210.756 139.192 210.734C139.714 210.718 140.24 210.556 140.772 210.249L142.564 209.214L139.704 204.261L137.912 205.296Z" fill="url(#paint4_linear)"/>
<path d="M92.4793 203.064C93.0798 203.41 93.5458 203.857 93.8775 204.402C94.2033 204.944 94.3698 205.529 94.377 206.157C94.375 206.787 94.2057 207.394 93.869 207.977C93.5323 208.56 93.0933 209.007 92.552 209.318C92.0015 209.631 91.4071 209.781 90.7688 209.767C90.1305 209.752 89.5111 209.572 88.9107 209.225C88.4604 208.965 88.088 208.65 87.7936 208.28C87.4992 207.91 87.3026 207.504 87.2037 207.062L87.8457 206.89C88.0425 207.642 88.5017 208.227 89.2234 208.643C89.7026 208.92 90.2018 209.062 90.7211 209.069C91.2403 209.077 91.7225 208.955 92.1677 208.704C92.6071 208.449 92.9635 208.085 93.2368 207.612C93.5101 207.138 93.6471 206.648 93.6477 206.14C93.6425 205.629 93.507 205.151 93.2411 204.704C92.9751 204.258 92.6026 203.897 92.1234 203.62C91.3959 203.2 90.6583 203.098 89.9107 203.313L89.7387 202.671C90.1709 202.535 90.6254 202.502 91.1023 202.569C91.57 202.639 92.029 202.804 92.4793 203.064ZM82.9516 198.371L83.2716 197.817L87.5585 200.292L84.0585 206.354L79.9015 203.954L80.2215 203.4L83.7376 205.43L84.9826 203.274L81.8476 201.464L82.1626 200.918L85.2976 202.728L86.5976 200.476L82.9516 198.371ZM76.3266 193.807L76.5872 196.556C76.7531 196.629 76.9198 196.713 77.0872 196.81L78.7153 197.75L79.8253 195.827L80.4662 196.197L76.9662 202.259L74.6972 200.949C73.9236 200.503 73.424 199.968 73.1986 199.345C72.9731 198.722 73.047 198.088 73.4204 197.441C73.6937 196.968 74.0466 196.636 74.4791 196.447C74.9025 196.261 75.3781 196.223 75.906 196.336L75.6251 193.402L76.3266 193.807ZM76.7895 197.365C76.1891 197.019 75.6534 196.887 75.1825 196.969C74.7117 197.051 74.3379 197.332 74.0612 197.811C73.7779 198.302 73.72 198.769 73.8875 199.212C74.0518 199.661 74.4341 200.059 75.0345 200.405L76.6453 201.335L78.4003 198.295L76.7895 197.365ZM69.4088 197.896L68.7679 197.526L72.2679 191.464L72.9088 191.834L69.4088 197.896ZM65.1756 194.713L66.5506 192.332L63.4156 190.522L63.7356 189.967L66.8706 191.777L68.3556 189.205L68.9964 189.575L65.4964 195.637L61.3395 193.237L61.6595 192.683L65.1756 194.713ZM58.7171 191.723L58.0762 191.353L61.5762 185.291L62.2171 185.661L58.7171 191.723ZM53.6979 181.482L54.0179 180.927L58.3047 183.402L54.8047 189.465L50.6478 187.065L50.9678 186.51L54.4839 188.54L55.7289 186.384L52.5939 184.574L52.9089 184.028L56.0439 185.838L57.3439 183.587L53.6979 181.482ZM47.7125 185.37L45.2443 183.945C44.6034 183.575 44.1126 183.118 43.7719 182.575C43.4278 182.038 43.2534 181.46 43.2487 180.841C43.2407 180.228 43.4067 179.628 43.7467 179.039C44.0867 178.45 44.5257 178.003 45.0637 177.698C45.5984 177.398 46.1861 177.26 46.8269 177.284C47.4643 177.313 48.1034 177.513 48.7443 177.883L51.2125 179.308L47.7125 185.37ZM48.4589 178.457C47.9278 178.15 47.403 177.986 46.8846 177.964C46.3629 177.947 45.8857 178.061 45.453 178.303C45.0169 178.552 44.6589 178.919 44.3789 179.404C44.0989 179.889 43.9619 180.379 43.968 180.875C43.9707 181.377 44.1113 181.847 44.3896 182.285C44.6647 182.729 45.0678 183.104 45.5989 183.411L47.3916 184.446L50.2516 179.492L48.4589 178.457Z" fill="url(#paint5_linear)"/>
<path d="M31.06 145.82C31.06 146.513 30.9067 147.14 30.6 147.7C30.2933 148.253 29.87 148.69 29.33 149.01C28.7833 149.323 28.1733 149.48 27.5 149.48C26.8267 149.48 26.22 149.323 25.68 149.01C25.1333 148.69 24.7067 148.25 24.4 147.69C24.0933 147.13 23.94 146.503 23.94 145.81C23.94 145.29 24.0267 144.81 24.2 144.37C24.3733 143.93 24.6267 143.557 24.96 143.25L25.43 143.72C24.8767 144.267 24.6 144.957 24.6 145.79C24.6 146.343 24.7267 146.847 24.98 147.3C25.2333 147.753 25.58 148.11 26.02 148.37C26.46 148.623 26.9533 148.75 27.5 148.75C28.0467 148.75 28.54 148.623 28.98 148.37C29.42 148.11 29.7667 147.753 30.02 147.3C30.2733 146.847 30.4 146.343 30.4 145.79C30.4 144.95 30.12 144.26 29.56 143.72L30.03 143.25C30.3633 143.557 30.62 143.933 30.8 144.38C30.9733 144.82 31.06 145.3 31.06 145.82ZM30.36 135.222L31 135.222L31 140.172L24 140.172L24 135.372L24.64 135.372L24.64 139.432L27.13 139.432L27.13 135.812L27.76 135.812L27.76 139.432L30.36 139.432L30.36 135.222ZM31 127.203L28.75 128.803C28.77 128.983 28.78 129.17 28.78 129.363L28.78 131.243L31 131.243L31 131.983L24 131.983L24 129.363C24 128.47 24.2133 127.77 24.64 127.263C25.0667 126.756 25.6533 126.503 26.4 126.503C26.9467 126.503 27.41 126.643 27.79 126.923C28.1633 127.196 28.4333 127.59 28.6 128.103L31 126.393L31 127.203ZM28.15 129.383C28.15 128.69 27.9967 128.16 27.69 127.793C27.3833 127.426 26.9533 127.243 26.4 127.243C25.8333 127.243 25.4 127.426 25.1 127.793C24.7933 128.16 24.64 128.69 24.64 129.383L24.64 131.243L28.15 131.243L28.15 129.383ZM24.64 121.994L24.64 124.454L24 124.454L24 118.794L24.64 118.794L24.64 121.254L31 121.254L31 121.994L24.64 121.994ZM24 116.112L24 115.372L31 115.372L31 116.112L24 116.112ZM24.64 110.854L27.39 110.854L27.39 107.234L28.03 107.234L28.03 110.854L31 110.854L31 111.594L24 111.594L24 106.794L24.64 106.794L24.64 110.854ZM24 103.766L24 103.026L31 103.026L31 103.766L24 103.766ZM30.36 94.2987L31 94.2987L31 99.2487L24 99.2487L24 94.4487L24.64 94.4487L24.64 98.5087L27.13 98.5087L27.13 94.8887L27.76 94.8887L27.76 98.5087L30.36 98.5087L30.36 94.2987ZM24 91.0592L24 88.2092C24 87.4692 24.15 86.8159 24.45 86.2492C24.7433 85.6826 25.1567 85.2426 25.69 84.9292C26.2167 84.6159 26.82 84.4592 27.5 84.4592C28.18 84.4592 28.7867 84.6159 29.32 84.9292C29.8467 85.2426 30.26 85.6826 30.56 86.2492C30.8533 86.8159 31 87.4692 31 88.2092L31 91.0592L24 91.0592ZM30.36 88.2492C30.36 87.6359 30.24 87.0992 30 86.6392C29.7533 86.1792 29.4167 85.8226 28.99 85.5692C28.5567 85.3159 28.06 85.1892 27.5 85.1892C26.94 85.1892 26.4467 85.3159 26.02 85.5692C25.5867 85.8226 25.25 86.1792 25.01 86.6392C24.7633 87.0992 24.64 87.6359 24.64 88.2492L24.64 90.3192L30.36 90.3192L30.36 88.2492Z" fill="url(#paint6_linear)"/>
<g clip-path="url(#clip0)">
<path d="M107.048 89.4225C106.81 89.4205 106.574 89.4724 106.357 89.5744C106.147 89.6732 105.959 89.8176 105.809 89.9976C105.651 90.1923 105.53 90.4157 105.454 90.6559C105.362 90.9256 105.316 91.2096 105.319 91.4951C105.292 92.042 105.467 92.5793 105.809 93.0017C105.962 93.1838 106.153 93.3291 106.368 93.4273C106.583 93.5255 106.816 93.5741 107.052 93.5696C107.288 93.5723 107.521 93.5204 107.735 93.4177C107.943 93.3169 108.128 93.1727 108.278 92.9945C108.438 92.7993 108.561 92.5762 108.642 92.3361C108.733 92.0655 108.778 91.7811 108.775 91.4951C108.801 90.9489 108.627 90.4124 108.285 89.9904C108.134 89.8074 107.944 89.6614 107.73 89.5631C107.516 89.4648 107.283 89.4167 107.048 89.4225Z" fill="url(#paint7_linear)"/>
<path d="M134.13 89.5436C133.821 89.2498 133.41 89.0919 132.987 89.1041C132.776 89.0971 132.565 89.133 132.367 89.2097C132.169 89.2864 131.988 89.4024 131.835 89.5509C131.522 89.8683 131.333 90.2904 131.302 90.7391H134.659C134.635 90.2875 134.446 89.8613 134.13 89.5436Z" fill="url(#paint8_linear)"/>
<path d="M125.077 89.8077C124.784 89.5654 124.421 89.4298 124.044 89.4225C123.796 89.4212 123.552 89.4834 123.334 89.6034C123.121 89.7197 122.933 89.8762 122.778 90.0646C122.619 90.2619 122.498 90.4885 122.423 90.7319C122.337 90.99 122.295 91.2608 122.297 91.5332C122.294 91.8121 122.342 92.0892 122.437 92.3507C122.524 92.5904 122.655 92.8113 122.822 93.0018C122.988 93.1847 123.191 93.329 123.417 93.425C123.654 93.5273 123.91 93.579 124.168 93.5769C124.503 93.5735 124.831 93.4711 125.11 93.2821C125.413 93.085 125.653 92.8038 125.803 92.4718V90.8061C125.66 90.4094 125.408 90.0629 125.077 89.8077Z" fill="url(#paint9_linear)"/>
<path d="M138.976 71.1229C136.749 64.6209 132.58 58.992 127.054 55.0248C121.529 51.0577 114.924 48.9512 108.165 49.0005C101.405 49.0498 94.8303 51.2524 89.3612 55.2996C83.8922 59.3469 79.8029 65.0361 77.6665 71.5699C75.5302 78.1037 75.4537 85.1548 77.4479 91.7351C79.4421 98.3155 83.4069 104.095 88.7869 108.265C94.1669 112.434 100.692 114.784 107.449 114.986C114.206 115.187 120.855 113.23 126.465 109.388C129.065 110.944 131.973 111.89 134.977 112.154C137.981 112.419 141.005 111.996 143.828 110.917C146.651 109.838 149.202 108.129 151.294 105.917C153.386 103.704 154.966 101.044 155.919 98.129C156.872 95.2143 157.174 92.1196 156.802 89.0709C156.43 86.0223 155.395 83.0968 153.771 80.5083C152.147 77.9198 149.976 75.7337 147.416 74.1099C144.856 72.4861 141.973 71.4656 138.976 71.1229ZM97.3359 95.022C96.6403 95.4343 95.845 95.6392 95.0406 95.6134C94.4374 95.6233 93.8387 95.5069 93.2814 95.2716C92.7854 95.0637 92.3357 94.7561 91.9589 94.3673C91.5978 93.9912 91.3173 93.5429 91.1352 93.0506C90.7589 92.0416 90.7589 90.9271 91.1352 89.9181C91.3169 89.4272 91.5947 88.9793 91.9518 88.6014C92.3238 88.211 92.7711 87.9031 93.2654 87.6971C93.8294 87.4666 94.433 87.3534 95.0406 87.3643C95.8374 87.3362 96.6256 87.5381 97.3146 87.9467C97.9065 88.3109 98.3853 88.8382 98.6957 89.4677L96.3773 90.1785C96.2414 89.9388 96.0436 89.7416 95.8055 89.6084C95.5673 89.4751 95.2979 89.4108 95.0264 89.4225C94.7916 89.4171 94.5585 89.4646 94.3437 89.5615C94.1289 89.6584 93.9377 89.8024 93.7838 89.9832C93.4369 90.3996 93.2591 90.9352 93.2867 91.4807C93.2832 91.7715 93.3282 92.0608 93.4199 92.3362C93.5012 92.5781 93.6278 92.8017 93.7927 92.9945C93.9468 93.1736 94.1361 93.3177 94.3483 93.4177C94.5845 93.5281 94.8431 93.5796 95.1027 93.568C95.3623 93.5564 95.6155 93.4819 95.8412 93.3508C96.0746 93.2195 96.2657 93.0223 96.3915 92.7829L98.7099 93.5064C98.4095 94.1391 97.9312 94.6667 97.3359 95.022ZM102.399 95.4814C102.287 95.5049 102.18 95.5175 102.072 95.5356C101.821 95.5766 101.568 95.599 101.314 95.6026C100.63 95.6026 100.105 95.4217 99.7395 95.06C99.3739 94.6982 99.191 94.1737 99.191 93.4865V84.4126H101.563V92.631C101.563 93.1247 101.74 93.4123 102.069 93.5046C102.151 93.5269 102.236 93.5385 102.321 93.5389C102.38 93.5392 102.439 93.535 102.498 93.5263C102.514 93.5769 102.528 93.6275 102.546 93.6764C102.724 94.1674 103 94.6157 103.356 94.993C103.372 95.0111 103.389 95.0238 103.405 95.0419L103.423 95.1432C103.096 95.2969 102.752 95.4105 102.399 95.4814ZM110.948 93.0687C110.77 93.5596 110.494 94.0078 110.139 94.3854C109.766 94.7765 109.318 95.0845 108.823 95.2897C107.68 95.735 106.416 95.735 105.273 95.2897C104.778 95.0845 104.331 94.7765 103.959 94.3854C103.603 94.0078 103.328 93.5596 103.15 93.0687C102.783 92.0573 102.783 90.9457 103.15 89.9343C103.326 89.4401 103.602 88.9887 103.959 88.6086C104.333 88.2203 104.78 87.9127 105.273 87.7043C105.836 87.4696 106.44 87.3539 107.048 87.3643C107.656 87.3525 108.261 87.4682 108.823 87.7043C109.314 87.9141 109.759 88.2215 110.131 88.6086C110.487 88.9874 110.765 89.4352 110.948 89.9253C111.136 90.4252 111.232 90.9562 111.23 91.4916C111.23 92.0285 111.134 92.561 110.948 93.0633V93.0687ZM119.67 95.4615C119.479 95.506 119.286 95.5387 119.091 95.5591C118.948 95.5743 118.804 95.5822 118.659 95.5827C117.807 95.5827 117.322 95.2444 117.204 94.568L117.159 94.0833C116.829 94.5863 116.369 94.9872 115.83 95.2426C115.271 95.4952 114.666 95.6217 114.055 95.6134C113.252 95.6134 112.646 95.3584 112.235 94.8484C111.824 94.3383 111.619 93.589 111.617 92.6003V87.5235H113.989V92.0812C113.964 92.4726 114.063 92.8618 114.271 93.1917C114.363 93.3186 114.485 93.4204 114.625 93.4879C114.765 93.5554 114.919 93.5866 115.074 93.5787C115.398 93.5774 115.715 93.4888 115.995 93.3219C116.334 93.1041 116.607 92.7948 116.783 92.4284V87.5235H119.16V92.7467C119.144 92.9231 119.183 93.1001 119.27 93.2532C119.321 93.3087 119.381 93.3533 119.449 93.3844C119.517 93.4154 119.59 93.4323 119.664 93.434L119.67 95.4615ZM128.672 95.4615C128.486 95.5069 128.297 95.5395 128.107 95.5591C127.96 95.5746 127.811 95.5824 127.663 95.5827C127.308 95.5991 126.955 95.5072 126.651 95.3186C126.526 95.2331 126.421 95.1199 126.343 94.9876C126.266 94.8552 126.219 94.7069 126.206 94.5536L126.161 94.1448C125.904 94.619 125.513 95.0039 125.04 95.2499C124.572 95.4908 124.056 95.6148 123.532 95.6116C123.023 95.6171 122.519 95.511 122.054 95.3005C121.609 95.0977 121.211 94.8012 120.887 94.4306C120.553 94.0497 120.29 93.6087 120.113 93.1302C119.926 92.6039 119.834 92.0476 119.84 91.4879C119.836 90.9379 119.921 90.3909 120.092 89.8692C120.245 89.3909 120.486 88.9466 120.802 88.5598C121.103 88.1956 121.475 87.8993 121.894 87.6899C122.326 87.4745 122.801 87.3655 123.282 87.3715C123.801 87.3644 124.312 87.5 124.761 87.764C125.189 88.0153 125.541 88.382 125.778 88.8239V84.4126H128.155V92.7323C128.139 92.9089 128.178 93.0862 128.267 93.2387C128.317 93.2942 128.377 93.3388 128.445 93.3698C128.512 93.4009 128.585 93.4178 128.659 93.4196L128.672 95.4615ZM135.343 95.022C134.638 95.4323 133.836 95.6369 133.024 95.6134C132.423 95.6231 131.825 95.5125 131.265 95.2878C130.769 95.0879 130.319 94.7862 129.943 94.4016C129.583 94.0333 129.303 93.5929 129.119 93.1085C128.931 92.6187 128.835 92.0971 128.837 91.5711C128.833 91.0156 128.929 90.464 129.119 89.9434C129.299 89.4375 129.582 88.9759 129.949 88.5886C130.316 88.2013 130.759 87.8969 131.249 87.6953C131.813 87.4648 132.417 87.3516 133.024 87.3625C133.632 87.3499 134.236 87.4632 134.799 87.6953C135.292 87.9027 135.737 88.2104 136.108 88.5996C136.463 88.9748 136.739 89.4206 136.917 89.909C137.101 90.4073 137.195 90.9357 137.192 91.4681C137.192 91.6091 137.192 91.7484 137.176 91.884C137.169 92.0055 137.155 92.1263 137.132 92.2458H131.352C131.357 92.4768 131.41 92.7043 131.507 92.9129C131.605 93.1215 131.745 93.3066 131.918 93.4557C132.248 93.7289 132.66 93.8761 133.085 93.8717C133.435 93.8713 133.779 93.7831 134.088 93.6149C134.381 93.474 134.612 93.2253 134.734 92.9186L136.759 93.4919C136.44 94.1324 135.945 94.6642 135.334 95.022H135.343ZM143.706 95.4615H137.066V93.7668L140.617 89.4677H137.279V87.5H143.564V89.1946L140.013 93.4919H143.697L143.706 95.4615Z" fill="url(#paint10_linear)"/>
</g>
<path d="M48.2713 48.8417C48.9972 48.4226 49.6662 48.2675 50.2781 48.3765C50.89 48.4855 51.3711 48.8434 51.7214 49.4502C52.0717 50.057 52.1411 50.6526 51.9296 51.237C51.7149 51.816 51.2446 52.3151 50.5186 52.7342L48.9909 53.6163L50.0277 55.4122L49.4264 55.7594L46.1422 50.071L48.2713 48.8417ZM50.1974 52.2154C50.7608 51.8901 51.1211 51.5195 51.2784 51.1037C51.4324 50.6825 51.3797 50.247 51.1201 49.7974C50.8542 49.3369 50.5019 49.0708 50.0632 48.999C49.6214 48.9218 49.1187 49.0459 48.5553 49.3712L47.0438 50.2438L48.6859 53.0881L50.1974 52.2154ZM56.8048 51.5536C56.3931 51.7913 55.9688 51.9135 55.532 51.9201C55.092 51.9213 54.6819 51.8114 54.3015 51.5904C53.921 51.3694 53.6104 51.0503 53.3696 50.6332C53.1287 50.216 53.0077 49.7875 53.0065 49.3475C53.0054 48.9076 53.1168 48.5001 53.3409 48.1251C53.5651 47.7501 53.883 47.4438 54.2947 47.206C54.7065 46.9683 55.1307 46.8462 55.5676 46.8396C56.0044 46.833 56.4103 46.9417 56.7853 47.1659C57.1657 47.3869 57.4763 47.7059 57.7171 48.1231C57.958 48.5402 58.079 48.9688 58.0802 49.4087C58.0868 49.8455 57.9796 50.2541 57.7586 50.6346C57.5345 51.0096 57.2165 51.3159 56.8048 51.5536ZM56.5092 51.0417C56.8126 50.8665 57.0444 50.6424 57.2046 50.3693C57.367 50.0877 57.4425 49.7805 57.4309 49.4477C57.4193 49.1149 57.3197 48.7859 57.1321 48.4609C56.9444 48.1358 56.7093 47.8851 56.4269 47.7087C56.1444 47.5322 55.8422 47.4467 55.5202 47.452C55.2005 47.4488 54.889 47.5347 54.5856 47.7099C54.2822 47.885 54.0493 48.1134 53.8868 48.395C53.7267 48.6681 53.6497 48.9726 53.6558 49.3085C53.6674 49.6414 53.767 49.9703 53.9547 50.2953C54.1423 50.6204 54.3774 50.8711 54.6598 51.0476C54.9477 51.2209 55.2515 51.3091 55.5712 51.3124C55.8932 51.3071 56.2058 51.2168 56.5092 51.0417ZM63.8156 41.7525L64.6663 46.9606L64.1219 47.2749L60.7508 44.5513L61.4239 48.8326L60.8795 49.1469L56.8026 45.8014L57.3552 45.4824L60.7933 48.3407L60.0694 43.9154L60.5651 43.6292L64.0275 46.4734L63.2874 42.0574L63.8156 41.7525ZM69.6243 41.4868L66.0488 43.5512C66.3378 43.9767 66.7164 44.2384 67.1847 44.3364C67.6499 44.429 68.1182 44.3392 68.5895 44.0671C68.855 43.9139 69.0722 43.727 69.2411 43.5067C69.4069 43.281 69.5179 43.0291 69.5741 42.751L70.115 42.9372C70.0567 43.2742 69.9185 43.5852 69.7001 43.8701C69.4872 44.152 69.2101 44.3914 68.8688 44.5885C68.43 44.8418 67.9868 44.9749 67.5391 44.9878C67.0938 44.9921 66.6809 44.8837 66.3005 44.6627C65.9201 44.4417 65.6094 44.1227 65.3686 43.7055C65.1277 43.2884 65.0013 42.8629 64.9893 42.4293C64.9827 41.9924 65.0833 41.5912 65.2912 41.2256C65.5045 40.8569 65.8089 40.5584 66.2044 40.33C66.5998 40.1017 67.0079 39.9889 67.4284 39.9917C67.849 39.9945 68.2441 40.1095 68.6136 40.3368C68.9801 40.5586 69.2853 40.8808 69.5293 41.3034L69.6243 41.4868ZM66.4905 40.8257C66.0788 41.0634 65.8087 41.3963 65.6803 41.8245C65.5541 42.244 65.5941 42.676 65.8001 43.1205L68.8312 41.3705C68.5493 40.9698 68.1925 40.7208 67.7606 40.6234C67.3311 40.5174 66.9077 40.5849 66.4905 40.8257ZM70.5055 39.0061C70.4752 38.6408 70.5505 38.3083 70.7316 38.0088C70.918 37.7061 71.2089 37.4406 71.6044 37.2123L71.9281 37.773L71.7853 37.8446C71.3356 38.1043 71.0633 38.4457 70.9682 38.869C70.8731 39.2923 70.9694 39.7532 71.2571 40.2516L72.5145 42.4294L71.9376 42.7625L69.4697 38.4881L70.0223 38.1691L70.5055 39.0061ZM77.6872 36.8317L74.1116 38.8961C74.4006 39.3216 74.7792 39.5833 75.2476 39.6813C75.7127 39.7739 76.181 39.6842 76.6523 39.412C76.9178 39.2588 77.135 39.072 77.3039 38.8516C77.4698 38.6259 77.5808 38.374 77.6369 38.096L78.1778 38.2821C78.1196 38.6191 77.9813 38.9301 77.763 39.2151C77.5501 39.4969 77.273 39.7363 76.9317 39.9334C76.4928 40.1867 76.0496 40.3198 75.6019 40.3327C75.1566 40.337 74.7437 40.2287 74.3633 40.0077C73.9829 39.7867 73.6723 39.4676 73.4314 39.0504C73.1906 38.6333 73.0641 38.2079 73.0521 37.7742C73.0455 37.3374 73.1462 36.9362 73.354 36.5705C73.5673 36.2018 73.8717 35.9033 74.2672 35.6749C74.6627 35.4466 75.0707 35.3338 75.4912 35.3366C75.9118 35.3394 76.3069 35.4544 76.6765 35.6817C77.0429 35.9035 77.3481 36.2257 77.5921 36.6483L77.6872 36.8317ZM74.5534 36.1706C74.1416 36.4084 73.8716 36.7413 73.7431 37.1694C73.6169 37.5889 73.6569 38.021 73.8629 38.4654L76.894 36.7154C76.6122 36.3147 76.2553 36.0657 75.8234 35.9683C75.3939 35.8624 74.9705 35.9298 74.5534 36.1706ZM80.4198 29.8257L83.901 35.8554L83.3484 36.1745L82.8605 35.3293C82.8529 35.7166 82.7493 36.0689 82.5498 36.3864C82.3556 36.7007 82.0798 36.9611 81.7222 37.1675C81.3213 37.399 80.9052 37.5165 80.4738 37.5199C80.0424 37.5234 79.6392 37.4131 79.2642 37.189C78.8892 36.9648 78.5797 36.6415 78.3358 36.2189C78.0918 35.7963 77.9665 35.3667 77.9599 34.9298C77.9533 34.493 78.0609 34.0914 78.2828 33.7249C78.5015 33.3531 78.8113 33.0514 79.2122 32.82C79.5589 32.6198 79.9126 32.5131 80.2734 32.4998C80.6364 32.478 80.9871 32.5537 81.3254 32.7267L79.8428 30.1588L80.4198 29.8257ZM81.4754 36.6274C81.7734 36.4554 82.0025 36.2328 82.1626 35.9598C82.3251 35.6782 82.4005 35.371 82.389 35.0381C82.3828 34.7022 82.2859 34.3717 82.0982 34.0466C81.9106 33.7216 81.6728 33.4724 81.3849 33.2991C81.1025 33.1227 80.8003 33.0371 80.4783 33.0424C80.1586 33.0392 79.8498 33.1236 79.5518 33.2956C79.2484 33.4708 79.0155 33.6992 78.853 33.9808C78.6929 34.2538 78.6159 34.5584 78.622 34.8943C78.6336 35.2271 78.7332 35.5561 78.9209 35.8811C79.1085 36.2062 79.3436 36.4569 79.626 36.6333C79.9139 36.8066 80.2177 36.8949 80.5374 36.8981C80.8594 36.8928 81.172 36.8026 81.4754 36.6274ZM89.6466 28.6268C90.0673 28.4922 90.4483 28.489 90.7895 28.617C91.1329 28.7366 91.4142 28.9859 91.6331 29.3652C91.9146 29.8527 91.9505 30.334 91.7408 30.8091C91.5334 31.2755 91.0775 31.7121 90.3732 32.1187L87.7566 33.6294L84.4724 27.941L86.9265 26.5241C87.5604 26.1582 88.1241 26.0024 88.6179 26.0568C89.117 26.1082 89.5011 26.3668 89.7701 26.8327C89.9515 27.1469 90.0278 27.4604 89.9989 27.7733C89.9723 28.0775 89.8549 28.362 89.6466 28.6268ZM85.3599 28.0895L86.5516 30.1536L88.3638 29.1074C88.8243 28.8415 89.1291 28.5499 89.2782 28.2327C89.4242 27.91 89.4002 27.5808 89.2063 27.2449C89.0124 26.909 88.7407 26.7263 88.3914 26.6968C88.039 26.6619 87.6326 26.7774 87.1721 27.0433L85.3599 28.0895ZM90.0789 31.6277C90.5882 31.3337 90.9228 31.0249 91.0827 30.7014C91.2427 30.3779 91.2163 30.032 91.0036 29.6636C90.5939 28.9539 89.8743 28.8962 88.845 29.4905L86.8378 30.6493L88.0717 32.7865L90.0789 31.6277ZM94.8851 23.8145L95.5113 29.8348C95.5694 30.3358 95.5332 30.736 95.4026 31.0353C95.2721 31.3346 95.0469 31.5765 94.7273 31.7611C94.5214 31.8799 94.3104 31.9584 94.094 31.9967C93.8777 32.0349 93.667 32.0265 93.4619 31.9715L93.4814 31.386C93.8233 31.4776 94.1459 31.4358 94.4492 31.2607C94.6443 31.1481 94.7782 30.9985 94.8511 30.8119C94.9294 30.6223 94.9531 30.363 94.9221 30.0341L94.8698 29.5118L90.4969 26.348L91.0983 26.0008L94.8045 28.7043L94.3163 24.1429L94.8851 23.8145Z" fill="url(#paint11_linear)"/>
<defs>
<linearGradient id="paint0_linear" x1="188" y1="177" x2="47.9207" y2="123.063" gradientUnits="userSpaceOnUse">
<stop stop-color="#2253F5"/>
<stop offset="1" stop-color="#36A0FC"/>
</linearGradient>
<linearGradient id="paint1_linear" x1="188" y1="177" x2="47.9207" y2="123.063" gradientUnits="userSpaceOnUse">
<stop stop-color="#F2E02B"/>
<stop offset="1" stop-color="#55F218"/>
</linearGradient>
<linearGradient id="paint2_linear" x1="191.024" y1="61.1603" x2="175.879" y2="8.63074" gradientUnits="userSpaceOnUse">
<stop stop-color="#E7E22A"/>
<stop offset="1" stop-color="#65F11A"/>
</linearGradient>
<linearGradient id="paint3_linear" x1="202" y1="150" x2="239.919" y2="110.619" gradientUnits="userSpaceOnUse">
<stop stop-color="#E7E22A"/>
<stop offset="1" stop-color="#65F11A"/>
</linearGradient>
<linearGradient id="paint4_linear" x1="132.546" y1="206.5" x2="185.61" y2="219.649" gradientUnits="userSpaceOnUse">
<stop stop-color="#E7E22A"/>
<stop offset="1" stop-color="#65F11A"/>
</linearGradient>
<linearGradient id="paint5_linear" x1="45.4738" y1="174.84" x2="62.6608" y2="222.828" gradientUnits="userSpaceOnUse">
<stop stop-color="#E7E22A"/>
<stop offset="1" stop-color="#65F11A"/>
</linearGradient>
<linearGradient id="paint6_linear" x1="32" y1="83" x2="-5.91935" y2="122.381" gradientUnits="userSpaceOnUse">
<stop stop-color="#E7E22A"/>
<stop offset="1" stop-color="#65F11A"/>
</linearGradient>
<linearGradient id="paint7_linear" x1="108.778" y1="93.5699" x2="104.912" y2="93.1063" gradientUnits="userSpaceOnUse">
<stop stop-color="#2253F5"/>
<stop offset="1" stop-color="#36A0FC"/>
</linearGradient>
<linearGradient id="paint8_linear" x1="134.659" y1="90.7391" x2="131.161" y2="89.7075" gradientUnits="userSpaceOnUse">
<stop stop-color="#2253F5"/>
<stop offset="1" stop-color="#36A0FC"/>
</linearGradient>
<linearGradient id="paint9_linear" x1="125.803" y1="93.577" x2="121.889" y2="93.1023" gradientUnits="userSpaceOnUse">
<stop stop-color="#2253F5"/>
<stop offset="1" stop-color="#36A0FC"/>
</linearGradient>
<linearGradient id="paint10_linear" x1="156.956" y1="115" x2="68.0249" y2="99.3238" gradientUnits="userSpaceOnUse">
<stop stop-color="#2253F5"/>
<stop offset="1" stop-color="#36A0FC"/>
</linearGradient>
<linearGradient id="paint11_linear" x1="98.8634" y1="29.5263" x2="47.4306" y2="23.5069" gradientUnits="userSpaceOnUse">
<stop stop-color="#2253F5"/>
<stop offset="1" stop-color="#36A0FC"/>
</linearGradient>
<clipPath id="clip0">
<rect width="81" height="66" fill="white" transform="translate(76 49)"/>
</clipPath>
</defs>
</svg>
